<svg xmlns="http://www.w3.org/2000/svg" fill="none" viewBox="0 0 51 65"><path fill="#093F68" fill-rule="evenodd" d="M1.38 64.918h47.416c.366 0 .717-.145.976-.405.26-.26.404-.612.404-.98V1.386C50.176.62 49.56 0 48.796 0H1.38C.618 0 0 .62 0 1.385v62.149c0 .765.618 1.384 1.38 1.384Zm46.036-2.77H2.76V2.77h44.655v59.379Z" clip-rule="evenodd"/><path fill="#093F68" fill-rule="evenodd" d="M8.463 58.053h28.919a1.38 1.38 0 0 0 1.146-.623c.255-.38.307-.862.138-1.288L24.2 20.678a1.38 1.38 0 0 0-2.554 0L7.193 56.142c-.173.423-.127.905.125 1.288.253.387.683.62 1.145.623Zm26.904-2.77H10.52l12.423-30.465 12.424 30.465Z" clip-rule="evenodd"/><path fill="#093F68" fill-rule="evenodd" d="M15.463 30.659h25.095c.763 0 1.38-.62 1.38-1.385V8.614c0-.765-.617-1.385-1.38-1.385H15.463c-.762 0-1.38.62-1.38 1.384v20.661c0 .765.618 1.385 1.38 1.385Zm23.715-2.77h-22.28L16.845 10h22.334v17.89Z" clip-rule="evenodd"/></svg>