<svg xmlns="http://www.w3.org/2000/svg" fill="none" viewBox="0 0 160 164"><rect width="160" height="164" fill="#093F68" rx="45"/><path fill="#080C20" d="M113.262 62.74c-3.227-3.986-10.034-4.205-11.873-10.145-1.839-5.94-1.306-8.458-1.306-8.458H59.917s.544 2.512-1.306 8.458-8.646 6.154-11.873 10.145c-2.856 3.538-2.856 8.763-2.856 14.3v36.741c0 5.946 2.753 12.198 9.293 12.198h53.65c6.529 0 9.294-6.252 9.294-12.198V77.04c0-5.537 0-10.762-2.857-14.3Z"/><path fill="#093F68" fill-rule="evenodd" d="M53.175 126.525h53.65c6.796 0 9.838-6.405 9.892-12.738V77.045c0-5.635 0-10.958-2.976-14.644-1.375-1.695-3.351-2.737-5.263-3.746l-.01-.005c-2.84-1.485-5.501-2.888-6.529-6.213-1.758-5.695-1.29-8.19-1.29-8.19a.547.547 0 0 0-.114-.46.544.544 0 0 0-.419-.201H59.949a.543.543 0 0 0-.544.655v.002c.015.082.45 2.563-1.29 8.188-1.05 3.325-3.71 4.729-6.529 6.214l-.136.072c-1.872.998-3.792 2.02-5.136 3.679-2.977 3.685-2.977 9.009-2.977 14.644v36.741c0 6.339 3.042 12.744 9.838 12.744Zm5.958-73.772c1.355-4.379 1.447-6.95 1.388-8.07h38.991c-.06 1.12.033 3.702 1.388 8.07 1.163 3.76 4.146 5.332 7.034 6.855l.006.003c1.899 1 3.7 1.95 4.93 3.473 2.721 3.385 2.721 8.496 2.721 13.956v36.741c0 5.799-2.705 11.652-8.75 11.652h-53.65c-6.029 0-8.75-5.853-8.75-11.652V77.04c0-5.438 0-10.57 2.721-13.956 1.23-1.524 3.031-2.474 4.93-3.473l.007-.003c2.887-1.523 5.87-3.096 7.034-6.855Z" clip-rule="evenodd"/><path fill="#093F68" fill-rule="evenodd" d="M53.175 123.249h53.65c6.304 0 6.567-8.266 6.604-9.444l.002-.046V77.018c0-5.018 0-9.774-2.248-12.558-.952-1.174-2.557-2.02-4.26-2.916l-.116-.062c-2.95-1.577-6.573-3.514-7.986-8.079a42.37 42.37 0 0 1-1.355-7.147.545.545 0 0 0-.544-.48h-33.79a.545.545 0 0 0-.544.48 42.368 42.368 0 0 1-1.376 7.169c-1.431 4.625-5.131 6.574-8.108 8.14l-.002.002c-1.697.895-3.301 1.741-4.253 2.915-2.247 2.762-2.247 7.518-2.247 12.558v36.741c0 .966.18 9.468 6.573 9.468Zm9.076-69.524a41.832 41.832 0 0 0 1.338-6.858h32.822c.254 2.32.702 4.614 1.338 6.858 1.567 5.056 5.485 7.148 8.641 8.785 1.594.841 3.101 1.639 3.912 2.638 2.008 2.484 2.008 7.054 2.008 11.892v36.741c0 .857-.153 8.376-5.485 8.376h-53.65c-5.332 0-5.485-7.519-5.485-8.376V77.04c0-4.838 0-9.408 2.008-11.892.81-1 2.318-1.797 3.918-2.637l.122-.066c3.129-1.675 6.966-3.729 8.513-8.72Z" clip-rule="evenodd"/><path fill="#080C20" d="M56.402 38.808h47.196a4.22 4.22 0 0 1 4.212 4.226v2.73c0 .624-.247 1.223-.687 1.664a2.34 2.34 0 0 1-1.658.69h-50.93a2.34 2.34 0 0 1-1.658-.69 2.357 2.357 0 0 1-.687-1.664v-2.73a4.219 4.219 0 0 1 4.212-4.226Z"/><path fill="#093F68" fill-rule="evenodd" d="M54.535 48.68h50.93a2.895 2.895 0 0 0 2.889-2.9v-2.73c-.003-2.634-2.13-4.768-4.756-4.771H56.402c-2.626.002-4.753 2.137-4.756 4.772v2.73c0 1.6 1.294 2.899 2.89 2.899Zm-.727-8.248a3.66 3.66 0 0 1 2.594-1.078h47.196a3.674 3.674 0 0 1 3.668 3.68v2.73c0 .998-.807 1.808-1.801 1.808h-50.93c-.994 0-1.8-.81-1.8-1.808v-2.73c0-.976.386-1.912 1.073-2.602Z" clip-rule="evenodd"/><rect width="32.402" height="7.573" x="55.368" y="83.996" fill="#3EE9E5" rx="3.787"/><path fill="#093F68" fill-rule="evenodd" d="M57.544 92.115h28.05a2.725 2.725 0 0 0 2.72-2.73V86.18a2.725 2.725 0 0 0-2.72-2.73h-28.05a2.725 2.725 0 0 0-2.72 2.73v3.205a2.725 2.725 0 0 0 2.72 2.73Zm-1.632-5.935c0-.905.73-1.638 1.632-1.638h28.05c.901 0 1.632.733 1.632 1.638v3.205c0 .905-.731 1.638-1.632 1.638h-28.05a1.635 1.635 0 0 1-1.632-1.638V86.18Z" clip-rule="evenodd"/><rect width="32.402" height="7.573" x="58.692" y="91.569" fill="#3EE9E5" rx="3.787"/><path fill="#093F68" fill-rule="evenodd" d="M60.869 99.7h28.05c.72 0 1.413-.288 1.923-.8s.797-1.207.797-1.93v-3.211a2.725 2.725 0 0 0-2.72-2.73h-28.05a2.725 2.725 0 0 0-2.72 2.73v3.21a2.725 2.725 0 0 0 2.72 2.73Zm-1.633-5.941c0-.905.731-1.638 1.633-1.638h28.05c.9 0 1.631.733 1.631 1.638v3.21c0 .905-.73 1.638-1.632 1.638h-28.05a1.635 1.635 0 0 1-1.632-1.638v-3.21Z" clip-rule="evenodd"/><rect width="32.402" height="7.573" x="86.763" y="106.737" fill="#3EE9E5" rx="3.787" transform="rotate(-180 86.763 106.737)"/><path fill="#093F68" fill-rule="evenodd" d="M56.538 107.283h28.049a2.713 2.713 0 0 0 1.927-.803c.511-.514.796-1.212.794-1.937v-3.206a2.725 2.725 0 0 0-2.721-2.73h-28.05a2.725 2.725 0 0 0-2.72 2.73v3.216a2.725 2.725 0 0 0 2.72 2.73Zm-1.633-5.946c0-.904.731-1.638 1.633-1.638h28.049c.901 0 1.632.734 1.632 1.638v3.206c0 .904-.73 1.638-1.632 1.638h-28.05a1.636 1.636 0 0 1-1.632-1.638v-3.206Z" clip-rule="evenodd"/><rect width="32.402" height="7.573" x="82.198" y="114.311" fill="#3EE9E5" rx="3.787" transform="rotate(-180 82.198 114.311)"/><path fill="#093F68" fill-rule="evenodd" d="M51.972 114.857H80a2.726 2.726 0 0 0 2.72-2.73v-3.205a2.726 2.726 0 0 0-2.72-2.731H51.972a2.726 2.726 0 0 0-2.72 2.731v3.205a2.726 2.726 0 0 0 2.72 2.73Zm-1.654-5.935c0-.905.731-1.639 1.633-1.639H80c.901 0 1.632.734 1.632 1.639v3.205c0 .904-.73 1.638-1.632 1.638H51.95a1.636 1.636 0 0 1-1.632-1.638v-3.205Z" clip-rule="evenodd"/><rect width="32.402" height="7.573" x="86.763" y="121.889" fill="#3EE9E5" rx="3.787" transform="rotate(-180 86.763 121.889)"/><path fill="#093F68" fill-rule="evenodd" d="M56.538 122.435h28.049a2.725 2.725 0 0 0 2.72-2.73v-3.21a2.725 2.725 0 0 0-2.72-2.73h-28.05a2.725 2.725 0 0 0-2.72 2.73v3.21a2.725 2.725 0 0 0 2.72 2.73Zm-1.633-5.94c0-.905.731-1.638 1.633-1.638h28.049c.901 0 1.632.733 1.632 1.638v3.21c0 .905-.73 1.638-1.632 1.638h-28.05a1.635 1.635 0 0 1-1.632-1.638v-3.21Z" clip-rule="evenodd"/><path fill="#3EE9E5" d="M110.086 90.746a3.776 3.776 0 0 1 1.84 5.005l-10.436 22.655a3.777 3.777 0 0 1-6.86-3.16l10.438-22.655a3.776 3.776 0 0 1 5.018-1.845Z"/><path fill="#093F68" fill-rule="evenodd" d="M97.7 121.42c.357.165.745.251 1.137.251 1.061 0 2.025-.618 2.471-1.584l11.769-25.547a2.74 2.74 0 0 0 .085-2.09 2.725 2.725 0 0 0-1.413-1.536l-2.9-1.343a2.71 2.71 0 0 0-2.081-.085c-.678.25-1.229.76-1.532 1.417l-11.77 25.548a2.734 2.734 0 0 0 1.329 3.62l2.905 1.349Zm9.462-30.9c.174-.067.358-.102.544-.103a1.67 1.67 0 0 1 .697.131l2.9 1.349a1.64 1.64 0 0 1 .8 2.184l-11.791 25.548a1.637 1.637 0 0 1-.923.853c-.409.15-.86.13-1.254-.056l-2.9-1.343a1.64 1.64 0 0 1-.81-.912 1.61 1.61 0 0 1 .049-1.25l11.769-25.548c.181-.395.512-.702.919-.852Z" clip-rule="evenodd"/><path fill="#3EE9E5" d="M104.95 84.604a3.776 3.776 0 0 1 1.332 5.163L93.65 111.263a3.776 3.776 0 1 1-6.513-3.827L99.77 85.94a3.777 3.777 0 0 1 5.18-1.336Z"/><path fill="#093F68" fill-rule="evenodd" d="M89.582 113.89c.417.246.892.377 1.377.377.969.011 1.87-.497 2.366-1.332l14.245-24.243a2.732 2.732 0 0 0-.957-3.74l-2.753-1.638a2.713 2.713 0 0 0-3.728.96l-14.266 24.238a2.737 2.737 0 0 0 .963 3.74l2.753 1.638Zm12.471-29.812c.133-.037.27-.055.408-.055.291.001.577.08.827.23l2.753 1.638a1.645 1.645 0 0 1 .577 2.244l-14.25 24.243a1.632 1.632 0 0 1-2.236.579l-2.748-1.638a1.64 1.64 0 0 1-.577-2.245l14.245-24.242a1.634 1.634 0 0 1 1.001-.754Z" clip-rule="evenodd"/><ellipse cx="73.672" cy="108.239" fill="#3EE9E5" rx="13.581" ry="13.629"/><path fill="#093F68" fill-rule="evenodd" d="M59.588 109.568c.694 7.29 6.802 12.854 14.1 12.845 1.78.002 3.543-.337 5.197-.999 6.784-2.699 10.41-10.134 8.369-17.166-2.041-7.032-9.078-11.352-16.246-9.974-7.168 1.379-12.114 8.003-11.42 15.294Zm1.137-3.104c.89-6.496 6.429-11.332 12.963-11.318a13.047 13.047 0 0 1 10.887 5.908 13.142 13.142 0 0 1 1.084 12.372c-2.581 6.024-9.202 9.206-15.498 7.449-6.295-1.758-10.327-7.915-9.436-14.411Z" clip-rule="evenodd"/><ellipse cx="73.672" cy="108.239" fill="#3EE9E5" rx="10.36" ry="10.396"/><path fill="#093F68" fill-rule="evenodd" d="M62.91 109.627c.682 5.448 5.29 9.542 10.762 9.56a10.907 10.907 0 0 0 9.018-4.801 10.985 10.985 0 0 0 1.119-10.182c-2.036-5.097-7.527-7.885-12.826-6.51-5.298 1.374-8.755 6.484-8.073 11.933Zm1.412-4.294a9.798 9.798 0 0 1 9.346-6.944 9.839 9.839 0 0 1 9.129 6.224 9.851 9.851 0 0 1-2.995 11.28 9.768 9.768 0 0 1-11.623.452 9.846 9.846 0 0 1-3.857-11.012Zm9.346-6.944h.004-.011.007Z" clip-rule="evenodd"/><path fill="#093F68" fill-rule="evenodd" d="m75.647 116.511-.49-1.239c-.17.018-.336.04-.5.061-.321.042-.634.083-.947.097a4.094 4.094 0 0 1-2.606-.71 4.009 4.009 0 0 1-1.41-1.867l2.41-.961a2.045 2.045 0 0 0 2.177 1.207l-1.3-3.277a99.09 99.09 0 0 0-.544.052c-.363.035-.726.07-1.088.096a3.538 3.538 0 0 1-1.714-.246 2.955 2.955 0 0 1-1.383-1.212 4.192 4.192 0 0 1-.68-2.184 3.768 3.768 0 0 1 1.284-2.943c.346-.29.71-.558 1.089-.803l.13-.087-.647-1.638 2.252-.901.066.164.134.339c.141.355.282.708.41 1.064.043.12.092.142.212.12a5.075 5.075 0 0 1 2.492.148 3.651 3.651 0 0 1 2.024 1.638c.088.139.163.283.242.433.038.073.076.147.117.222l-2.448.972a1.855 1.855 0 0 0-1.681-1.136l1.213 3.063.288-.043a9.565 9.565 0 0 1 2.177-.148 2.982 2.982 0 0 1 2.584 1.638 3.952 3.952 0 0 1-.865 4.996c-.26.227-.538.433-.826.644-.14.103-.282.208-.425.317l.473 1.196-2.22.928Zm-.201-7.131 1.126 2.85c.345-.198.629-.487.822-.835a1.353 1.353 0 0 0-.838-1.955 10.49 10.49 0 0 0-1.121-.06h.01Zm-4.522-4.767 1.088 2.731c-.122 0-.242.004-.359.009a4.67 4.67 0 0 1-.555.001 1.278 1.278 0 0 1-.955-.748 1.287 1.287 0 0 1 .096-1.212c.212-.273.441-.534.685-.781Z" clip-rule="evenodd"/></svg>