<svg xmlns="http://www.w3.org/2000/svg" fill="none" viewBox="0 0 408 459"><path fill="#080C20" d="M276.91 189.442c-1.282-14.973-.664-22.284-2.25-27.241-3.679-2.94-17.325-10.838-28.766-16.899a8.803 8.803 0 0 1-4.283-5.205 8.82 8.82 0 0 1 .649-6.714c2.25-4.292 5.153-.428 9.45 1.848 13.613 7.255 33.188 11.322 36.956 16.11 4.253 5.396 3.072 41.097 3.072 41.097l-14.828-2.996Z"/><path fill="#093F68" fill-rule="evenodd" d="M291.479 193.542c.074.011.15.011.225 0a1.116 1.116 0 0 0 1.17-1.081c.003-.205.01-.497.018-.868.142-6.351.798-35.715-3.326-40.973-2.261-2.862-8.865-5.216-17.235-8.179-6.581-2.332-13.961-4.968-20.081-8.224a29.696 29.696 0 0 1-2.88-1.746l-.009-.006c-1.976-1.338-3.684-2.495-5.458-2.045a4.302 4.302 0 0 0-2.678 2.434c-2.56 4.848-.724 10.856 4.106 13.44 10.62 5.644 24.244 13.485 28.328 16.606.831 2.766.989 6.43 1.225 11.878l.001.029.04.858c.171 3.724.381 8.278.871 13.889.041.502.408.915.9 1.014l14.783 2.974Zm-.866-2.489-12.645-2.558c-.441-5.236-.637-9.53-.799-13.065l-.034-.746c-.247-5.859-.427-9.723-1.44-12.832a1.038 1.038 0 0 0-.371-.53c-3.87-3.087-17.753-11.085-28.935-17.034-3.736-2-5.154-6.648-3.173-10.398.405-.766.822-1.205 1.227-1.307.81-.202 2.205.733 3.667 1.735a34.461 34.461 0 0 0 3.038 1.893c6.198 3.299 13.608 5.936 20.171 8.272l.214.076c7.391 2.625 14.366 5.103 16.222 7.458 2.858 3.605 3.263 24.818 2.858 39.036Z" clip-rule="evenodd"/><path fill="#080C20" d="M276.91 189.442v17.721s26.876 5.159 24.75 1.126c-2.126-4.033-10.642-6.309-10.642-6.309l.708-9.598-14.816-2.94Z"/><path fill="#093F68" fill-rule="evenodd" d="M276.741 208.267c10.451 2.005 16.74 2.647 20.509 2.647 3.6 0 4.894-.541 5.344-1.16.419-.578.45-1.351.078-1.96-1.935-3.605-8.111-5.859-10.451-6.591l.641-8.697a1.125 1.125 0 0 0-.9-1.194l-14.782-2.974a1.123 1.123 0 0 0-1.35 1.104v17.698c-.01.548.374 1.023.911 1.127Zm23.794.214c-2.419.788-12.983-.496-22.41-2.253v-15.412l12.465 2.512-.63 8.607c-.018.524.327.991.832 1.127 2.138.586 7.887 2.647 9.743 5.419Z" clip-rule="evenodd"/><path fill="#080C20" d="M262.679 83.172s13.714 17.541 17.021 16.898c3.308-.642 12.859-6.996 17.865-9.102 8.021-3.38 20.666-1.758 17.224 1.126-3.443 2.884-2.475.226-2.475.226-18.641 12.29-31.5 20.278-33.12 20.143-8.055-.417-23.153-15.48-23.153-15.48l6.638-13.811Z"/><path fill="#093F68" fill-rule="evenodd" d="M279.137 113.578h.113c.877 0 3.994-.789 32.321-19.388l.124.101c1.001.71 2.25-.011 3.825-1.307a2.016 2.016 0 0 0 .72-2.76c-1.733-2.828-12.611-2.952-19.125-.225a91.62 91.62 0 0 0-8.325 4.394c-3.566 2.027-7.628 4.314-9.281 4.63-1.868 0-9.732-8.562-15.942-16.505a1.122 1.122 0 0 0-1.901.203l-6.637 13.79c-.214.433-.128.954.213 1.295l.202.193c1.913 1.845 15.725 15.162 23.693 15.579Zm.124-2.253c-6.694-.394-19.057-11.942-21.859-14.646l5.479-11.423c11.88 14.972 15.863 16.132 16.988 15.918 2.007-.373 5.724-2.47 9.704-4.715l.308-.174c2.936-1.667 5.974-3.39 8.078-4.28 6.333-2.648 14.535-1.849 16.11-.857-.304.248-.552.44-.754.586a1.574 1.574 0 0 0-.304-.372 1.123 1.123 0 0 0-1.327 0c-27.529 18.172-31.838 19.873-32.423 19.963Z" clip-rule="evenodd"/><path fill="#080C20" d="M210.4 190.14h49.657v7.818H210.4z"/><path fill="#093F68" fill-rule="evenodd" d="M210.4 199.108h49.658c.621 0 1.125-.505 1.125-1.127v-7.886c0-.622-.504-1.126-1.125-1.126H210.4c-.621 0-1.125.504-1.125 1.126v7.886c0 .622.504 1.127 1.125 1.127Zm48.533-2.253h-47.408v-5.633h47.408v5.633Z" clip-rule="evenodd"/><path fill="#080C20" d="M207.981 209.945h-2.52a2.377 2.377 0 0 1-2.317-2.884l12.375-56.407h7.368l-12.543 57.455a2.385 2.385 0 0 1-2.363 1.836Z"/><path fill="#093F68" fill-rule="evenodd" d="M205.461 211.072h2.52a3.501 3.501 0 0 0 3.488-2.715l12.543-57.456a1.124 1.124 0 0 0-.225-.957 1.12 1.12 0 0 0-.866-.417h-7.369a1.127 1.127 0 0 0-1.125.89l-12.375 56.408a3.461 3.461 0 0 0 .687 2.94 3.483 3.483 0 0 0 2.722 1.307Zm-1.215-3.752 12.128-55.529h5.062l-12.24 56.059a1.238 1.238 0 0 1-1.215.98h-2.52a1.238 1.238 0 0 1-1.215-1.51Z" clip-rule="evenodd"/><path fill="#080C20" d="M263.073 209.945h2.508a2.37 2.37 0 0 0 1.848-.887 2.38 2.38 0 0 0 .47-1.997l-12.274-56.396H248.2l12.544 57.455a2.385 2.385 0 0 0 2.329 1.825Z"/><path fill="#093F68" fill-rule="evenodd" d="M263.073 211.072h2.508l.113-.034a3.484 3.484 0 0 0 2.699-1.318c.655-.824.903-1.9.676-2.929l-12.319-56.408a1.125 1.125 0 0 0-1.125-.89h-7.38a1.126 1.126 0 0 0-1.091 1.375l12.544 57.455a3.512 3.512 0 0 0 3.375 2.749Zm-1.227-3.222-12.24-56.058h5.063l12.127 55.528a1.237 1.237 0 0 1-1.215 1.51h-2.508a1.25 1.25 0 0 1-1.227-.98Z" clip-rule="evenodd"/><rect width="55.845" height="8.123" x="202.514" y="146.587" fill="#080C20" rx="2.21"/><path fill="#093F68" fill-rule="evenodd" d="M205 155.847h50.884a3.616 3.616 0 0 0 3.611-3.616v-3.143a3.625 3.625 0 0 0-3.611-3.628H205a3.625 3.625 0 0 0-3.611 3.628v3.143a3.614 3.614 0 0 0 3.611 3.616Zm-1.361-6.759c0-.755.607-1.369 1.361-1.375h50.884c.753.006 1.361.62 1.361 1.375v3.143c0 .753-.609 1.363-1.361 1.363H205c-.752 0-1.361-.61-1.361-1.363v-3.143Z" clip-rule="evenodd"/><path fill="#080C20" d="M272.376 189.442c-1.293-14.973-.663-22.284-2.25-27.241-3.678-2.94-17.325-10.838-28.766-16.899-4.245-2.306-5.84-7.608-3.573-11.878 2.266-4.27 7.547-5.913 11.831-3.68 13.623 7.244 30.746 16.809 34.515 21.597 4.241 5.396 3.071 41.097 3.071 41.097l-14.828-2.996Z"/><path fill="#093F68" fill-rule="evenodd" d="M286.9 193.542c.075.012.15.012.225 0l-.011.068c.621 0 1.125-.504 1.125-1.127l.015-.667c.141-5.904.858-35.858-3.312-41.174-3.06-3.875-14.467-11.04-34.875-21.9-4.841-2.564-10.841-.726-13.421 4.112-2.56 4.848-.724 10.856 4.106 13.44 10.609 5.644 24.244 13.485 28.328 16.606.831 2.766.989 6.43 1.225 11.878l.001.029c.169 3.876.383 8.698.911 14.747.04.498.401.911.889 1.014l14.794 2.974Zm-.866-2.489-12.657-2.558h.045c-.376-4.581-.58-8.441-.753-11.703-.038-.732-.076-1.435-.113-2.108l-.001-.039c-.258-5.837-.428-9.691-1.439-12.793a1.038 1.038 0 0 0-.371-.53c-3.87-3.086-17.753-11.085-28.935-17.033a7.686 7.686 0 0 1-4.07-6.516 7.688 7.688 0 0 1 3.6-6.788 7.666 7.666 0 0 1 7.67-.272c19.856 10.556 31.309 17.699 34.166 21.304 2.858 3.605 3.263 24.818 2.858 39.036Z" clip-rule="evenodd"/><path fill="#080C20" d="M282.625 98.403c-5.062-1.96-21.735-18.532-23.389-19.332l-.787-.372a77.799 77.799 0 0 0-17.246-5.373c-6.987-1.127-14.277-.8-18.327 3.965-9.438 11.12-9.877 43.542-9.877 43.542l43.076 7.886a180.267 180.267 0 0 0 6.75-25.573c5.051 4.225 11.824 9.103 16.358 9.339l3.442-14.082Z"/><path fill="#093F68" fill-rule="evenodd" d="M255.839 129.812h.202c.488.006.924-.303 1.08-.766a186.585 186.585 0 0 0 6.503-23.872c6.66 5.374 11.891 8.19 15.536 8.381.53.016.998-.341 1.125-.856l3.375-14.048a1.127 1.127 0 0 0-.686-1.318c-3.025-1.169-10.915-8.331-16.518-13.417l-.683-.62c-3.994-3.65-5.457-4.946-6.087-5.25 0 0-.292-.158-.832-.395a77.953 77.953 0 0 0-17.528-5.452c-9.135-1.498-15.648-.034-19.361 4.349-9.574 11.288-10.125 42.911-10.125 44.251a1.126 1.126 0 0 0 .923 1.127l43.076 7.886Zm-.551-2.411-41.175-7.503c.168-5.396 1.406-32.242 9.596-41.875 3.172-3.74 8.989-4.945 17.291-3.582a75.71 75.71 0 0 1 16.976 5.295l.743.338c.436.252 2.411 2.045 4.54 3.979l1.029.933c5.591 5.103 13.095 11.941 17.01 14.048l-2.948 12.178c-3.386-.631-8.572-3.774-14.782-8.956a1.125 1.125 0 0 0-1.845.665 177.63 177.63 0 0 1-6.435 24.48Z" clip-rule="evenodd"/><path fill="#093F68" d="M263.061 101.862h-.225a1.13 1.13 0 0 1-.877-1.33l2.25-10.736a1.147 1.147 0 1 1 2.25.45l-2.25 10.737c-.12.533-.603.903-1.148.879ZM240.471 94.178c-.101.011-.203.011-.304 0a1.125 1.125 0 0 1-.787-1.385c1.665-6.05.675-19.152.664-19.332a1.129 1.129 0 1 1 2.25-.17c0 .553 1.035 13.677-.743 20.099a1.125 1.125 0 0 1-1.08.788ZM256.041 100.329a1.25 1.25 0 0 1-.405-.078 1.128 1.128 0 0 1-.652-1.454 45.425 45.425 0 0 0 2.317-19.94 1.126 1.126 0 0 1 1.794-1.054c.238.182.395.452.434.75a46.858 46.858 0 0 1-2.441 21.044c-.164.438-.58.729-1.047.732Z"/><path fill="#080C20" d="M232.866 1.957c-5.782-1.206-11.914.811-16.593 4.292-3.634 2.704-6.751 6.76-6.357 11.142.302 2.073.92 4.087 1.834 5.97a11.956 11.956 0 0 1 1.204 6.096 5.01 5.01 0 0 1-4.016 4.37 12.36 12.36 0 0 0 9.562 1.86 11.906 11.906 0 0 0 7.718-5.757 5 5 0 0 1 1.923-2.456c.463-.189.953-.3 1.452-.327a18.828 18.828 0 0 0 9.742-3.661c8.415-6.884 3.544-19.411-6.469-21.53Z"/><path fill="#093F68" fill-rule="evenodd" d="M208.375 34.785a13.398 13.398 0 0 0 7.515 2.321c.99.02 1.978-.07 2.948-.27a12.939 12.939 0 0 0 8.448-6.31l.214-.405a3.376 3.376 0 0 1 1.125-1.633 3.833 3.833 0 0 1 1.125-.226 19.56 19.56 0 0 0 10.373-3.931 12.324 12.324 0 0 0 4.275-12.708A14.703 14.703 0 0 0 233.148.864c-5.603-1.126-12.15.518-17.494 4.506-4.669 3.47-7.144 7.886-6.818 12.122a18.354 18.354 0 0 0 1.643 5.633l.304.733a11.197 11.197 0 0 1 1.125 5.508 3.92 3.92 0 0 1-3.038 3.38 1.125 1.125 0 0 0-.956.845c-.109.456.074.93.461 1.194Zm9.923-.202a11.347 11.347 0 0 1-6.75-.586 6.762 6.762 0 0 0 2.542-4.338c.175-2.3-.264-4.605-1.271-6.68l-.304-.744a16.577 16.577 0 0 1-1.485-4.923c-.382-4.89 4.016-8.72 5.918-10.14 4.848-3.604 10.71-5.125 15.693-4.089a12.383 12.383 0 0 1 9.552 9.137 10.013 10.013 0 0 1-3.522 10.432 17.535 17.535 0 0 1-9.236 3.38 5.456 5.456 0 0 0-1.721.417 5.292 5.292 0 0 0-2.25 2.568l-.191.372a10.735 10.735 0 0 1-6.975 5.194Z" clip-rule="evenodd"/><path fill="#080C20" d="M247.368 3.804a17.641 17.641 0 0 0-12.96 2.355 21.658 21.658 0 0 0-8.438 10.274 16.627 16.627 0 0 0-1.327 7.886 10.14 10.14 0 0 0 3.611 6.929c.62.562 1.414.893 2.25.935a4.564 4.564 0 0 0 1.62-.44 40.127 40.127 0 0 0 18.619-16.2c2.553-4.27 2.306-10.465-3.375-11.739Z"/><path fill="#093F68" fill-rule="evenodd" d="M227.556 32.206a4.677 4.677 0 0 0 2.903 1.126l.033.045a5.442 5.442 0 0 0 2.037-.53 41.229 41.229 0 0 0 19.125-16.662 10.603 10.603 0 0 0 1.125-9.339 6.954 6.954 0 0 0-5.164-4.09 18.688 18.688 0 0 0-13.793 2.49 22.75 22.75 0 0 0-8.898 10.804 17.713 17.713 0 0 0-1.395 8.416 11.27 11.27 0 0 0 4.027 7.74Zm7.448-25.09a16.977 16.977 0 0 1 8.853-2.568c1.1-.01 2.198.1 3.274.327a4.761 4.761 0 0 1 3.578 2.782 8.426 8.426 0 0 1-.945 7.29 38.833 38.833 0 0 1-18.09 15.771 3.469 3.469 0 0 1-1.193.36 2.62 2.62 0 0 1-1.541-.686 9.02 9.02 0 0 1-3.173-6.208c-.194-2.51.235-5.03 1.249-7.334a20.469 20.469 0 0 1 7.988-9.733Z" clip-rule="evenodd"/><path fill="#080C20" d="M255.94 4.92c5.186.169 9.922 2.028 12.825 6.466 3.375-1.6 7.166.924 9.562 3.73a30.844 30.844 0 0 1 7.257 19.23c.157 9.204-3.927 18.15-9.99 25.066a35.694 35.694 0 0 1-11.723 9.08 23.337 23.337 0 0 1-14.625 1.825c-13.77-3.052-22.162-20.007-23.737-32.862-2.16-18.081 12.285-33.121 30.431-32.535Z"/><path fill="#093F68" fill-rule="evenodd" d="M249.066 71.41c1.522.34 3.076.51 4.635.507a25.771 25.771 0 0 0 10.632-2.365 36.578 36.578 0 0 0 12.127-9.396c6.773-7.728 10.429-16.899 10.271-25.821a31.69 31.69 0 0 0-7.526-19.94c-2.497-2.941-6.334-5.51-10.001-4.383-2.903-3.887-7.448-6.027-13.208-6.219A31.028 31.028 0 0 0 232 13.763a29.52 29.52 0 0 0-7.549 23.85c1.733 14.116 10.947 30.767 24.615 33.797Zm-15.423-56.126a28.7 28.7 0 0 1 21.296-9.249l.967.011c3.735.124 8.832 1.25 11.925 5.96.31.466.913.633 1.418.394 2.779-1.329 6.165 1.025 8.224 3.448a29.894 29.894 0 0 1 6.986 18.52c.146 8.36-3.308 16.99-9.709 24.3a34.532 34.532 0 0 1-11.351 8.8 22.101 22.101 0 0 1-13.849 1.745c-12.656-2.805-21.229-18.52-22.86-31.893a27.228 27.228 0 0 1 6.953-22.036Z" clip-rule="evenodd"/><path fill="#080C20" d="m247.735 72.567 6.302 1.248a.575.575 0 0 1 .452.675l-.626 3.172a3.803 3.803 0 1 1-7.461-1.477l.626-3.172a.574.574 0 0 1 .674-.452l.033.006Z"/><path fill="#093F68" fill-rule="evenodd" d="M249.224 81.752c.318.064.642.095.967.09l.045-.045a4.929 4.929 0 0 0 4.815-3.977l.63-3.165a1.734 1.734 0 0 0-.259-1.273 1.63 1.63 0 0 0-1.125-.721l-6.333-1.262a1.743 1.743 0 0 0-1.272.26 1.66 1.66 0 0 0-.72 1.126l-.63 3.177a4.935 4.935 0 0 0 3.882 5.79Zm-1.677-5.362.518-2.625 5.242 1.025-.517 2.636a2.626 2.626 0 0 1-1.125 1.701 2.697 2.697 0 0 1-2.014.406 2.666 2.666 0 0 1-2.104-3.143Z" clip-rule="evenodd"/><ellipse cx="272.688" cy="59.703" fill="#080C20" rx="6.376" ry="5.693" transform="rotate(-78.82 272.688 59.703)"/><path fill="#093F68" fill-rule="evenodd" d="M271.274 67.05c.404.08.814.122 1.226.124a6.588 6.588 0 0 0 3.915-1.363 7.888 7.888 0 0 0 2.936-4.776c.799-4.056-1.552-7.954-5.242-8.686a6.462 6.462 0 0 0-5.209 1.261 8.052 8.052 0 0 0-2.025 10.309 6.457 6.457 0 0 0 4.399 3.132Zm1.658-12.572h.029-.045.016Zm-2.603.912a4.394 4.394 0 0 1 2.603-.912c.276.008.549.046.817.113 2.464.484 4.027 3.188 3.465 6.027a5.635 5.635 0 0 1-2.081 3.38 4.15 4.15 0 0 1-6.255-1.24 5.796 5.796 0 0 1 1.451-7.368Z" clip-rule="evenodd"/><path fill="#080C20" d="M249.123 76.21c-12.252-2.434-20.25-19.75-17.854-31.837l2.7 1.69 1.586-8.574s30.926-2.073 30.375-9.62l12.375 8.651-4.309 21.856c-2.475 12.077-12.611 20.256-24.873 17.834Z"/><path fill="#093F68" fill-rule="evenodd" d="M248.942 77.314c1.482.295 2.989.446 4.5.45 10.542 0 19.26-7.492 21.634-19.253l4.309-21.844a1.127 1.127 0 0 0-.461-1.127l-12.375-8.652a1.128 1.128 0 0 0-1.767 1.07 1.94 1.94 0 0 1-.573 1.454c-3.769 4.382-21.949 6.5-28.699 6.95a1.125 1.125 0 0 0-1.035.924l-1.283 6.94-1.293-.811a1.125 1.125 0 0 0-1.047-.079c-.339.15-.583.457-.652.822-2.464 12.483 5.861 30.598 18.742 33.156Zm23.862-19.118c-2.374 11.998-12.207 19.151-23.457 16.898l.034.023c-9.36-1.825-18.922-15.536-17.235-28.863l1.26.788c.317.194.708.22 1.046.068.34-.15.584-.457.653-.822l1.429-7.717c4.916-.372 24.682-2.208 29.385-7.672.29-.344.535-.722.731-1.127L277 37.027l-4.196 21.169Z" clip-rule="evenodd"/><ellipse cx="248.47" cy="50.496" fill="#093F68" rx="2.062" ry="2.059" transform="rotate(-78.82 248.47 50.496)"/><ellipse cx="267.932" cy="54.343" fill="#093F68" rx="2.059" ry="2.062"/><path fill="#093F68" d="M259.562 58.838a11.236 11.236 0 0 1-3.543-.744 1.13 1.13 0 0 1 .81-2.107 9.522 9.522 0 0 0 2.407.575 17.797 17.797 0 0 0-.81-4.506 1.13 1.13 0 0 1 .263-1.097 1.125 1.125 0 0 1 1.897.455c.698 2.377 1.339 5.475.461 6.76a1.538 1.538 0 0 1-1.215.675l-.27-.011ZM253.24 46.806a2.358 2.358 0 0 1-.484 0l-9.607-2.073a2.253 2.253 0 0 1 .945-4.405l9.619 2.073a2.264 2.264 0 0 1 2.013 2.49 2.263 2.263 0 0 1-2.486 2.016v-.101ZM271.544 49.16h-.236l-9.777-1.013a2.264 2.264 0 0 1 .45-4.507l9.788.992a2.25 2.25 0 0 1 2.002 2.478 2.25 2.25 0 0 1-2.227 2.05Z"/><path fill="#080C20" d="M235.375 46.783s-4.601-4.754-8.415-.552c-3.814 4.203-2.644 12.855 6.649 12.235"/><path fill="#093F68" d="M232.698 59.626c-3.825 0-6.75-1.588-8.134-4.438a9.022 9.022 0 0 1 1.541-9.723 5.825 5.825 0 0 1 4.309-2.095c3.071-.068 5.625 2.523 5.749 2.636a1.128 1.128 0 0 1-.497 1.943 1.124 1.124 0 0 1-1.112-.377 6.748 6.748 0 0 0-4.106-1.949 3.633 3.633 0 0 0-2.678 1.397 6.767 6.767 0 0 0-1.181 7.221c1.125 2.253 3.532 3.38 6.919 3.132a1.128 1.128 0 0 1 .146 2.253h-.956ZM253.668 69.01a7.26 7.26 0 0 1-.979-.067c-3.51-.518-6.311-3.729-8.325-9.542a1.127 1.127 0 1 1 2.126-.744c1.721 4.957 3.904 7.672 6.525 8.056 4.703.687 9.675-6.14 9.72-6.208a1.125 1.125 0 0 1 1.575-.26c.501.363.617 1.062.259 1.567-.225.315-5.231 7.199-10.901 7.199Z"/><path fill="#080C20" d="m256.041 128.685 4.804-16.234-2.813-20.672-18.731-6.534-24.874 17.507-1.462 18.092s-6.874 11.897-3.375 20.403c3.499 8.505 61.38 24.784 61.38 24.784l12.645-21.619-27.574-15.727Z"/><path fill="#093F68" fill-rule="evenodd" d="M270.711 167.147a.969.969 0 0 0 .304 0c.423.047.837-.149 1.069-.507l12.633-21.619a1.13 1.13 0 0 0-.416-1.544l-26.842-15.287 4.5-15.367a1.142 1.142 0 0 0 0-.473l-2.813-20.673a1.125 1.125 0 0 0-.742-.912l-18.732-6.546a1.123 1.123 0 0 0-1.012.147l-24.874 17.507a1.125 1.125 0 0 0-.472.834l-1.452 17.845c-1.023 1.768-6.75 12.809-3.273 21.179 3.622 8.754 56.148 23.737 62.122 25.416Zm-56.621-46.235 1.417-17.563 23.974-16.899 17.528 6.174 2.688 19.737-4.736 15.986c-.147.5.067 1.036.518 1.296l26.628 15.152-11.621 19.884c-41.445-11.716-58.489-20.695-59.816-23.883-3.285-7.886 3.206-19.298 3.274-19.411.083-.145.133-.306.146-.473Z" clip-rule="evenodd"/><path fill="#093F68" d="m303.426 107.945 28.035 17.71v8.066L299.5 111.336l3.926-3.391Z"/><path fill="#093F68" fill-rule="evenodd" d="M330.82 134.69a1.124 1.124 0 0 0 1.766-.924v-8.055a1.126 1.126 0 0 0-.528-.957l-28.024-17.699a1.125 1.125 0 0 0-1.339.09l-3.926 3.38a1.125 1.125 0 0 0 .09 1.78l31.961 22.385Zm-.484-3.177-29.002-20.278 2.194-1.904 26.808 16.899v5.283Z" clip-rule="evenodd"/><path fill="#093F68" d="M342.171 201.169h-14.388V92.331l14.388-4.687V201.17Z"/><path fill="#093F68" fill-rule="evenodd" d="M327.782 202.296h14.389c.622 0 1.125-.505 1.125-1.127V87.644a1.124 1.124 0 0 0-1.474-1.126l-14.388 4.686a1.128 1.128 0 0 0-.777 1.127v108.838c0 .622.504 1.127 1.125 1.127Zm13.264-2.253h-12.139V93.142l12.139-3.954v110.855Z" clip-rule="evenodd"/><rect width="45.034" height="9.249" x="312.46" y="200.02" fill="#093F68" rx="3.23"/><path fill="#093F68" fill-rule="evenodd" d="M316.094 210.373h37.755a4.767 4.767 0 0 0 3.381-1.407 4.779 4.779 0 0 0 1.389-3.392v-1.96a4.773 4.773 0 0 0-4.77-4.765h-37.755a4.773 4.773 0 0 0-4.759 4.765v1.983a4.773 4.773 0 0 0 4.759 4.776Zm-2.509-6.736a2.51 2.51 0 0 1 2.509-2.513l37.755-.022a2.513 2.513 0 0 1 2.52 2.512v1.983a2.52 2.52 0 0 1-2.52 2.523h-37.755a2.521 2.521 0 0 1-2.509-2.523v-1.96Z" clip-rule="evenodd"/><ellipse cx="334.971" cy="100.239" fill="#080C20" rx="3.791" ry="3.797"/><path fill="#093F68" fill-rule="evenodd" d="M330.044 100.239a4.93 4.93 0 0 0 4.927 4.935 4.931 4.931 0 0 0 4.928-4.935 4.93 4.93 0 0 0-4.928-4.934 4.93 4.93 0 0 0-4.927 4.934Zm2.453-1.012a2.676 2.676 0 0 1 5.152 1.012 2.676 2.676 0 0 1-4.567 1.912 2.684 2.684 0 0 1-.585-2.924Z" clip-rule="evenodd"/><ellipse cx="334.971" cy="198.849" fill="#080C20" rx="3.791" ry="3.797"/><path fill="#093F68" fill-rule="evenodd" d="M330.066 198.841a4.92 4.92 0 0 0 4.905 4.931 4.917 4.917 0 0 0 4.928-4.923 4.92 4.92 0 0 0-4.913-4.924 4.92 4.92 0 0 0-4.92 4.916Zm2.25.015a2.668 2.668 0 0 1 2.655-2.677 2.679 2.679 0 0 1 2.678 2.67 2.667 2.667 0 0 1-5.333.007Z" clip-rule="evenodd"/><path fill="#080C20" d="m266.641 118.97 113.215-58.567 3.893 7.547-113.215 58.566-3.893-7.546Z"/><path fill="#093F68" fill-rule="evenodd" d="M269.541 127.018c.194.375.58.609 1.001.608.188.016.376-.011.552-.078l113.208-58.582c.263-.137.461-.372.552-.654.094-.286.07-.599-.068-.867l-3.904-7.548a1.124 1.124 0 0 0-1.507-.485L266.132 117.95c-.266.135-.469.37-.562.654-.091.288-.063.6.079.867l3.892 7.548Zm1.485-2.039-2.869-5.543 111.218-57.545 2.857 5.542-111.206 57.546Z" clip-rule="evenodd"/><path fill="#080C20" d="M272.376 189.442v17.721s26.877 5.159 24.75 1.126c-2.126-4.033-10.642-6.309-10.642-6.309l.709-9.598-14.817-2.94Z"/><path fill="#093F68" fill-rule="evenodd" d="M272.163 208.267c10.451 2.005 16.74 2.647 20.508 2.647 3.645 0 4.939-.541 5.344-1.16.413-.58.444-1.349.079-1.96-1.935-3.605-8.111-5.859-10.451-6.591l.641-8.697a1.127 1.127 0 0 0-.9-1.194l-14.783-2.974a1.12 1.12 0 0 0-1.35 1.104v17.698c-.01.548.375 1.023.912 1.127Zm23.793.214c-2.418.788-12.982-.496-22.41-2.253v-15.412l12.465 2.512-.63 8.607c-.019.521.321.987.822 1.127 2.148.586 7.897 2.647 9.753 5.419Z" clip-rule="evenodd"/><path fill="#080C20" d="m281.916 111.043-2.216-5.351 86.4-44.162 2.723 4.552-86.907 44.961Z"/><path fill="#093F68" fill-rule="evenodd" d="M281.523 112.102c.126.046.259.069.393.068.183-.01.361-.064.518-.158L369.34 67.05c.276-.144.48-.397.563-.698a1.13 1.13 0 0 0-.113-.879l-2.722-4.506a1.125 1.125 0 0 0-1.474-.428l-86.456 44.15a1.128 1.128 0 0 0-.518 1.431l2.25 5.363c.122.288.358.513.653.619Zm.967-2.613-1.35-3.267 84.533-43.205 1.563 2.614-84.746 43.858Z" clip-rule="evenodd"/><path fill="#080C20" d="m288.79 63.457-3.206 2.219 16.11 23.309 3.251-2.253-16.155-23.275Z"/><path fill="#093F68" fill-rule="evenodd" d="M300.828 89.627c.209.303.554.484.922.485.232-.008.456-.086.641-.226l3.252-2.253c.238-.18.402-.44.461-.732a1.129 1.129 0 0 0-.18-.845L289.769 62.78a1.124 1.124 0 0 0-1.564-.282l-3.206 2.253a1.127 1.127 0 0 0-.281 1.566l16.11 23.309Zm1.136-2.208-14.839-21.461 1.361-.913 14.862 21.405-1.384.969Z" clip-rule="evenodd"/><path fill="#080C20" d="m256.041 97.355 27.248-14.645s2.464-4.788 4.072-6.072c1.857-1.499 3.195-3.11 3.78-2.389a5.96 5.96 0 0 1 1.125 1.96c.124.395.057 1.06.473 1.273.934.496 3.735-1.7 4.5-2.174.304-.191.641-.462.619-.822-.023-.36-.81-.755-.889-1.285a3.1 3.1 0 0 1 2.531-.27 2.385 2.385 0 0 1 1.26 3.222c-.495 1.127-1.777 1.96-2.115 3.042-.105.424-.154.86-.146 1.296a12.565 12.565 0 0 1-.833 4.573c-1.586 3.718-6.615 4.63-10.125 5.836 0 0-29.475 23.151-33.266 23.151"/><path fill="#093F68" d="M254.309 115.144a1.125 1.125 0 0 1-1.125-1.127c0-.622.503-1.126 1.125-1.126 2.25-.124 18.349-11.739 32.625-22.915.096-.08.207-.14.326-.18.585-.203 1.215-.394 1.868-.597 3.015-.935 6.423-1.983 7.548-4.608.514-1.324.766-2.736.743-4.157a6 6 0 0 1 .202-1.61 5.885 5.885 0 0 1 1.305-2.017c.33-.337.614-.716.844-1.127a1.398 1.398 0 0 0 0-1.127 1.049 1.049 0 0 0-.607-.597 1.483 1.483 0 0 0-.304-.067 2.1 2.1 0 0 1 .135.552 2.04 2.04 0 0 1-1.125 1.847l-.473.327c-2.047 1.442-3.858 2.58-5.141 1.893a2.097 2.097 0 0 1-.979-1.701 1.556 1.556 0 0 0 0-.237 3.967 3.967 0 0 0-.607-1.126c-.315.236-.776.642-1.125.968a14.18 14.18 0 0 1-1.384 1.127c-1.035.822-2.857 3.943-3.769 5.712a1.129 1.129 0 0 1-.472.473l-27.248 14.645a1.137 1.137 0 0 1-1.552-.428 1.141 1.141 0 0 1 .427-1.555l27-14.453c.63-1.127 2.667-4.879 4.208-6.118.472-.371.9-.755 1.294-1.126 1.125-1.037 2.013-1.78 2.97-1.701.439.024.847.233 1.125.574a6.933 6.933 0 0 1 1.327 2.343c.048.15.082.305.101.462a15.81 15.81 0 0 0 2.622-1.6l.382-.259a1.982 1.982 0 0 1-.607-1.126c-.064-.45.149-.895.54-1.127a4.168 4.168 0 0 1 3.51-.428 3.25 3.25 0 0 1 1.923 1.837 3.679 3.679 0 0 1 0 2.906 7.099 7.099 0 0 1-1.203 1.701 4.403 4.403 0 0 0-.855 1.217 3.508 3.508 0 0 0-.102.901 13.918 13.918 0 0 1-.922 5.07c-1.53 3.582-5.625 4.855-9 5.88l-1.62.519c-7.279 5.633-30.083 23.286-33.93 23.286Z"/><path fill="#080C20" d="M220.75 93.052c23.76 34.27 40.129 19.399 40.129 19.399-.293-1.813-1.013-5.632-1.373-7.435-.574-2.997-1.215-5.993-1.665-9.013l-1.766.958s-11.644-8.675-20.43-16.594"/><path fill="#093F68" d="M251.125 116.789a19.44 19.44 0 0 1-2.25-.124c-9.517-1.127-19.327-8.821-29.137-22.971a1.13 1.13 0 0 1 .836-1.768c.402-.033.791.152 1.02.484 9.259 13.361 18.765 20.977 27.472 22.002a14.906 14.906 0 0 0 10.508-2.422 305.614 305.614 0 0 0-1.26-6.76l-.371-1.893c-.36-1.825-.743-3.695-1.047-5.632l-.382.202a1.124 1.124 0 0 1-1.204-.09c-.112-.09-11.79-8.787-20.509-16.662a1.128 1.128 0 0 1-.09-1.588 1.127 1.127 0 0 1 1.598-.08c7.549 6.76 17.325 14.252 19.777 16.1l1.125-.62a1.125 1.125 0 0 1 1.643.834c.349 2.343.821 4.731 1.282 7.041l.383 1.892c.382 1.983 1.125 5.723 1.372 7.481a1.13 1.13 0 0 1-.348 1.014 16.238 16.238 0 0 1-10.418 3.56Z"/><path fill="#093F68" fill-rule="evenodd" d="M305.699 93.018a1.122 1.122 0 0 0 1.282-.022c.383-.271.558-.752.439-1.206l-1.395-5.34a1.122 1.122 0 0 0-1.721-.642l-3.252 2.253a1.128 1.128 0 0 0-.483.935c.005.373.195.719.506.924l4.624 3.098Zm-1.204-3.515-.799-.54.563-.384.236.924Z" clip-rule="evenodd"/><path fill="#080C20" d="M373.019 195.604s-7.324-14.961-6.3-25.066a18.688 18.688 0 0 1 8.73 10.544c4.331 12.044 3.375 14.533 3.375 14.533l-5.805-.011Z"/><path fill="#093F68" fill-rule="evenodd" d="M373.019 196.742h5.76c.458.002.872-.274 1.046-.699.191-.484.945-3.481-3.319-15.332-2.97-8.224-9.067-11.075-9.326-11.187a1.126 1.126 0 0 0-1.024.056 1.125 1.125 0 0 0-.562.856c-1.035 10.309 6.108 25.055 6.423 25.675.188.383.576.627 1.002.631Zm4.747-2.253h-4.027l.011-.012c-1.26-2.715-6.041-13.631-6.008-22.024a18.745 18.745 0 0 1 6.649 9.013c2.903 8.055 3.375 11.66 3.375 13.023Z" clip-rule="evenodd"/><path fill="#080C20" d="M376.506 194.883s-5.501-21.326 2.408-35.611c0 0 4.556 5.227 5.625 17.845a31.938 31.938 0 0 1-3.274 17.484l-4.759.282Z"/><path fill="#093F68" fill-rule="evenodd" d="M375.381 195.165c.132.51.599.861 1.125.845h.045l4.759-.327c.369-.027.701-.233.889-.552a32.718 32.718 0 0 0 3.442-18.104c-1.102-12.854-5.715-18.262-5.917-18.487a1.126 1.126 0 0 0-1.834.191c-8.033 14.499-2.734 35.544-2.509 36.434Zm2.003-1.476c-.867-4.033-3.882-20.222 1.665-32.198 1.35 2.287 3.701 7.312 4.387 15.727a31.808 31.808 0 0 1-2.869 16.268l-3.183.203Z" clip-rule="evenodd"/><path fill="#080C20" d="M378.88 194.207s1.71-14.229 13.196-23.523c0 0 3.375 10.601-6.108 24.785l-7.088-1.262Z"/><path fill="#093F68" fill-rule="evenodd" d="M385.776 196.595a.557.557 0 0 0 .191 0c.371.006.72-.171.934-.473 9.686-14.488 6.39-25.303 6.244-25.753a1.125 1.125 0 0 0-1.778-.541c-11.711 9.474-13.533 23.669-13.601 24.278a1.127 1.127 0 0 0 .923 1.239l7.087 1.25Zm-.337-2.365-5.265-.935c.618-3.2 3.093-13.125 11.182-20.47.45 3.379.551 11.423-5.917 21.405Z" clip-rule="evenodd"/><path fill="#080C20" d="M386.755 210.204h-14.468l-2.137-17.63h18.742l-2.137 17.63Z"/><path fill="#093F68" fill-rule="evenodd" d="M372.288 211.331h14.467a1.125 1.125 0 0 0 1.114-.958l2.126-17.664a1.126 1.126 0 0 0-1.114-1.262h-18.742a1.124 1.124 0 0 0-1.114 1.262l2.138 17.631c.068.569.552.995 1.125.991Zm13.432-2.253h-12.465l-1.867-15.378h16.2l-1.868 15.378Z" clip-rule="evenodd"/><path fill="#093F68" d="M396.621 211.331H193.379a1.125 1.125 0 0 1-1.125-1.127c0-.622.503-1.126 1.125-1.126h203.242c.622 0 1.125.504 1.125 1.126 0 .623-.503 1.127-1.125 1.127ZM72.524 110.609h30.795v3.418c0 5.805-4.747 10.511-10.603 10.511h-9.589c-5.856 0-10.603-4.706-10.603-10.511v-3.418Z"/><path fill="#093F68" fill-rule="evenodd" d="M83.127 125.564h9.589c6.427-.005 11.637-5.166 11.649-11.537v-3.418c0-.567-.464-1.027-1.036-1.027H72.524c-.572 0-1.035.46-1.035 1.027v3.418c.01 6.367 5.215 11.526 11.638 11.537Zm-9.567-11.537v-2.392h28.734v2.392c-.006 5.24-4.292 9.484-9.578 9.484h-9.589c-5.281-.005-9.562-4.248-9.567-9.484Z" clip-rule="evenodd"/><path fill="#080C20" d="M120.694 51.75c.011-13.97-9.107-26.338-22.537-30.572-13.43-4.234-28.08.641-36.211 12.05a31.833 31.833 0 0 0 .637 37.861 46.717 46.717 0 0 1 9.672 28.372h32.213a45.368 45.368 0 0 1 9.413-28.084 31.73 31.73 0 0 0 6.813-19.627Z"/><path fill="#093F68" fill-rule="evenodd" d="M72.255 100.488h32.213c.275 0 .538-.109.733-.301.194-.193.303-.454.303-.726a44.435 44.435 0 0 1 9.195-27.376 32.569 32.569 0 0 0 7.031-20.304c-.002-14.407-9.412-27.156-23.264-31.517-13.851-4.362-28.958.668-37.345 12.434a32.842 32.842 0 0 0 .644 39.048 45.93 45.93 0 0 1 9.454 27.715c0 .567.464 1.027 1.036 1.027Zm31.188-2.053H73.28a48.031 48.031 0 0 0-9.92-27.982 30.798 30.798 0 0 1-3.539-31.564C64.576 28.52 74.68 21.57 86.141 20.78c8.668-.652 17.216 2.326 23.567 8.212 6.338 5.873 9.94 14.085 9.951 22.685a30.517 30.517 0 0 1-6.596 19.042 46.421 46.421 0 0 0-9.62 27.715Z" clip-rule="evenodd"/><rect width="39.151" height="8.869" x="68.351" y="108.402" fill="#080C20" rx="3.62"/><path fill="#093F68" fill-rule="evenodd" d="M72.1 118.297h31.623c2.642 0 4.784-2.123 4.784-4.742v-1.437c0-2.62-2.142-4.743-4.784-4.743H72.1c-2.643 0-4.784 2.123-4.784 4.743v1.437c0 2.619 2.141 4.742 4.784 4.742Zm-2.745-6.179c0-1.486 1.215-2.69 2.713-2.69h31.655c1.498 0 2.713 1.204 2.713 2.69v1.437c-.006 1.483-1.217 2.683-2.713 2.689H72.068c-1.498 0-2.713-1.204-2.713-2.689v-1.437Z" clip-rule="evenodd"/><rect width="39.151" height="8.869" x="68.351" y="99.533" fill="#080C20" rx="3.62"/><path fill="#093F68" fill-rule="evenodd" d="M72.1 109.428h31.623c2.642 0 4.784-2.123 4.784-4.742v-1.437c0-2.619-2.142-4.743-4.784-4.743H72.1c-2.643 0-4.784 2.124-4.784 4.743v1.437c0 2.619 2.141 4.742 4.784 4.742Zm-2.745-6.179c0-1.486 1.215-2.69 2.713-2.69h31.655c1.496.006 2.707 1.207 2.713 2.69v1.437c0 .713-.286 1.397-.795 1.901a2.723 2.723 0 0 1-1.918.788H72.068c-.72 0-1.41-.283-1.918-.788a2.676 2.676 0 0 1-.795-1.901v-1.437Z" clip-rule="evenodd"/><rect width="39.151" height="8.869" x="68.351" y="90.664" fill="#080C20" rx="3.62"/><path fill="#093F68" fill-rule="evenodd" d="M72.1 100.559h31.623c2.642 0 4.784-2.123 4.784-4.742V94.38c0-2.62-2.142-4.742-4.784-4.742H72.1c-2.643 0-4.784 2.123-4.784 4.742v1.437c0 2.62 2.141 4.742 4.784 4.742Zm-2.745-6.179c0-1.485 1.215-2.69 2.713-2.69h31.655c1.496.006 2.707 1.207 2.713 2.69v1.437c0 1.485-1.215 2.69-2.713 2.69H72.068c-1.498 0-2.713-1.205-2.713-2.69V94.38Z" clip-rule="evenodd"/><path fill="#093F68" d="m90.686 33.397 5.312 10.634 11.867 1.745a2.581 2.581 0 0 1 2.098 1.747 2.55 2.55 0 0 1-.659 2.636l-8.584 8.305 2.071 11.722a2.556 2.556 0 0 1-1.028 2.516 2.607 2.607 0 0 1-2.73.194l-10.614-5.533-10.624 5.533a2.608 2.608 0 0 1-2.731-.194 2.556 2.556 0 0 1-1.028-2.516l2.07-11.723-8.594-8.304a2.55 2.55 0 0 1-.66-2.636 2.583 2.583 0 0 1 2.1-1.747l11.773-1.745 5.312-10.665a2.591 2.591 0 0 1 2.334-1.422 2.59 2.59 0 0 1 2.315 1.453Z"/><path fill="#093F68" fill-rule="evenodd" d="M74.398 73.532a3.708 3.708 0 0 0 3.862.267l10.148-5.286 10.138 5.286a3.651 3.651 0 0 0 3.798-.277 3.578 3.578 0 0 0 1.451-3.49l-1.936-11.189 8.201-7.924a3.572 3.572 0 0 0 .947-3.705 3.616 3.616 0 0 0-2.956-2.454l-11.39-1.632-5.064-10.183a3.616 3.616 0 0 0-3.251-2.053 3.627 3.627 0 0 0-3.262 2.053l-5.043 10.162-11.338 1.632a3.616 3.616 0 0 0-2.956 2.455 3.571 3.571 0 0 0 .947 3.704l8.201 7.925L72.96 70.01a3.578 3.578 0 0 0 1.44 3.521Zm12.57-39.673a1.523 1.523 0 0 1 1.399-.863v-.02c.59-.007 1.13.325 1.387.852l5.312 10.675c.152.3.442.507.777.555l11.794 1.755a1.54 1.54 0 0 1 1.263 1.026 1.5 1.5 0 0 1-.404 1.581l-8.584 8.304a1.021 1.021 0 0 0-.3.914l2.071 11.722a1.524 1.524 0 0 1-.621 1.51 1.523 1.523 0 0 1-1.636.112L88.802 66.45a1.043 1.043 0 0 0-.963 0l-10.624 5.532a1.565 1.565 0 0 1-1.638-.114c-.48-.344-.72-.93-.62-1.508l2.071-11.722a1.021 1.021 0 0 0-.3-.914l-8.584-8.304a1.53 1.53 0 0 1-.395-1.579 1.55 1.55 0 0 1 1.254-1.049l11.877-1.714c.335-.048.625-.255.777-.554l5.312-10.665Z" clip-rule="evenodd"/><path fill="#080C20" d="M83.48 48.137a1.03 1.03 0 0 1-.982-.692c-.09-.258-.072-.541.05-.786L87 37.698a1.04 1.04 0 0 1 1.35-.402c.487.237.706.806.503 1.305l-4.442 8.961a1.036 1.036 0 0 1-.932.575Z"/><path fill="#093F68" d="M40.62 87.513c-.387 0-.742-.213-.92-.555a1.018 1.018 0 0 1 .445-1.385l11.048-5.615a1.044 1.044 0 0 1 1.398.441 1.019 1.019 0 0 1-.445 1.386L41.097 87.4c-.147.075-.31.113-.476.113ZM49.34 41.67a1.166 1.166 0 0 1-.321 0l-12.52-4.106a1.027 1.027 0 0 1-.652-1.303 1.04 1.04 0 0 1 1.316-.647L49.67 39.72c.261.087.477.273.6.517.122.245.141.528.052.786-.16.398-.551.656-.983.647ZM135.823 87.513a.967.967 0 0 1-.466-.113l-11.049-5.615a1.021 1.021 0 0 1 .151-1.894c.262-.083.547-.059.791.067l11.049 5.615a1.021 1.021 0 0 1-.476 1.94ZM127.062 41.67a1.054 1.054 0 0 1-.977-.375 1.034 1.034 0 0 1-.16-1.027c.135-.346.447-.594.816-.65l12.509-4.107a1.044 1.044 0 0 1 1.015.208c.277.244.401.616.326.975a1.03 1.03 0 0 1-.689.768l-12.508 4.106c-.105.05-.217.084-.332.102ZM88.367 15.074c-.572 0-1.036-.46-1.036-1.026V1.833c0-.567.464-1.027 1.036-1.027.572 0 1.035.46 1.035 1.027v12.215c0 .566-.463 1.026-1.035 1.026Z"/><path fill="#080C20" d="M42.236 127.987h24.21c7.486 0 9.62 9.238 19.311 10.121 9.692.883 23.744-1.776 26.664 1.909 2.92 3.685 2.464 7.966-.456 10.491 0 0 14.041-11.897 17.086-14.597 5.177-4.537 13.285-.513 7.445 11.056-5.84 11.568-27.544 27.129-37.391 29.295-9.848 2.166-59.996-1.026-59.996-1.026l3.127-47.249Z"/><path fill="#093F68" fill-rule="evenodd" d="M39.037 176.283c1.522.102 28.175 1.765 46.047 1.765 6.337 0 11.598-.205 14.248-.811 10.469-2.309 32.338-18.425 38.096-29.839 4.38-8.695.859-12.308-.321-13.201-2.444-1.848-6.037-1.468-8.74.924-1.967 1.735-8.594 7.38-12.985 11.106a9.344 9.344 0 0 0-2.143-6.867c-2.185-2.761-8.553-2.535-15.926-2.268a94.31 94.31 0 0 1-11.452 0c-4.69-.442-7.507-2.977-10.19-5.41-2.681-2.432-5.218-4.722-9.225-4.722H42.278a1.032 1.032 0 0 0-1.036.955l-3.179 47.28a1.02 1.02 0 0 0 .974 1.088Zm59.83-1.016c-8.823 1.94-51.412-.524-58.66-.965l3.034-45.237h23.194c3.189 0 5.329 1.926 7.803 4.154l.026.024.001.001c2.827 2.555 6.016 5.439 11.389 5.942 3.907.242 7.825.242 11.732 0 6.233-.226 12.684-.452 14.207 1.478 2.474 3.131 2.34 6.775-.321 9.084a1.022 1.022 0 0 0 .326 1.77c.358.118.753.034 1.03-.22.135-.113 14.093-11.938 17.106-14.607 1.957-1.724 4.297-2.176 6.099-.821 1.802 1.355 2.651 4.856-.269 10.655-5.933 11.753-27.523 26.689-36.697 28.742Z" clip-rule="evenodd"/><path fill="#093F68" d="M92.685 155.917c-6.876 0-13.71-.461-14.135-.492a1.03 1.03 0 0 1-.963-1.088c.019-.273.146-.527.354-.706a1.04 1.04 0 0 1 .754-.249c.156 0 15.854 1.027 23.589 0 7.144-1.026 8.718-3.357 8.739-3.377a1.04 1.04 0 0 1 1.408-.359c.485.277.659.887.394 1.375-.187.329-2.071 3.264-10.262 4.393a78.933 78.933 0 0 1-9.878.503Z"/><path fill="#080C20" d="M8.345 124.949h33.891v52.176H8.345z"/><path fill="#093F68" fill-rule="evenodd" d="M8.345 178.151h33.891c.572 0 1.036-.46 1.036-1.026v-52.176c0-.567-.464-1.027-1.036-1.027H8.346c-.573 0-1.036.46-1.036 1.027v52.176c0 .566.463 1.026 1.035 1.026Zm32.856-2.053H9.38v-50.123H41.2v50.123Z" clip-rule="evenodd"/><path fill="#080C20" d="M119.474 452.237v-35.118c0-15.678-12.716-28.389-28.406-28.395H63.932c-15.69.006-28.406 12.717-28.406 28.395v35.118h83.948Z"/><path fill="#093F68" fill-rule="evenodd" d="M35.526 453.36h83.948c.62 0 1.123-.503 1.123-1.123v-35.118c-.013-16.292-13.224-29.499-29.529-29.517H63.932c-16.305.018-29.516 13.225-29.529 29.517v35.118c0 .62.503 1.123 1.123 1.123Zm82.824-2.245h-81.7v-33.996c.012-15.053 12.218-27.254 27.282-27.273h27.136c15.064.019 27.27 12.22 27.282 27.273v33.996Z" clip-rule="evenodd"/><path fill="#093F68" d="M79.376 453.36c-.62 0-1.123-.503-1.123-1.123v-61.728a1.123 1.123 0 0 1 2.246 0v61.728c0 .62-.503 1.123-1.123 1.123ZM109.196 447.512a1.123 1.123 0 0 1-1.123-.841l-11.715-45.343a1.122 1.122 0 1 1 2.168-.561l11.76 45.387a1.122 1.122 0 0 1-.809 1.358.829.829 0 0 1-.281 0Z"/><path fill="#080C20" d="M110.477 453.651a9.333 9.333 0 0 0 5.414 2.806c4.492.539 8.76-3.221 10.108-7.587 1.348-4.366.607-9.102-.539-13.535-1.393-5.387-2.359-10.763-7.053-14.029-4.415-3.064-10.109-6.016-14.063-.483-3.953 5.533-.135 17.093 1.449 23.188a24.814 24.814 0 0 0 3.168 7.856c.45.639.958 1.237 1.516 1.784Z"/><path fill="#093F68" fill-rule="evenodd" d="M115.767 457.568c.346.045.695.068 1.045.068 4.942 0 8.985-4.187 10.277-8.418 1.539-4.781.606-9.843-.517-14.164l-.371-1.447v-.001c-1.235-4.916-2.516-10.011-7.132-13.221-2.886-2.009-10.569-7.351-15.623-.213-3.752 5.354-1.067 15.421.741 22.088.191.729.371 1.414.539 2.031a25.481 25.481 0 0 0 3.37 8.216c.466.698 1 1.348 1.595 1.941a10.356 10.356 0 0 0 6.076 3.12Zm-10.457-36.094a5.414 5.414 0 0 1 4.582-2.626c2.098.003 4.679 1.126 7.998 3.378 3.931 2.738 5.054 7.194 6.234 11.93l.37 1.459c1.045 4.007 1.921 8.687.562 12.919-1.213 3.726-4.897 7.295-8.986 6.812a8.235 8.235 0 0 1-4.74-2.491 9.91 9.91 0 0 1-1.336-1.617 23.807 23.807 0 0 1-3.022-7.508c-.087-.349-.185-.716-.287-1.1-.082-.307-.167-.625-.252-.954-1.64-5.881-4.301-15.713-1.123-20.202Zm4.582-2.626h.001-.011.01Z" clip-rule="evenodd"/><path fill="#093F68" d="M137.984 342.226c0 34.994-27.08 50.146-60.484 50.146s-60.472-15.152-60.472-50.146c0-34.995 27.068-70.944 60.472-70.944 33.404 0 60.484 35.96 60.484 70.944Z"/><path fill="#093F68" fill-rule="evenodd" d="M15.904 342.226c0 32.11 23.026 51.268 61.596 51.268 38.57 0 61.607-19.17 61.607-51.268 0-34.019-26.35-72.066-61.607-72.066s-61.596 38.047-61.596 72.066Zm2.247 0c0-39.956 31.337-69.821 59.349-69.821 28.08 0 59.361 29.865 59.361 69.821 0 30.696-22.195 49.023-59.361 49.023s-59.35-18.327-59.35-49.023Z" clip-rule="evenodd"/><path fill="#080C20" d="M126.044 320.699a57.073 57.073 0 0 1-.629 7.419 146.186 146.186 0 0 1-8.39 31.257c-1.82 4.624-3.965 9.304-7.638 12.66a35.51 35.51 0 0 1-9.951 5.769c-10.873 4.747-22.924 9.102-34.347 5.926-11.423-3.177-19.656-13.3-25.17-23.828a101.8 101.8 0 0 1-11.233-38.687c-.674-8.058.45-17.957 4.493-25.106a25.572 25.572 0 0 1 7.346-8.418c1.73-1.223 9.917-3.176 10.524-4.242 6.38-11.224 22.812-13.906 33.482-11.224 24.418 6.263 41.906 23.693 41.513 48.474Z"/><path fill="#093F68" fill-rule="evenodd" d="M64.785 384.807a31.958 31.958 0 0 0 8.47 1.122c8.884 0 17.97-3.322 26.63-7.138 3.898-1.706 7.357-3.333 10.255-5.97 3.83-3.502 6.076-8.362 7.93-13.087a146.965 146.965 0 0 0 8.423-31.493c.386-2.508.604-5.039.652-7.576.382-23.793-15.871-42.794-42.412-49.529a37.907 37.907 0 0 0-18.925.382c-5.021 1.392-11.828 4.489-15.725 11.223a30.626 30.626 0 0 1-4.74 1.796 25.54 25.54 0 0 0-5.515 2.245 26.627 26.627 0 0 0-7.637 8.765c-3.685 6.566-5.403 16.196-4.606 25.747a103.843 103.843 0 0 0 11.367 39.125c6.874 13.165 15.815 21.605 25.834 24.388ZM51.981 284.01c4.493-7.868 14.736-11.617 24.239-11.617 2.7-.023 5.394.286 8.02.921 25.439 6.521 41.04 24.691 40.681 47.318a54.16 54.16 0 0 1-.618 7.272 144.593 144.593 0 0 1-8.334 31.011c-1.73 4.478-3.852 9.057-7.345 12.244-2.64 2.458-5.931 3.996-9.637 5.612-11.053 4.826-22.779 8.878-33.595 5.881-11.883-3.299-19.87-14.478-24.474-23.266a101.39 101.39 0 0 1-11.131-38.26c-.753-9.136.865-18.283 4.324-24.479a24.35 24.35 0 0 1 7.02-8.036 29.839 29.839 0 0 1 4.92-1.885c3.998-1.325 5.436-1.863 5.93-2.716Z" clip-rule="evenodd"/><ellipse cx="36.717" cy="354.167" fill="#080C20" rx="13.871" ry="11.942"/><path fill="#093F68" fill-rule="evenodd" d="M21.723 354.167c0 7.206 6.727 13.064 14.994 13.064 8.21 0 14.95-5.948 14.95-13.109 0-7.16-6.695-13.019-14.95-13.019-8.255 0-14.994 5.859-14.994 13.064Zm2.246 0c0-5.959 5.717-10.819 12.748-10.819 7.02 0 12.703 4.759 12.703 10.774 0 6.016-5.672 10.865-12.703 10.865s-12.748-4.86-12.748-10.82Z" clip-rule="evenodd"/><ellipse cx="117.553" cy="354.167" fill="#080C20" rx="13.871" ry="11.942"/><path fill="#093F68" fill-rule="evenodd" d="M102.558 354.167c0 7.206 6.728 13.064 14.995 13.064 8.244 0 14.983-5.948 14.983-13.109 0-7.16-6.728-13.019-14.983-13.019-8.256 0-14.995 5.859-14.995 13.064Zm2.247 0c0-5.959 5.717-10.819 12.748-10.819 7.02 0 12.737 4.759 12.737 10.774 0 6.016-5.706 10.865-12.737 10.865s-12.748-4.86-12.748-10.82Z" clip-rule="evenodd"/><path fill="#080C20" d="M115.453 328.567c5.054 6.318 3.706 13.726 3.706 21.605 0 23.077-18.722 41.784-41.816 41.784-23.095 0-41.817-18.707-41.817-41.784 0-21.156 14.343-34.961 33.764-41.527a21.974 21.974 0 0 1-8.368 12.75 54.97 54.97 0 0 0 38.334-8.676c-1.539 1.044 14.051 13.468 15.118 14.591.393.437.753.841 1.079 1.257Z"/><path fill="#093F68" fill-rule="evenodd" d="M34.403 350.172c.025 23.684 19.227 42.881 42.929 42.918 23.688-.025 42.895-19.191 42.95-42.862 0-.695.02-1.383.04-2.068.019-.676.039-1.348.039-2.017.202-6.521.393-12.694-4.021-18.216a14.892 14.892 0 0 0-1.123-1.313c-.266-.265-1.012-.901-2.506-2.173l-.269-.229c-3.088-2.626-10.951-9.327-12.074-11.223.083-.305.025-.63-.157-.887a1.125 1.125 0 0 0-1.561-.314 53.944 53.944 0 0 1-34.988 8.799 23.251 23.251 0 0 0 6.74-11.706c.104-.41-.03-.844-.349-1.123a1.124 1.124 0 0 0-1.123-.235c-21.947 7.475-34.527 23.008-34.527 42.649Zm2.247 0c0-10.685 4.02-29.81 30.977-39.754a21.044 21.044 0 0 1-7.413 10.101 1.123 1.123 0 0 0 .494 2.009 56.186 56.186 0 0 0 37.897-8.047c1.246 1.706 4.492 4.77 12.355 11.426l.523.441c1.027.866 1.909 1.611 2.083 1.803.357.355.695.73 1.01 1.123 3.909 4.882 3.741 10.381 3.538 16.745-.078 1.369-.078 2.75-.078 4.153 0 22.457-18.22 40.662-40.693 40.662-22.474 0-40.693-18.205-40.693-40.662Z" clip-rule="evenodd"/><ellipse cx="60.562" cy="360.419" fill="#093F68" rx="3.763" ry="3.76"/><ellipse cx="94.438" cy="360.419" fill="#093F68" rx="3.763" ry="3.76"/><path fill="#093F68" d="M77.31 367.86a25.753 25.753 0 0 1-3.752-.303 1.125 1.125 0 0 1-.91-1.302 1.121 1.121 0 0 1 1.303-.909 18.48 18.48 0 0 0 5.807 0c.303-1.033-1.124-5.242-3.246-9.226a1.122 1.122 0 0 1 .471-1.504 1.123 1.123 0 0 1 1.517.472c1.055 2.009 4.391 8.765 3.268 11.223a1.953 1.953 0 0 1-1.348 1.122c-1.016.268-2.06.411-3.11.427ZM68.795 341.283h-.28l-18.252-2.245a2.262 2.262 0 1 1 .55-4.489l18.263 2.244a2.25 2.25 0 1 1-.28 4.49ZM86.205 341.283a2.25 2.25 0 1 1-.28-4.49l18.262-2.244a2.263 2.263 0 0 1 2.522 1.969 2.263 2.263 0 0 1-1.972 2.52l-18.251 2.245h-.281Z"/><path fill="#080C20" d="M137.984 342.226a54.84 54.84 0 0 1-2.393 16.588c-7.3-30.651-30.539-62.077-58.091-62.077s-50.79 31.426-58.091 62.077a54.823 54.823 0 0 1-2.393-16.588c0-34.984 27.092-70.932 60.484-70.932s60.484 35.948 60.484 70.932Z"/><path fill="#093F68" fill-rule="evenodd" d="M134.536 359.083c.12.489.552.838 1.055.853.502.013.951-.308 1.101-.786a55.935 55.935 0 0 0 2.449-16.924c0-34.007-26.35-72.055-61.607-72.055s-61.607 38.048-61.607 72.055a55.919 55.919 0 0 0 2.448 16.924 1.122 1.122 0 0 0 2.157-.067 101.867 101.867 0 0 1 21.217-42.065c7.604-8.732 19.97-19.159 35.785-19.159 15.814 0 28.192 10.427 35.796 19.159a102.002 102.002 0 0 1 21.206 42.065ZM18.139 342.226c0-39.956 31.349-69.81 59.361-69.81 28.08 0 59.361 29.854 59.361 69.81a57.25 57.25 0 0 1-1.258 12.188 103.979 103.979 0 0 0-20.611-38.867c-11.344-13.03-24.317-19.932-37.492-19.932-13.175 0-26.137 6.88-37.48 19.932a103.833 103.833 0 0 0-20.623 38.867 57.192 57.192 0 0 1-1.257-12.188Z" clip-rule="evenodd"/><path fill="#080C20" d="M62.393 282.293s-18.476-41.527-33.314-31.785c-14.837 9.742-37.267 43.3-23.104 46.667 14.164 3.367 26.81-24.692 26.81-24.692l21.746 15.814"/><path fill="#093F68" d="M8.379 298.578a11.475 11.475 0 0 1-2.662-.315 6.455 6.455 0 0 1-5.223-5.454c-1.977-11.224 16.253-35.522 27.968-43.233a9.71 9.71 0 0 1 8.401-1.234c13.265 3.883 26.013 32.233 26.552 33.434a1.126 1.126 0 0 1-2.055.921c-.124-.292-12.86-28.609-25.126-32.2a7.44 7.44 0 0 0-6.537.954c-12.108 7.968-28.686 31.324-26.956 40.965a4.277 4.277 0 0 0 3.526 3.67c13.097 3.109 25.407-23.76 25.53-24.029.137-.309.405-.539.73-.629.33-.088.68-.022.955.18l21.745 15.814a1.121 1.121 0 0 1-1.314 1.818l-20.69-15.017c-2.537 5.185-12.714 24.355-24.844 24.355Z"/><path fill="#080C20" d="M92.607 282.293s18.476-41.527 33.314-31.729c14.837 9.798 37.267 43.3 23.104 46.667-14.164 3.367-26.811-24.692-26.811-24.692l-21.745 15.792"/><path fill="#093F68" d="M146.621 298.578c-12.13 0-22.306-19.17-24.845-24.355l-20.689 15.017a1.128 1.128 0 0 1-1.782-.79c-.042-.4.132-.792.457-1.028l21.745-15.814a1.12 1.12 0 0 1 .954-.18c.326.09.594.32.73.629.124.269 12.434 27.138 25.53 24.029a4.278 4.278 0 0 0 3.572-3.692c1.696-9.641-14.882-32.997-26.956-40.966a7.44 7.44 0 0 0-6.537-.954c-12.266 3.592-25.002 31.908-25.126 32.2a1.127 1.127 0 0 1-2.056-.92c.54-1.201 13.288-29.551 26.553-33.435a9.698 9.698 0 0 1 8.401 1.235c11.715 7.71 29.944 31.975 27.968 43.232a6.457 6.457 0 0 1-5.223 5.455c-.882.218-1.787.332-2.696.337ZM54.273 453.36c-.62 0-1.124-.503-1.124-1.123v-45.252a1.123 1.123 0 0 1 2.247 0v45.252c0 .62-.503 1.123-1.123 1.123Z"/><path fill="#080C20" d="M57.406 454.942a23.242 23.242 0 0 1-17.447-3.435 23.21 23.21 0 0 1-9.903-14.758 45.555 45.555 0 0 1-.213-13.625c.27-2.333.672-4.648 1.202-6.936 2.325-10.101 7.166-19.349 14.41-20.797 9.053-1.818 19.387 9.136 25.43 20.123a53.132 53.132 0 0 1 2.482 5.107 36.392 36.392 0 0 1 2.246 6.992c2.521 12.57-5.629 24.803-18.207 27.329Z"/><path fill="#093F68" fill-rule="evenodd" d="M28.922 436.973c2.296 11.357 12.273 19.53 23.868 19.552a24.366 24.366 0 0 0 4.818-.483c13.19-2.644 21.74-15.472 19.095-28.653a36.42 36.42 0 0 0-2.337-7.194 53.43 53.43 0 0 0-2.527-5.219c-6.424-11.706-17.14-22.582-26.642-20.685-9.66 1.942-13.928 15.78-15.275 21.639a61.148 61.148 0 0 0-1.225 7.059 46.406 46.406 0 0 0 .225 13.984Zm16.724-40.482a9.443 9.443 0 0 1 1.775-.18h.034c7.952 0 17.027 9.899 22.362 19.787a53.299 53.299 0 0 1 2.438 5.006 35.473 35.473 0 0 1 2.246 6.734 22.085 22.085 0 0 1-3.286 16.594 22.114 22.114 0 0 1-14.067 9.41 22.105 22.105 0 0 1-16.605-3.267 22.077 22.077 0 0 1-9.42-14.05 44.253 44.253 0 0 1-.202-13.267c.267-2.294.66-4.572 1.18-6.823 2.628-11.314 7.682-18.822 13.545-19.944Z" clip-rule="evenodd"/><path fill="#080C20" d="M26.496 442.08a9.605 9.605 0 0 1 3.078-4.68c.898-.887 2.032-1.796 3.268-1.571a2.84 2.84 0 0 1 1.966 3.165 8.172 8.172 0 0 1-1.741 3.67 8.083 8.083 0 0 1 2.145-1.998 2.743 2.743 0 0 1 2.797 0 2.782 2.782 0 0 1 .741 3.277 8.228 8.228 0 0 1-2.246 2.795c1.505-.303 2.538-2.166 4.066-1.953a2.245 2.245 0 0 1 1.46 2.963 6.565 6.565 0 0 1-2.404 2.828 6.849 6.849 0 0 1 2.134-1.201 2.249 2.249 0 0 1 2.247.528c.864.976.314 2.514-.36 3.636a7.692 7.692 0 0 1-2.886 2.986 6.262 6.262 0 0 1-6.066-.707c-3.526-2.357-9.109-9.248-8.199-13.738Z"/><path fill="#093F68" fill-rule="evenodd" d="M34.055 456.715a8.331 8.331 0 0 0 4.493 1.392 6.095 6.095 0 0 0 2.695-.673 8.547 8.547 0 0 0 3.37-3.367c1.202-1.976 1.292-3.783.236-4.972a3 3 0 0 0-1.82-.954v-.101a3.782 3.782 0 0 0-.382-3.087 2.808 2.808 0 0 0-1.988-1.335 2.99 2.99 0 0 0-.707 0 3.69 3.69 0 0 0-1.36-3.928 3.619 3.619 0 0 0-2.729-.472v-.101a3.961 3.961 0 0 0-2.886-4.399c-1.752-.315-3.201.841-4.257 1.874a10.648 10.648 0 0 0-3.37 5.264c-1.067 5.241 5.19 12.615 8.705 14.859Zm-3.695-18.518a3.698 3.698 0 0 1 2.1-1.28l.202-.011c.72.135 1.146 1.134 1.056 1.942a7.545 7.545 0 0 1-1.55 3.154 1.124 1.124 0 0 0 1.786 1.358 7.155 7.155 0 0 1 1.82-1.729 1.674 1.674 0 0 1 1.628-.101c.504.511.634 1.283.326 1.931a7.397 7.397 0 0 1-1.988 2.379 1.122 1.122 0 0 0 .977 1.93 5.71 5.71 0 0 0 2.246-1.2c.64-.494 1.067-.741 1.427-.741a.58.58 0 0 1 .393.303c.215.362.268.798.146 1.201a5.45 5.45 0 0 1-2.033 2.301 1.13 1.13 0 0 0 1.382 1.784 5.73 5.73 0 0 1 1.763-1.033 1.203 1.203 0 0 1 1.123.191c.404.46 0 1.527-.483 2.312a6.31 6.31 0 0 1-2.403 2.582 5.137 5.137 0 0 1-4.942-.64c-3.595-2.335-8.48-8.878-7.74-12.525a8.717 8.717 0 0 1 2.764-4.108Z" clip-rule="evenodd"/><path fill="#080C20" d="M69.638 419.218a46.496 46.496 0 0 0-2.572 11.223c-.39 3.517-.622 7.049-.697 10.595a11.754 11.754 0 0 1-.685 4.602 3.775 3.775 0 0 1-3.661 2.391c-2.135-.303-3.078-2.829-3.482-4.95a63.095 63.095 0 0 1-.978-7.856 8.1 8.1 0 0 0-.483-2.694 2.471 2.471 0 0 0-2.055-1.594c-1.483 0-2.381 1.616-3.673 2.335-2.021 1.122-4.672-.359-5.728-2.402s-1.045-4.489-1.213-6.734c0-.812-.205-1.611-.595-2.323a1.821 1.821 0 0 0-2.078-.82 2.76 2.76 0 0 0-1.213 1.504c-.685 1.493-1.483 3.109-2.977 3.771a4.876 4.876 0 0 1-3.1.113 8.02 8.02 0 0 1-4.571-3.233c.27-2.332.671-4.648 1.202-6.936 2.325-10.101 7.166-19.349 14.41-20.797 7.795-1.571 14.983 5.612 19.398 11.089a61.874 61.874 0 0 1 4.133 5.814c1.46 2.323 2.246 3.064 1.123 5.611-.202.393-.37.82-.505 1.291Z"/><path fill="#093F68" fill-rule="evenodd" d="M61.831 449.151c.18.011.36.011.54 0a5.02 5.02 0 0 0 4.313-3.042c.59-1.553.857-3.21.786-4.871v-.168c.067-3.468.292-6.992.685-10.494a45.861 45.861 0 0 1 2.516-10.965c.157-.415.326-.842.494-1.257 1.21-2.834.397-4.103-.824-6.004l-.007-.012-.382-.606a62.107 62.107 0 0 0-4.223-5.926c-7.188-8.9-14.085-12.772-20.487-11.481-9.66 1.941-13.927 15.78-15.275 21.638a61.202 61.202 0 0 0-1.225 7.06c-.03.269.038.54.191.763a9.159 9.159 0 0 0 5.212 3.693 6.04 6.04 0 0 0 3.841-.18c1.943-.864 2.91-2.941 3.527-4.31.157-.325.45-.875.618-.943.168-.067.528.09.719.382.276.558.419 1.173.415 1.796l.068 1.032a14.971 14.971 0 0 0 1.269 6.173 6.6 6.6 0 0 0 3.785 3.176 4.368 4.368 0 0 0 3.493-.314 8.205 8.205 0 0 0 1.528-1.19c.673-.628 1.123-.998 1.56-.998.492.096.894.447 1.057.92a6.5 6.5 0 0 1 .382 2.132v.18c.169 2.674.503 5.335 1 7.969.842 4.433 2.875 5.622 4.425 5.847Zm-6.795-19.327h-.09a4.587 4.587 0 0 0-3.1 1.65 6.724 6.724 0 0 1-1.123.887 2.25 2.25 0 0 1-1.752.123 4.333 4.333 0 0 1-2.426-2.065 13.002 13.002 0 0 1-1.022-5.275l-.068-1.055a5.834 5.834 0 0 0-.774-2.851 2.934 2.934 0 0 0-3.46-1.246 3.806 3.806 0 0 0-1.797 2.066c-.651 1.425-1.28 2.738-2.404 3.209a3.725 3.725 0 0 1-2.37 0 6.869 6.869 0 0 1-3.684-2.446c.261-2.147.636-4.279 1.123-6.386 2.629-11.314 7.683-18.822 13.546-19.944 5.515-1.111 11.67 2.491 18.297 10.696a61.63 61.63 0 0 1 4.066 5.712l.393.618c1.157 1.807 1.393 2.177.651 3.939-.18.438-.359.887-.528 1.336a47.528 47.528 0 0 0-2.594 11.47c-.404 3.569-.64 7.172-.708 10.696v.168a10.469 10.469 0 0 1-.584 3.984 2.705 2.705 0 0 1-2.482 1.751c-1.572-.224-2.269-2.637-2.538-4.04a62.64 62.64 0 0 1-.955-7.699v-.191a8.279 8.279 0 0 0-.55-2.862 3.54 3.54 0 0 0-3.067-2.245Z" clip-rule="evenodd"/><path fill="#080C20" d="M92.528 415.088a2.142 2.142 0 0 0-.09 2.065 3.369 3.369 0 0 0 2.348 1.268c2.094.55 4.282.638 6.413.258a4.368 4.368 0 0 0 3.37-2.57c.91-2.794-2.426-5.073-4.875-5.241-2.448-.168-6.054 2.155-7.166 4.22Z"/><path fill="#093F68" fill-rule="evenodd" d="M94.561 419.521c1.43.328 2.89.508 4.358.539.852.016 1.704-.063 2.539-.236a5.444 5.444 0 0 0 4.155-3.367 4.163 4.163 0 0 0-.572-3.726 7.378 7.378 0 0 0-5.29-2.985c-2.932-.202-6.953 2.48-8.211 4.803a3.287 3.287 0 0 0-.079 3.154 4.347 4.347 0 0 0 3.1 1.818Zm-1.145-2.963a1.122 1.122 0 0 1 .1-.988c.967-1.784 4.246-3.748 6.077-3.625 1.421.137 2.72.861 3.583 1.998.386.506.499 1.168.303 1.773-.404 1.246-2.044 1.718-2.527 1.83a14.018 14.018 0 0 1-5.942-.27c-.662-.134-1.381-.325-1.594-.718Z" clip-rule="evenodd"/><path fill="#080C20" d="m85.272 424.671 6.447-4.071 3.72 5.882-6.447 4.071-3.72-5.882Z"/><path fill="#093F68" fill-rule="evenodd" d="M88.732 431.687h.247c.21.017.42-.026.606-.123l6.448-4.097a1.122 1.122 0 0 0 .348-1.549l-3.718-5.881a1.12 1.12 0 0 0-.708-.493 1.123 1.123 0 0 0-.842.145l-6.447 4.075a1.12 1.12 0 0 0-.348 1.548l3.718 5.87c.155.254.406.436.696.505Zm.595-2.671-2.516-3.984 4.55-2.873 2.515 3.984-4.549 2.873Z" clip-rule="evenodd"/><path fill="#080C20" d="m95.471 426.491 29.057-17.374a4.342 4.342 0 0 0 1.482-6.072 4.355 4.355 0 0 0-6.132-1.279l-28.17 18.81 3.763 5.915Z"/><path fill="#093F68" fill-rule="evenodd" d="M94.528 427.097c.206.321.561.516.943.516.202.004.4-.051.573-.157l29.09-17.34a5.465 5.465 0 0 0-.307-9.53 5.474 5.474 0 0 0-5.522.282l-28.17 18.81a1.122 1.122 0 0 0-.325 1.538l3.718 5.881Zm1.246-2.133-2.55-4.029 27.272-18.238a3.227 3.227 0 0 1 4.549.943 3.218 3.218 0 0 1-1.124 4.489l-28.147 16.835Z" clip-rule="evenodd"/><path fill="#080C20" d="M81.405 427.768a1.41 1.41 0 0 1 .439-1.946l1.907-1.204a1.41 1.41 0 0 1 1.945.438l3.112 4.923a1.41 1.41 0 0 1-.439 1.946l-1.907 1.204a1.41 1.41 0 0 1-1.944-.439l-3.113-4.922Z"/><path fill="#093F68" fill-rule="evenodd" d="M83.52 433.169a2.72 2.72 0 0 0 3.74.842L88.867 433a2.714 2.714 0 0 0 .842-3.737l-2.931-4.635a2.684 2.684 0 0 0-1.697-1.19 2.733 2.733 0 0 0-2.044.348l-1.606 1.021a2.705 2.705 0 0 0-.842 3.727l2.931 4.635Zm.674-7.486a.459.459 0 0 1 .247-.068l.101.012a.446.446 0 0 1 .292.202l2.932 4.635a.46.46 0 0 1-.146.628l-1.606 1.022a.473.473 0 0 1-.64-.146l-2.932-4.635a.528.528 0 0 1-.056-.348.504.504 0 0 1 .202-.281l1.606-1.021Z" clip-rule="evenodd"/><path fill="#080C20" d="m81.442 426.098 4.617 7.306s-.697 2.638-5.762 4.782a26.074 26.074 0 0 1-3.808 1.234c-8.547 2.189-12.58-4.186-12.58-4.186 4.493 2.559 6.639-1.628 8.84-6.139l.27-.561c2.302-4.669 8.423-2.436 8.423-2.436Z"/><path fill="#093F68" fill-rule="evenodd" d="M62.899 435.874a12.436 12.436 0 0 0 10.108 5.151 15.256 15.256 0 0 0 3.696-.482 28.23 28.23 0 0 0 3.964-1.325c5.414-2.289 6.324-5.196 6.414-5.522a1.12 1.12 0 0 0-.135-.886l-4.627-7.307a1.124 1.124 0 0 0-.562-.46c-2.449-.887-7.638-1.403-9.806 3.03l-.28.562-.005.009c-1.29 2.635-2.75 5.614-4.6 6.186a3.373 3.373 0 0 1-2.662-.539 1.125 1.125 0 0 0-1.505 1.583Zm13.354 2.491c-2.997.91-6.245.441-8.862-1.279l.337-.079c2.79-.85 4.473-4.291 5.952-7.315l.012-.025.281-.572c1.618-3.21 5.537-2.357 6.74-2.021l4.077 6.443c-.439.718-1.674 2.278-4.931 3.659-1.17.486-2.376.884-3.606 1.189Z" clip-rule="evenodd"/><path fill="#080C20" d="M65.145 429.959c.215.819.516 1.613.898 2.368a2.338 2.338 0 0 0 2.617.494 5.305 5.305 0 0 0 2.112-1.504c.584-.651 1.123-1.369 1.662-2.02a.823.823 0 0 1 .315-.247c.438-.146.719.572.786.875.093.53.131 1.068.112 1.605v1.717c-.062.3-.062.61 0 .909a.515.515 0 0 0 .259.292c.103.023.21.023.314 0 .528-.123 1.011-.381 1.55-.46a1.202 1.202 0 0 1 1.326.651c.134.438-.124.887-.124 1.347.005.484.29.922.73 1.122.316.107.645.175.977.202.635.11 1.221.407 1.685.853a25.96 25.96 0 0 1-3.875 1.257 12.923 12.923 0 0 1-13.242-4.354 4.49 4.49 0 0 1-1.022-3.266"/><path fill="#093F68" d="M73.277 440.98a13.853 13.853 0 0 1-10.918-5.196 5.53 5.53 0 0 1-1.246-4.097 1.132 1.132 0 0 1 2.246.292 3.365 3.365 0 0 0 .797 2.424 11.72 11.72 0 0 0 12.075 3.962l.898-.247a2.345 2.345 0 0 1-1.325-2.166c.01-.257.048-.513.112-.763v-.09h-.067c-.217.052-.43.116-.64.191a5.572 5.572 0 0 1-.809.247 1.719 1.719 0 0 1-.944 0c-.41-.16-.739-.48-.91-.887a2.444 2.444 0 0 1-.123-1.268v-2.391a29.27 29.27 0 0 1-.932 1.123 6.345 6.345 0 0 1-2.56 1.818 3.37 3.37 0 0 1-3.92-.943 6.74 6.74 0 0 1-.787-1.885c-.079-.236-.146-.483-.225-.707a1.122 1.122 0 0 1 1.234-1.557c.41.077.743.373.867.771.1.281.19.572.27.853.11.452.283.887.516 1.291.101.168.73.247 1.303.056a4.231 4.231 0 0 0 1.65-1.212c.293-.326.574-.674.843-1.01.27-.337.528-.674.809-.988.212-.261.492-.459.809-.573a1.46 1.46 0 0 1 1.201.124c.536.375.906.942 1.034 1.582.109.611.154 1.232.135 1.852V433.135c.278-.093.564-.164.853-.213a2.246 2.246 0 0 1 2.561 1.425c.126.456.126.937 0 1.392-.026.1-.044.201-.056.303a.133.133 0 0 0 .067.112c.12.04.245.062.371.068h.337a4.403 4.403 0 0 1 2.246 1.122 1.122 1.122 0 0 1-.337 1.841 28.352 28.352 0 0 1-3.965 1.324 14.27 14.27 0 0 1-3.47.471Z"/><path fill="#080C20" d="M115.688 411.362a10.17 10.17 0 0 0-7.671-2.054 14.61 14.61 0 0 0-7.346 3.299 8.107 8.107 0 0 0-3.133 4.49 8.007 8.007 0 0 0 .224 3.457 15.424 15.424 0 0 0 8.334 10.213c5.616 2.514 13.95.673 16.129-5.724 1.528-4.4-3.279-11.044-6.537-13.681Z"/><path fill="#093F68" fill-rule="evenodd" d="M105.692 431.755a14.275 14.275 0 0 0 5.762 1.189c1.985.008 3.95-.393 5.773-1.178a10.822 10.822 0 0 0 6.099-6.397c1.73-5.096-3.628-12.2-6.885-14.872a11.323 11.323 0 0 0-8.525-2.312 15.735 15.735 0 0 0-7.919 3.547 8.979 8.979 0 0 0-3.526 5.118 8.802 8.802 0 0 0 .236 3.939 16.389 16.389 0 0 0 8.985 10.966Zm2.505-21.336c.399-.045.8-.067 1.202-.067a8.986 8.986 0 0 1 5.672 1.863c3.313 2.727 7.379 8.911 6.177 12.424a8.578 8.578 0 0 1-4.863 5.062 12.434 12.434 0 0 1-9.738 0 14.29 14.29 0 0 1-7.705-9.462 6.726 6.726 0 0 1-.214-2.951 6.934 6.934 0 0 1 2.73-3.816 13.55 13.55 0 0 1 6.739-3.053Z" clip-rule="evenodd"/><ellipse cx="48.915" cy="404.56" fill="#093F68" rx="2.426" ry="2.424"/><ellipse cx="60.562" cy="421.597" fill="#093F68" rx="2.426" ry="2.424"/><ellipse cx="39.929" cy="411.35" fill="#093F68" rx="2.426" ry="2.424"/><ellipse cx="58.08" cy="408.556" fill="#093F68" rx="2.426" ry="2.424"/><ellipse cx="49.431" cy="417.725" fill="#093F68" rx="2.426" ry="2.424"/><path fill="#093F68" fill-rule="evenodd" d="M46.362 360.703a13.196 13.196 0 0 0 12.201 8.133c7.282-.012 13.18-5.911 13.186-13.187a13.187 13.187 0 0 0-8.15-12.185 13.204 13.204 0 0 0-14.383 2.864 13.18 13.18 0 0 0-2.854 14.375Zm2.075-9.25a10.951 10.951 0 0 1 10.126-6.747c6.041.012 10.934 4.906 10.94 10.943 0 4.427-2.67 8.418-6.763 10.111a10.958 10.958 0 0 1-11.936-2.378 10.936 10.936 0 0 1-2.367-11.929ZM82.139 355.649c0 7.283 5.909 13.187 13.197 13.187 7.286-.006 13.192-5.907 13.198-13.187 0-7.284-5.909-13.188-13.198-13.188-7.288 0-13.197 5.904-13.197 13.188Zm2.246 0c0-6.044 4.903-10.943 10.951-10.943 6.046.006 10.945 4.902 10.951 10.943 0 6.043-4.903 10.943-10.95 10.943-6.049 0-10.952-4.9-10.952-10.943Z" clip-rule="evenodd"/><path fill="#093F68" d="M83.363 355.245a1.12 1.12 0 0 1-.663-.214 10.116 10.116 0 0 0-11.445-.695 1.124 1.124 0 0 1-1.488-.344 1.121 1.121 0 0 1 .23-1.508 12.533 12.533 0 0 1 14.029.729 1.122 1.122 0 0 1-.663 2.032ZM46.78 354.122a1.123 1.123 0 0 1-.82-.348l-10.108-10.763a1.123 1.123 0 1 1 1.64-1.537l10.109 10.763a1.121 1.121 0 0 1 0 1.582 1.12 1.12 0 0 1-.82.303ZM107.107 354.122a1.122 1.122 0 0 1-.764-1.941l12.21-11.358a1.122 1.122 0 0 1 1.527 1.638l-12.254 11.347a1.121 1.121 0 0 1-.719.314Z"/><path fill="#080C20" d="m67.391 373.707 20.218-2.245s-.427 13.053-9.064 13.311c-8.638.259-11.154-11.066-11.154-11.066Z"/><path fill="#093F68" fill-rule="evenodd" d="M66.29 373.943c.113.505 2.775 11.998 11.951 11.998l.382-.045c9.536-.292 10.109-13.827 10.109-14.4a1.123 1.123 0 0 0-1.247-1.156l-20.217 2.245c-.32.032-.61.2-.798.46-.185.26-.25.587-.18.898Zm12.232 9.753c-6.054.247-8.783-6.229-9.693-8.979l17.555-1.964c-.37 3.087-1.808 10.696-7.862 10.943Z" clip-rule="evenodd"/><path fill="#093F68" d="M311.995 302.124a1.071 1.071 0 0 1-1.072-1.071v-6.855c-.379-24.441-20.326-44.056-44.803-44.056-24.476 0-44.423 19.615-44.802 44.056v6.855a1.071 1.071 0 0 1-2.145 0v-6.855c.388-25.618 21.293-46.182 46.947-46.182 25.655 0 46.56 20.564 46.948 46.182v6.855a1.07 1.07 0 0 1-1.073 1.071Z"/><path fill="#080C20" d="M308.799 444.041c0 4.08 7.261 4.059 16.216 4.059 8.955 0 16.205 0 16.205-4.059 0-4.06-7.261-9.64-16.205-9.64-8.945 0-16.216 5.559-16.216 9.64Z"/><path fill="#093F68" fill-rule="evenodd" d="M324.843 449.171h.504a72.828 72.828 0 0 0 11.358-.525c1.383-.235 5.587-.974 5.587-4.605 0-4.809-7.968-10.711-17.277-10.711-9.309 0-17.288 5.891-17.288 10.711 0 3.631 4.204 4.37 5.587 4.605 3.824.47 7.678.645 11.529.525Zm.494-2.142h-.494a75.715 75.715 0 0 1-11.164-.493c-3.807-.664-3.807-1.949-3.807-2.495 0-3.374 6.788-8.569 15.143-8.569 8.354 0 15.132 5.184 15.132 8.569 0 .546 0 1.831-3.807 2.495-3.65.445-7.328.61-11.003.493Z" clip-rule="evenodd"/><path fill="#080C20" d="M307.909 430.342s5.437 1.81 6.639 4.016c1.201 2.207 2.22 11.461 5.233 10.657 3.014-.803.408-10.046 2.821-9.854 2.413.193 19.025 8.248 18.618 4.028-.408-4.22-7.947-10.861-14.393-14.074-6.445-3.213-17.427-4.627-17.427-4.627l-1.491 9.854Z"/><path fill="#093F68" fill-rule="evenodd" d="M318.172 445.797c.374.221.8.339 1.234.343.231.001.462-.027.686-.086 2.435-.632 2.435-3.866 2.435-6.726a14.55 14.55 0 0 1 .214-3.063c.705.154 2.399.794 4.036 1.412l.544.205c7.121 2.72 12.311 4.531 14.231 3.063a2 2 0 0 0 .762-1.863c-.526-5.099-9.052-11.943-15.015-14.931-6.531-3.256-17.309-4.724-17.771-4.724a1.072 1.072 0 0 0-1.19.9l-1.501 9.854a1.07 1.07 0 0 0 .718 1.178c1.952.654 5.309 2.174 6.038 3.513.436 1.06.777 2.157 1.019 3.278 1.019 3.856 1.866 6.662 3.56 7.647Zm-2.649-11.942c-1.136-2.014-4.729-3.578-6.434-4.22l1.212-7.98c2.895.439 11.014 1.843 16.087 4.37 6.724 3.363 13.384 9.726 13.791 13.217-1.445.648-8.747-2.124-12.01-3.362l-.087-.033a27.838 27.838 0 0 0-5.362-1.789 1.706 1.706 0 0 0-1.362.45c-.976.857-.976 2.624-.976 4.766-.011 1.553-.043 4.456-.847 4.67a.247.247 0 0 1-.236 0c-1.062-.61-2.006-4.198-2.564-6.341a19.612 19.612 0 0 0-1.212-3.748Z" clip-rule="evenodd"/><path fill="#080C20" d="M273.086 299.597c-15.347-1.885-35.005 2.067-46.234 13.152a13.208 13.208 0 0 0-3.904 5.795c-1.919 7.39-.171 14.609-6.703 20.168-1.662 1.424-3.571 2.571-5.094 4.156-4.933 5.141-3.914 14.695 2.006 18.679-3.336 3.213-3.85 8.483-2.832 13.003 1.834 8.183 7.937 14.995 15.208 19.14 7.271 4.145 15.647 6.083 23.97 7.197 12.108 1.618 24.57 1.693 36.378-1.413 11.807-3.107 22.972-9.586 30.297-19.355a22.693 22.693 0 0 0 4.804-10.571c.751-6.009-2.145-11.782-4.922-17.137 4.075-4.788 5.072-11.685 3.625-17.791-1.448-6.105-5.105-11.513-9.395-16.065a61.734 61.734 0 0 0-37.204-18.958Z"/><path fill="#093F68" fill-rule="evenodd" d="M249.352 401.991a120.759 120.759 0 0 0 15.841 1.071 82.147 82.147 0 0 0 20.934-2.378c12.902-3.395 23.873-10.411 30.877-19.751 2.938-3.909 4.579-7.54 5.019-11.074.772-6.288-2.177-12.286-4.719-17.191 3.711-4.788 4.987-11.514 3.389-18.208-1.33-5.58-4.58-11.161-9.652-16.58a63.198 63.198 0 0 0-37.858-19.279c-14.833-1.811-35.156 1.681-47.124 13.463a14.152 14.152 0 0 0-4.183 6.287 46.911 46.911 0 0 0-1.072 6.737l-.028.243c-.545 4.846-1.019 9.06-5.238 12.61a40.398 40.398 0 0 1-1.941 1.51 25.559 25.559 0 0 0-3.218 2.721 13.216 13.216 0 0 0-3.367 10.624 13.453 13.453 0 0 0 4.558 8.944c-2.585 3.181-3.443 7.969-2.295 13.088 1.78 7.862 7.496 15.092 15.722 19.836 6.36 3.664 13.867 5.923 24.355 7.327Zm-21.749-88.481c7.143-7.048 20.988-13.335 37.45-13.335 2.636.014 5.269.189 7.883.525a61.042 61.042 0 0 1 36.55 18.551c4.847 5.152 7.893 10.4 9.137 15.616 1.469 6.201.172 12.66-3.4 16.848a1.072 1.072 0 0 0-.139 1.189c3.035 5.848 5.491 11.107 4.815 16.558-.386 3.16-1.898 6.448-4.601 10.058-6.724 8.954-17.266 15.744-29.707 18.957-10.51 2.764-22.275 3.224-35.97 1.393-10.221-1.371-17.492-3.545-23.595-7.058-7.7-4.445-13.062-11.172-14.703-18.455-1.094-4.905-.15-9.382 2.531-11.996.233-.226.351-.545.322-.867a1.074 1.074 0 0 0-.461-.793 11.77 11.77 0 0 1-1.834-17.051 24.238 24.238 0 0 1 2.97-2.475c.215-.167.43-.331.645-.495.474-.361.946-.721 1.404-1.111 4.878-4.101 5.444-9.161 5.994-14.08l.022-.197a45.68 45.68 0 0 1 1.073-6.427 12.269 12.269 0 0 1 3.614-5.355Z" clip-rule="evenodd"/><path fill="#080C20" d="M265.632 257.407h1.684c21.625 0 39.156 17.508 39.156 39.105v11.557h-79.984v-11.557c0-21.597 17.53-39.105 39.155-39.105h-.011Z"/><path fill="#093F68" fill-rule="evenodd" d="M226.488 309.151h80.048c.593 0 1.073-.48 1.073-1.071v-11.568c-.03-22.197-18.056-40.176-40.282-40.176h-1.695c-22.203.03-40.193 18.002-40.217 40.176v11.568c0 .591.48 1.071 1.073 1.071Zm78.976-2.143h-77.85v-10.496c.017-20.994 17.051-38.01 38.072-38.034h1.695c21.023.024 38.059 17.038 38.083 38.034v10.496Z" clip-rule="evenodd"/><path fill="#093F68" d="M273.579 368.07c-.592 0-1.072-.48-1.072-1.071v-7.498h-12.698v7.498a1.072 1.072 0 0 1-2.145 0v-8.569c0-.591.48-1.071 1.073-1.071h14.842c.593 0 1.073.48 1.073 1.071v8.569c0 .591-.48 1.071-1.073 1.071Z"/><path fill="#080C20" d="M266.126 360.412c-21.9 0-39.681-13.014-39.681-37.006v-16.794c23.369 4.381 26.929-19.847 26.929-19.847 21.203 36.824 52.336 12.467 52.336 12.467v24.174c.043 23.992-17.695 37.006-39.584 37.006Z"/><path fill="#093F68" fill-rule="evenodd" d="M225.372 323.406c0 22.782 16.398 38.077 40.754 38.077 24.323 0 40.711-15.295 40.668-38.098v-24.174a1.073 1.073 0 0 0-1.738-.846l-.007.005c-.361.274-13.093 9.93-27.341 7.16-9.18-1.735-17.052-8.236-23.401-19.279a1.074 1.074 0 0 0-1.137-.514 1.072 1.072 0 0 0-.858.889v.003c-.036.223-1.7 10.6-9.373 16.063-4.343 3.106-9.867 4.059-16.301 2.849a1.072 1.072 0 0 0-1.266 1.071v16.794Zm2.145.043V307.93l.043-.043c6.51.964 12.119-.182 16.709-3.374 6.017-4.284 8.58-11.096 9.652-14.845 6.435 10.196 14.318 16.269 23.466 18.047 12.333 2.335 23.218-3.706 27.347-6.426v22.16c0 24.828-19.368 35.935-38.608 35.935s-38.609-11.107-38.609-35.935Z" clip-rule="evenodd"/><ellipse cx="246.489" cy="322.11" fill="#093F68" rx="3.807" ry="3.802"/><ellipse cx="285.752" cy="322.11" fill="#093F68" rx="3.807" ry="3.802"/><path fill="#093F68" d="M266.533 334.588a25.186 25.186 0 0 1-3.689-.299 1.075 1.075 0 0 1-.869-1.243 1.073 1.073 0 0 1 1.244-.867c1.908.307 3.852.307 5.76 0 .332-.986-1.073-5.163-3.218-9.126a1.07 1.07 0 0 1 .989-1.59c.388.018.737.246.909.594 1.073 1.981 4.29 8.633 3.218 11.075-.238.542-.719.94-1.298 1.071a12.72 12.72 0 0 1-3.046.385ZM220.492 294.263h5.996V333.4h-5.996c-4.388 0-7.946-3.554-7.946-7.937v-23.264c0-4.383 3.558-7.936 7.946-7.936Z"/><path fill="#093F68" fill-rule="evenodd" d="M220.492 334.46h5.996c.592 0 1.072-.48 1.072-1.071v-39.126c0-.592-.48-1.071-1.072-1.071h-5.996c-4.978.006-9.013 4.035-9.019 9.007v23.264c.006 4.97 4.042 8.997 9.019 8.997Zm-6.874-32.261c0-3.791 3.078-6.865 6.874-6.865h4.923v36.984h-4.923a6.87 6.87 0 0 1-6.874-6.855v-23.264Z" clip-rule="evenodd"/><path fill="#093F68" d="M311.759 333.389h-5.995v-39.137h5.995c4.389 0 7.947 3.553 7.947 7.937v23.263c0 4.383-3.558 7.937-7.947 7.937Z"/><path fill="#093F68" fill-rule="evenodd" d="M305.764 334.46h5.984c4.978 0 9.014-4.027 9.02-8.997v-23.264c-.006-4.972-4.041-9.001-9.02-9.007h-5.984c-.592 0-1.072.479-1.072 1.071v39.126c0 .591.48 1.071 1.072 1.071Zm5.984-2.142h-4.911v-36.984h4.911c3.797 0 6.875 3.074 6.875 6.865v23.264c-.006 3.787-3.082 6.855-6.875 6.855Z" clip-rule="evenodd"/><path fill="#093F68" d="M266.49 349.251a16.462 16.462 0 0 1-8.14-1.96 11.884 11.884 0 0 1-5.201-5.441 1.073 1.073 0 0 1 1.995-.792c.171.439 4.547 10.56 22.521 3.62a1.072 1.072 0 1 1 .773 2.003 33.863 33.863 0 0 1-11.948 2.57ZM240.108 353.707c-5.191 0-12.205-.6-15.755-3.46-5.984-4.841-5.759-16.269-5.748-16.751a1.071 1.071 0 0 1 2.145 0c0 .107-.204 10.86 4.944 14.995 5.148 4.134 20.377 2.72 20.548 2.71a1.071 1.071 0 0 1 .215 2.131c-.258.107-2.907.375-6.349.375Z"/><path fill="#093F68" fill-rule="evenodd" d="M238.639 356.642h10.274a4.76 4.76 0 0 0 4.762-4.756 4.759 4.759 0 0 0-4.762-4.755h-10.274a4.759 4.759 0 0 0-4.762 4.755 4.76 4.76 0 0 0 4.762 4.756Zm-2.617-4.777a2.615 2.615 0 0 1 2.617-2.614h10.274a2.616 2.616 0 0 1 2.617 2.614 2.615 2.615 0 0 1-2.617 2.613h-10.274a2.615 2.615 0 0 1-2.617-2.613Z" clip-rule="evenodd"/><path fill="#080C20" d="M248.13 366.999h36.045c12.859 0 23.284 10.41 23.284 23.253v50.704h-82.58v-50.694c-.006-12.833 10.4-23.245 23.251-23.263Z"/><path fill="#093F68" fill-rule="evenodd" d="M224.89 442.038h82.579a1.075 1.075 0 0 0 1.116-1.071v-50.705c-.012-13.434-10.914-24.322-24.367-24.334h-36.045c-13.448.017-24.344 10.904-24.356 24.334v50.705c0 .591.48 1.071 1.073 1.071Zm81.507-2.142h-80.435l-.043-49.634c.012-12.247 9.947-22.174 22.211-22.192h36.045c12.266.018 22.204 9.943 22.222 22.192v49.634Z" clip-rule="evenodd"/><path fill="#093F68" d="M237.341 314.399a1.705 1.705 0 0 1-1.652-1.595 1.705 1.705 0 0 1 1.437-1.79l17.717-2.217a1.704 1.704 0 0 1 .419 3.374l-17.717 2.217-.204.011ZM294.911 314.399h-.172l-17.717-2.217a1.704 1.704 0 0 1-1.38-1.884 1.705 1.705 0 0 1 1.798-1.49l17.717 2.217a1.703 1.703 0 0 1-.203 3.385l-.043-.011Z"/><path fill="#080C20" d="M266.158 386.278c-8.998 0-21.964-19.279-21.964-19.279h43.917s-12.966 19.279-21.953 19.279Z"/><path fill="#093F68" fill-rule="evenodd" d="M243.313 367.612c.665.978 13.433 19.737 22.845 19.737 8.992 0 21.073-17.161 22.727-19.511l.17-.239c.212-.32.237-.729.064-1.071a1.071 1.071 0 0 0-.954-.568h-43.917a1.072 1.072 0 0 0-.944.568 1.068 1.068 0 0 0 0 1.071l.009.013Zm22.845 17.595c-6.263 0-15.615-11.15-19.905-17.137h39.81c-4.322 5.987-13.642 17.137-19.905 17.137Z" clip-rule="evenodd"/><path fill="#093F68" fill-rule="evenodd" d="M249.438 367.759c1.041 1.061 6.103 5.988 9.513 5.988.268.002.536-.034.794-.108 3.174-.867 6.756-5.462 7.153-5.987a1.07 1.07 0 0 0 .107-1.124 1.071 1.071 0 0 0-.965-.6H250.2a1.071 1.071 0 0 0-.762 1.831Zm9.738 3.824c-1.126.3-3.786-1.371-6.263-3.513h10.821c-1.34 1.435-3.142 3.117-4.558 3.513Z" clip-rule="evenodd"/><path fill="#093F68" fill-rule="evenodd" d="M272.571 373.639c.255.074.518.11.783.108 3.411 0 8.516-4.938 9.524-5.988a1.07 1.07 0 0 0 .225-1.167 1.073 1.073 0 0 0-.987-.664h-15.851a1.072 1.072 0 0 0-.847 1.724c.397.525 3.936 5.12 7.153 5.987Zm.569-2.056c-1.427-.396-3.239-2.078-4.558-3.513h10.81c-2.466 2.131-5.18 3.813-6.252 3.513Z" clip-rule="evenodd"/><path fill="#093F68" d="M266.265 387.349a1.071 1.071 0 0 1-1.072-1.071v-19.279a1.071 1.071 0 0 1 2.145 0v19.279c0 .592-.48 1.071-1.073 1.071Z"/><path fill="#080C20" d="M216.095 362.715s-27.079 51.207-17.159 62.014c9.92 10.807 22.339 3.567 25.964-4.284s5.288-51.915 5.288-51.915l-14.093-5.815Z"/><path fill="#093F68" fill-rule="evenodd" d="M198.185 425.458c4.236 4.594 8.612 5.816 12.065 5.816.764.01 1.528-.037 2.285-.14a18.57 18.57 0 0 0 13.363-10.186c3.584-7.72 5.194-48.111 5.352-52.069l.01-.252a1.071 1.071 0 0 0-.665-1.071l-14.092-5.827a1.072 1.072 0 0 0-1.362.482c-1.116 2.121-27.316 52-16.956 63.247Zm1.577-1.457c-7.593-8.237 9.159-45.22 16.827-59.926l12.483 5.173c-.236 5.773-1.898 43.753-5.116 50.758a16.48 16.48 0 0 1-11.732 8.965c-4.505.707-8.816-1.007-12.462-4.97Z" clip-rule="evenodd"/><path fill="#080C20" d="M224.546 343.007s17.921-1.799 19.53 2.217c1.609 4.017-4.033 5.023-10.671 4.22 0 0 5.437 3.02 5.437 8.247s-8.654 10.839-8.654 10.839l-14.093-5.826s.193-15.07 8.451-19.697Z"/><path fill="#093F68" fill-rule="evenodd" d="M229.769 369.527c.134.05.276.076.419.075.202.009.403-.04.579-.14l.128-.09c1.156-.801 9.02-6.256 9.02-11.691a9.907 9.907 0 0 0-3.11-6.92c3.078.054 6.488-.353 7.936-2.249a3.551 3.551 0 0 0 .332-3.695c-1.769-4.423-16.237-3.32-20.634-2.881a.963.963 0 0 0-.418.128c-8.687 4.874-8.998 19.986-8.998 20.629a1.07 1.07 0 0 0 .654.996l14.092 5.838Zm-12.568-7.53h-.001v.011l.001-.011Zm12.869 5.355-12.869-5.355c.162-2.961 1.229-14.121 7.624-17.919 8.215-.803 17.428-.439 18.232 1.564.397.921.182 1.349 0 1.596-.751.985-3.7 1.874-9.513 1.167a1.07 1.07 0 0 0-.654 2.003c.054.021 4.891 2.753 4.891 7.305 0 3.566-5.191 7.893-7.711 9.639Z" clip-rule="evenodd"/><path fill="#080C20" d="M306.536 456.583h-83.952a7.74 7.74 0 0 1-7.733-7.144l-3.743-48.198a7.74 7.74 0 0 1 2.04-5.86 7.762 7.762 0 0 1 5.693-2.484h91.427c2.162 0 4.225.9 5.693 2.484a7.74 7.74 0 0 1 2.04 5.86l-3.743 48.198a7.74 7.74 0 0 1-7.722 7.144Z"/><path fill="#093F68" fill-rule="evenodd" d="M222.584 457.654h83.952a8.864 8.864 0 0 0 8.794-8.13l3.743-48.198a8.818 8.818 0 0 0-2.325-6.669 8.848 8.848 0 0 0-6.48-2.831h-91.427a8.844 8.844 0 0 0-6.479 2.831 8.818 8.818 0 0 0-2.326 6.669l3.743 48.198a8.865 8.865 0 0 0 8.805 8.13Zm-8.639-61.574a6.688 6.688 0 0 1 4.907-2.144h91.427c1.863 0 3.642.778 4.906 2.144a6.666 6.666 0 0 1 1.754 5.054l-3.732 48.198a6.71 6.71 0 0 1-6.671 6.158h-83.941a6.71 6.71 0 0 1-6.671-6.158l-3.732-48.198a6.669 6.669 0 0 1 1.753-5.054Z" clip-rule="evenodd"/><path fill="#093F68" fill-rule="evenodd" d="M255.777 424.729c0 4.839 3.927 8.762 8.772 8.762 4.843-.006 8.767-3.925 8.773-8.762 0-4.838-3.928-8.761-8.773-8.761s-8.772 3.923-8.772 8.761Zm2.144 0c0-3.655 2.968-6.619 6.628-6.619a6.634 6.634 0 0 1 6.628 6.619 6.623 6.623 0 0 1-6.628 6.619 6.624 6.624 0 0 1-6.628-6.619ZM379.642 276.404h26.2c.657 0 1.191-.535 1.191-1.196v-26.311c0-.66-.534-1.196-1.191-1.196h-26.2c-.658 0-1.191.536-1.191 1.196v26.311c0 .661.533 1.196 1.191 1.196Zm25.009-2.392h-23.818v-23.919h23.818v23.919Z" clip-rule="evenodd"/><path fill="#093F68" fill-rule="evenodd" d="M361.41 277.471c.011 8.669 7.016 15.689 15.648 15.683a15.603 15.603 0 0 0 11.062-4.616 15.736 15.736 0 0 0 4.563-11.123c-.02-8.669-7.032-15.682-15.664-15.667-8.633.016-15.62 7.054-15.609 15.723Zm3.389-5.099c2.053-4.979 6.893-8.225 12.259-8.22 7.295.013 13.211 5.938 13.243 13.263a13.311 13.311 0 0 1-8.152 12.333 13.211 13.211 0 0 1-14.462-2.86 13.353 13.353 0 0 1-2.888-14.516Z" clip-rule="evenodd"/></svg>