<svg xmlns="http://www.w3.org/2000/svg" fill="none" viewBox="0 0 396 444"><path fill="#080C20" d="m75.354 394.801-12.529 35.424h35.382l-22.853-35.424Z"/><path fill="#093F68" fill-rule="evenodd" d="M62.825 431.421h35.382l.048.06a1.19 1.19 0 0 0 1.043-.624 1.2 1.2 0 0 0-.043-1.218l-22.853-35.424a1.19 1.19 0 0 0-1.191-.538 1.191 1.191 0 0 0-.977.789L61.706 429.83a1.2 1.2 0 0 0 .151 1.085c.223.316.583.504.968.506Zm33.19-2.392H64.517l11.147-31.537 20.353 31.537Z" clip-rule="evenodd"/><path fill="#093F68" d="M205.83 270.734a18.35 18.35 0 0 0-8.873.155 43.147 43.147 0 0 0-24.342 18.729 12.55 12.55 0 0 1 4.109-12.163 19.326 19.326 0 0 0-16.399 9.663c-2.751 4.868-3.882 13.371-.203 18.143 3.24 4.185 9.159 3.42 12.493 6.757 2.072 2.081 2.811 9.567 3.906 12.45 2.787 7.522 6.086 14.841 9.123 22.268l66.167-12.366s-1.108-16.516-3.573-30.018c-2.465-13.503-11.814-30.425-27.605-23.656a13.145 13.145 0 0 0-3.788-4.628 25.364 25.364 0 0 0-11.015-5.334Z"/><path fill="#093F68" fill-rule="evenodd" d="M184.548 347.19c.183.447.615.74 1.096.742l.238-.012 66.155-12.438c.573-.105.986-.611.976-1.196-.009-.025-.042-.436-.101-1.162-.323-4.008-1.423-17.625-3.531-28.988-1.643-8.874-6.312-19.912-14.469-24.301a16.016 16.016 0 0 0-13.732-.658 16.14 16.14 0 0 0-3.572-4.018 26.576 26.576 0 0 0-11.481-5.597 19.629 19.629 0 0 0-9.527.179 44.457 44.457 0 0 0-23.068 16.337 11.28 11.28 0 0 1 3.93-7.702 1.199 1.199 0 0 0-.762-2.117c-7.201.102-13.819 4-17.423 10.261-3.073 5.454-3.99 14.447-.107 19.47 1.96 2.55 4.788 3.465 7.286 4.274l.062.02a12.678 12.678 0 0 1 5.24 2.571c1.102 1.119 1.909 4.833 2.504 7.568l.008.038a35.086 35.086 0 0 0 1.12 4.425c1.696 4.55 3.604 9.08 5.464 13.497l.49 1.165a685.103 685.103 0 0 1 3.204 7.642Zm-23.187-59.486a18.042 18.042 0 0 1 12.374-8.766 13.837 13.837 0 0 0-2.287 10.979c.109.471.49.829.965.909.47.072.939-.145 1.191-.551a41.885 41.885 0 0 1 23.651-18.214 17.094 17.094 0 0 1 8.336-.131 24.04 24.04 0 0 1 10.421 5.07 11.946 11.946 0 0 1 3.489 4.186c.124.295.36.527.655.646.294.123.624.123.917 0 4.585-1.973 8.861-1.925 12.707.144 7.42 3.994 11.778 14.686 13.243 22.627 2.156 11.337 3.275 24.971 3.573 28.822l-64.166 11.96c-.725-1.742-1.457-3.477-2.191-5.216l-.656-1.553c-2.048-4.748-4.132-9.664-5.954-14.567a35.135 35.135 0 0 1-1.024-4.09l-.047-.213c-.759-3.461-1.534-6.995-3.109-8.577a14.46 14.46 0 0 0-6.193-3.17c-2.394-.765-4.668-1.495-6.193-3.468-3.179-4.114-2.417-12.043.298-16.827Z" clip-rule="evenodd"/><ellipse cx="178.352" cy="344.472" fill="#080C20" rx="9.35" ry="10.487" transform="rotate(-10.55 178.352 344.472)"/><path fill="#093F68" fill-rule="evenodd" d="M168.018 346.485c1.036 5.681 5.645 9.711 10.718 9.711a8.808 8.808 0 0 0 1.775-.167 9.973 9.973 0 0 0 6.74-4.784c3.139-5.384 1.866-12.265-2.989-16.157a9.948 9.948 0 0 0-8.015-2.034c-5.704 1.065-9.42 7.092-8.229 13.431Zm12.04 7.199c-4.43.814-8.789-2.607-9.718-7.642h.024c-.941-5.035 1.906-9.818 6.324-10.644a7.657 7.657 0 0 1 6.121 1.579c3.878 3.161 4.888 8.686 2.382 13.024a7.632 7.632 0 0 1-5.133 3.683Z" clip-rule="evenodd"/><path fill="#080C20" d="M216.726 372.09c20.174-3.767 33.608-32.147 29.904-52.083l-4.454 2.702s-15.315-12.964-17.947-28.547c0 0-4.299 10.19-22.115 14.447-19.388 4.617-31.035 2.631-31.035 2.631l5.276 31.047c3.703 19.889 20.245 33.582 40.371 29.803Z"/><path fill="#093F68" fill-rule="evenodd" d="M189.645 367.031a33.48 33.48 0 0 0 20.508 6.877 37.519 37.519 0 0 0 6.752-.694c9.646-1.806 18.662-9.316 24.735-20.594 5.693-10.572 7.979-22.866 6.121-32.9a1.188 1.188 0 0 0-1.786-.802l-3.704 2.273c-2.882-2.632-14.672-14.113-16.899-27.268a1.19 1.19 0 0 0-2.274-.263c-.036.096-4.359 9.711-21.306 13.741-18.018 4.304-29.363 2.789-30.46 2.642l-.086-.011a1.196 1.196 0 0 0-1.37 1.376l5.288 31.094a39.59 39.59 0 0 0 14.481 24.529Zm-12.1-24.947-5.013-29.432c3.823.382 14.398.825 29.856-2.859 12.695-3.026 18.745-8.981 21.305-12.462 3.871 14.459 17.114 25.809 17.709 26.311.392.335.955.378 1.393.108l2.942-1.794c1.215 9.161-1.036 20.02-6.157 29.588-5.728 10.644-14.136 17.7-23.068 19.374a31.718 31.718 0 0 1-25.426-5.788 37.23 37.23 0 0 1-13.541-23.046Z" clip-rule="evenodd"/><ellipse cx="207.599" cy="327.646" fill="#093F68" rx="3.383" ry="3.396" transform="rotate(-10.55 207.599 327.646)"/><ellipse cx="183.381" cy="330.806" fill="#093F68" rx="3.382" ry="3.396"/><path fill="#093F68" d="M196.862 342.359h-.488a1.917 1.917 0 0 1-1.489-.861c-1.393-2.009.214-7.989.977-10.477.115-.42.449-.744.871-.845.423-.102.866.036 1.158.359a1.2 1.2 0 0 1 .245 1.192c-1.072 3.528-1.667 7.176-1.369 8.252a14.95 14.95 0 0 0 4.763-.969 1.19 1.19 0 0 1 1.469.723 1.198 1.198 0 0 1-.635 1.514 18.523 18.523 0 0 1-5.502 1.112ZM202.102 316.921a2.385 2.385 0 0 1-2.164-1.02 2.409 2.409 0 0 1-.202-2.392 2.39 2.39 0 0 1 1.961-1.372l15.911-2.762c.84-.152 1.696.16 2.245.816.549.656.706 1.557.412 2.362a2.387 2.387 0 0 1-1.836 1.534l-15.874 2.798c-.15.026-.301.038-.453.036ZM174.163 321.131a2.39 2.39 0 0 1-2.518-2.255 2.391 2.391 0 0 1 2.244-2.529l16.03-1.902c.851-.1 1.691.263 2.203.953a2.42 2.42 0 0 1 .28 2.392 2.4 2.4 0 0 1-1.923 1.439l-16.03 1.902h-.286Z"/><path fill="#080C20" d="M239.878 323.905s7.645-7.749 13.826-.777c6.181 6.972 4.109 21.228-11.135 20.044"/><path fill="#093F68" d="M244.367 344.44c-.607 0-1.191 0-1.881-.084a1.198 1.198 0 0 1-1.102-1.286 1.196 1.196 0 0 1 1.28-1.106c5.824.455 10.111-1.459 12.052-5.394a11.89 11.89 0 0 0-1.893-12.665 6.663 6.663 0 0 0-4.847-2.511c-3.775-.12-7.229 3.289-7.253 3.325a1.188 1.188 0 0 1-1.691 0 1.2 1.2 0 0 1 0-1.687c.167-.167 4.216-4.138 9.003-4.03a8.953 8.953 0 0 1 6.562 3.313 14.156 14.156 0 0 1 2.251 15.296c-1.286 2.643-4.597 6.829-12.481 6.829Z"/><path fill="#093F68" fill-rule="evenodd" d="M198.029 332.181a4.687 4.687 0 0 0 4.621 4.126 4.48 4.48 0 0 0 .655-.036l15.541-1.877a4.664 4.664 0 0 0 3.119-1.757 4.701 4.701 0 0 0 .966-3.457l-1.191-9.664a1.196 1.196 0 0 0-.441-.801 1.185 1.185 0 0 0-.881-.251l-22.544 2.715a1.191 1.191 0 0 0-1.036 1.327l1.191 9.675Zm2.37-.263-1.024-8.479 20.09-2.428 1.013 8.479a2.307 2.307 0 0 1-2.001 2.56l-15.541 1.877a2.288 2.288 0 0 1-2.537-2.009ZM170.15 335.554a4.675 4.675 0 0 0 4.633 4.126l.619-.036 15.482-1.878c2.558-.311 4.38-2.645 4.073-5.214l-1.191-9.675a1.193 1.193 0 0 0-1.322-1.041l-22.449 2.715a1.19 1.19 0 0 0-1.036 1.328l1.191 9.675Zm2.37-.263-1.024-8.479 20.126-2.452 1.024 8.479a2.293 2.293 0 0 1-2.001 2.547l-15.589 1.902a2.242 2.242 0 0 1-1.687-.461 2.263 2.263 0 0 1-.849-1.536Z" clip-rule="evenodd"/><path fill="#093F68" d="M220.942 324.551a1.193 1.193 0 0 1-1.262-1.124 1.197 1.197 0 0 1 1.119-1.268l15.22-1.841a1.2 1.2 0 0 1 1.328 1.058 1.202 1.202 0 0 1-1.054 1.333l-15.208 1.842h-.143ZM201.626 354.318a23.626 23.626 0 0 1-7.146-1.196 1.2 1.2 0 0 1-.449-2.024 1.19 1.19 0 0 1 1.164-.26 18.566 18.566 0 0 0 19.185-4.186 28.885 28.885 0 0 0 6.312-8.491 1.19 1.19 0 0 1 1.572-.61c.602.268.874.974.607 1.579-.071.227-6.847 15.188-21.245 15.188Z"/><path fill="#FFC9B0" d="m198.684 327.577-5.466.478 5.466-.478Z"/><path fill="#093F68" d="M193.218 329.251a1.202 1.202 0 0 1-.92-1.967c.204-.244.496-.397.813-.425l5.454-.466a1.192 1.192 0 0 1 1.015 1.955 1.189 1.189 0 0 1-.813.425l-5.454.478h-.095Z"/><path fill="#080C20" d="M156.574 345.911H62.027a3.83 3.83 0 0 0-3.173 1.681 3.866 3.866 0 0 0-.4 3.581l25.57 66.124h102.811l-26.689-68.958a3.845 3.845 0 0 0-3.572-2.428Z"/><path fill="#093F68" fill-rule="evenodd" d="M84.047 418.493h102.776a1.19 1.19 0 0 0 .964-.526c.221-.324.27-.735.131-1.101l-26.688-68.958a5.003 5.003 0 0 0-4.68-3.193H62.027a5.032 5.032 0 0 0-4.135 2.221 5.075 5.075 0 0 0-.521 4.679l25.569 66.112c.176.46.616.764 1.107.766Zm101.037-2.392H84.869l-25.307-65.406a2.665 2.665 0 0 1 .3-2.441 2.64 2.64 0 0 1 2.165-1.147h94.547a2.642 2.642 0 0 1 2.465 1.674l26.045 67.32Z" clip-rule="evenodd"/><path fill="#080C20" d="m152.846 352.297-85.317-.096 24.116 61.305 85.019.083-23.818-61.292Z"/><path fill="#093F68" fill-rule="evenodd" d="m91.645 414.714 85.019.083a1.19 1.19 0 0 0 .977-.562c.224-.326.273-.742.131-1.112l-23.818-61.304a1.193 1.193 0 0 0-1.108-.766l-85.317-.083a1.187 1.187 0 0 0-.988.526 1.2 1.2 0 0 0-.12 1.112l24.117 61.352c.18.455.62.754 1.107.754Zm83.28-2.309-82.47-.083-23.175-58.913 82.756.084 22.889 58.912Z" clip-rule="evenodd"/><path fill="#093F68" fill-rule="evenodd" d="M137.317 365.846a6.67 6.67 0 0 0 6.168 4.151c3.648-.019 6.611-2.963 6.67-6.625a6.698 6.698 0 0 0-4.068-6.239 6.647 6.647 0 0 0-7.291 1.406 6.718 6.718 0 0 0-1.479 7.307Zm1.882-2.554a4.296 4.296 0 0 1 4.286-4.286c2.383.02 4.301 1.973 4.288 4.366-.033 2.369-1.967 4.267-4.327 4.245-2.36-.022-4.258-1.955-4.247-4.325Z" clip-rule="evenodd"/><path fill="#093F68" d="M148.964 378.536a1.189 1.189 0 0 1-.56-.143l-30.749-16.744-21.96 16.6c-.341.259-.793.315-1.186.148a1.2 1.2 0 0 1-.256-2.061l22.628-17.066c.372-.283.875-.32 1.286-.096l31.416 17.066a1.198 1.198 0 0 1-.572 2.248l-.047.048Z"/><rect width="233.799" height="11.134" x="54.179" y="430.225" fill="#093F68" rx="3.53"/><path fill="#093F68" fill-rule="evenodd" d="M58.455 442.555h225.32c2.981 0 5.4-2.423 5.406-5.417v-2.679c-.006-2.996-2.423-5.423-5.406-5.43H58.455c-2.984.007-5.4 2.434-5.407 5.43v2.679c.006 2.994 2.425 5.417 5.407 5.417Zm-3.025-8.096a3.031 3.031 0 0 1 3.025-3.038h225.32c.802 0 1.571.32 2.138.89a3.04 3.04 0 0 1 .886 2.148v2.679a3.03 3.03 0 0 1-3.024 3.025H58.455a3.03 3.03 0 0 1-3.025-3.025v-2.679Z" clip-rule="evenodd"/><path fill="#093F68" d="M236.138 442.842a1.193 1.193 0 0 1-1.191-1.196v-50.433c0-.66.533-1.196 1.191-1.196s1.191.536 1.191 1.196v50.433c0 .661-.533 1.196-1.191 1.196ZM131.707 378.333l-4.942 7.642-1.524 6.554.631.478 5.419-4.162 5.311-7.247-4.895-3.265Z"/><path fill="#093F68" fill-rule="evenodd" d="M125.157 393.964c.206.155.457.239.715.239.27.008.534-.076.75-.239l5.431-4.162.238-.239 5.264-7.224a1.2 1.2 0 0 0-.298-1.71l-4.895-3.265a1.184 1.184 0 0 0-.893-.179 1.192 1.192 0 0 0-.762.526l-4.942 7.642a1.363 1.363 0 0 0-.167.383l-1.512 6.554c-.095.45.076.915.44 1.196l.631.478Zm1.727-3.241.989-4.27 4.204-6.458 2.846 1.914-4.466 6.099-3.573 2.715Z" clip-rule="evenodd"/><path fill="#080C20" d="M153.584 378.118s.453-10.656-3.572-11.78c-4.026-1.125-12.291-3.373-14.529 0-2.239 3.372-7.825 9.902-6.265 13.597 1.56 3.696 16.768 11.745 16.768 11.745l17.769 21.527 19.626-21.934-29.797-13.155Z"/><path fill="#093F68" fill-rule="evenodd" d="M162.873 413.912c.219.264.54.421.882.431.35.006.686-.142.917-.407l19.626-21.921c.254-.287.356-.678.274-1.053a1.195 1.195 0 0 0-.691-.849l-29.058-12.761c.048-3.026-.214-10.967-4.466-12.163-4.252-1.195-13.088-3.659-15.839.479a68.305 68.305 0 0 1-1.382 1.973l-.274.382c-2.735 3.792-6.282 8.712-4.715 12.379 1.619 3.791 14.076 10.608 17.101 12.222l17.625 21.288Zm-26.402-46.953c.619-.873 2.025-1.195 3.716-1.195 3.209.169 6.387.719 9.467 1.638 2.144.598 2.87 6.554 2.704 10.584-.042.511.245.993.714 1.196l28.284 12.426-17.601 19.673-16.887-20.403a1.47 1.47 0 0 0-.358-.299c-5.728-3.037-15.243-8.718-16.232-11.146-.988-2.428 2.608-7.439 4.764-10.428l.239-.336c.445-.624.856-1.201 1.19-1.71Z" clip-rule="evenodd"/><path fill="#093F68" d="m144.414 359.461-11.325 17.066s1.81 3.026 4.68 2.858l11.195-17.209s-2.62-3.887-4.55-2.715Z"/><path fill="#093F68" fill-rule="evenodd" d="M132.066 377.079c.105.172 2.116 3.454 5.465 3.454l.262-.012c.373-.024.712-.224.917-.538l11.254-17.102a1.2 1.2 0 0 0 0-1.339c-.333-.491-3.394-4.82-6.205-3.098a.97.97 0 0 0-.369.359l-11.325 16.995c-.247.39-.247.888 0 1.279l.001.002Zm5.072 1.027a4.488 4.488 0 0 1-2.596-1.675l10.635-15.989c.571 0 1.583.837 2.381 1.829l-10.42 15.835Z" clip-rule="evenodd"/><path fill="#093F68" d="m126.444 391.213-2.406 3.588 2.406-3.588ZM124.038 395.997c-.238.001-.47-.07-.667-.203a1.2 1.2 0 0 1-.322-1.651l2.382-3.588a1.19 1.19 0 0 1 1.656-.322 1.2 1.2 0 0 1 .321 1.662l-2.382 3.588a1.188 1.188 0 0 1-.988.514Z"/><path fill="#080C20" d="M198.684 374.637s1.882-8.754 6.109-11.325c4.228-2.571 29.94-6.267 35.085-1.842a17.764 17.764 0 0 1 5.585 11.254l-46.779 1.913Z"/><path fill="#093F68" fill-rule="evenodd" d="M197.767 375.415c.229.269.565.422.917.418l46.779-1.913a1.201 1.201 0 0 0 1.143-1.28 18.937 18.937 0 0 0-5.954-12.079c-5.621-4.82-31.869-1.1-36.478 1.722-4.572 2.8-6.542 11.59-6.655 12.093l-.002.01c-.081.364.012.744.25 1.029Zm7.646-11.087c2.846-1.734 14.91-3.707 23.937-3.707 4.514 0 8.277.49 9.754 1.758a16.257 16.257 0 0 1 4.989 9.197l-43.861 1.806c.822-2.859 2.608-7.487 5.181-9.054Z" clip-rule="evenodd"/><path fill="#080C20" d="m266.149 441.646-12.385-67.511c-.632-.753-.989-1.196-.989-1.196a12.228 12.228 0 0 0-8.491-3.432h-47.541c-1.298 0-6.086-.622-13.755 5.836-11.076 9.34-26.796 21.073-35.072 29.038l7.074 35.878c1.393.335 24.08-10.082 24.08-10.082l2.239 11.421 84.84.048Z"/><path fill="#093F68" fill-rule="evenodd" d="M181.309 442.842h84.804c.357.006.698-.149.928-.422.231-.274.328-.637.263-.989l-12.373-67.547a1.202 1.202 0 0 0-.262-.55l-.562-.629a28.45 28.45 0 0 0-.51-.567 13.367 13.367 0 0 0-9.313-3.767h-47.851l-.014-.001c-1.857-.048-6.745-.175-14.217 6.112-4.144 3.504-9.015 7.415-13.779 11.194l-1.29 1.036c-7.522 6.043-15.14 12.163-20.063 16.903a1.2 1.2 0 0 0-.345 1.089l7.074 35.878c.09.46.439.824.893.933l.048.001c.529.012 2.389.055 23.425-9.569l1.953 9.938c.115.566.616.969 1.191.957Zm83.411-2.392h-82.435l-2.084-10.416a1.195 1.195 0 0 0-.621-.832 1.184 1.184 0 0 0-1.034-.029c-9.111 4.197-19.376 8.682-22.627 9.747l-6.705-34.085c5.144-4.867 13.052-11.194 20.71-17.305l.282-.226c4.663-3.72 9.458-7.546 13.544-10.992 6.62-5.577 10.825-5.566 12.515-5.562l.133.001h47.91a10.98 10.98 0 0 1 7.598 3.025l.762.897 12.052 65.777Z" clip-rule="evenodd"/><path fill="#093F68" d="M223.8 376.156h42.587a13.076 13.076 0 0 1 10.083 4.399 13.194 13.194 0 0 1 3.196 10.563l-5.466 50.528h-72.384l5.502-50.528c1.052-8.395 8.059-14.756 16.482-14.962Z"/><path fill="#093F68" fill-rule="evenodd" d="M201.816 442.842H274.2a1.193 1.193 0 0 0 1.179-1.064l5.466-50.541a14.39 14.39 0 0 0-3.497-11.481 14.26 14.26 0 0 0-10.961-4.796h-42.563c-9.034.212-16.556 7.024-17.697 16.026l-5.49 50.541a1.19 1.19 0 0 0 1.179 1.315Zm71.312-2.392H203.15l5.359-49.213c.98-7.787 7.478-13.687 15.291-13.885h42.587a11.888 11.888 0 0 1 9.191 4.003 11.994 11.994 0 0 1 2.897 9.631l-5.347 49.464Z" clip-rule="evenodd"/><path fill="#080C20" d="M230.315 376.156h42.598a13.076 13.076 0 0 1 10.075 4.404 13.194 13.194 0 0 1 3.192 10.558l-5.466 50.528h-72.372l5.467-50.528c1.053-8.404 8.073-14.767 16.506-14.962Z"/><path fill="#093F68" fill-rule="evenodd" d="M208.342 442.842h72.372a1.193 1.193 0 0 0 1.215-1.028l5.466-50.541a14.682 14.682 0 0 0-3.573-11.529 14.384 14.384 0 0 0-10.909-4.784h-42.598c-9.032.213-16.55 7.026-17.685 16.026l-5.467 50.541a1.19 1.19 0 0 0 1.179 1.315Zm71.312-2.392h-69.99l5.324-49.213c.987-7.797 7.502-13.699 15.327-13.885h42.598a12.04 12.04 0 0 1 9.135 3.959 12.317 12.317 0 0 1 2.953 9.675l-5.347 49.464Z" clip-rule="evenodd"/><path fill="#080C20" d="m147.916 404.393-49.709 5.884s-11.79-11.553-14.29-11.111c-2.502.443.166 9.089.166 9.089s-8.825-5.979-10.385-.837c-1.56 5.143-1.19 14.758 1 17.676C76.89 428.012 86 429.161 100.9 428.3l52.697 4.209-5.68-28.116Z"/><path fill="#093F68" fill-rule="evenodd" d="M153.489 433.705h.095a1.19 1.19 0 0 0 .882-.406c.246-.281.348-.662.274-1.029l-5.669-28.117a1.192 1.192 0 0 0-1.298-.956l-49.185 5.836c-4.632-4.497-12.302-11.505-14.898-11.027a2.18 2.18 0 0 0-1.489 1.053c-.881 1.459-.512 4.413 0 6.733-2.096-1.053-5.05-2.165-7.217-1.387a3.892 3.892 0 0 0-2.381 2.678c-1.644 5.382-1.358 15.428 1.19 18.753 2.549 3.325 11.6 4.556 27.082 3.671l52.614 4.198Zm-52.507-6.601h-.131c-19.912 1.148-24.211-1.543-25.14-2.739-1.87-2.452-2.323-11.601-.81-16.6.1-.516.462-.942.953-1.124 1.822-.634 5.645 1.256 7.633 2.607.418.287.971.277 1.379-.024.408-.302.58-.829.432-1.315-1.025-3.217-1.441-6.698-1.025-7.535 1.68.371 8.015 5.777 13.1 10.764.258.255.618.378.977.335l48.625-5.765 5.133 25.474-51.126-4.078Z" clip-rule="evenodd"/><path fill="#093F68" d="M179.07 431.421a1.196 1.196 0 0 1-.524-2.26l17.006-8.384a1.185 1.185 0 0 1 1.211.051 1.2 1.2 0 0 1-.151 2.09l-17.006 8.443a1.19 1.19 0 0 1-.536.06ZM97.302 398.401a1.192 1.192 0 0 1-1.19-.813l-12.065-35.735a1.2 1.2 0 0 1 .188-1.228 1.19 1.19 0 0 1 2.063.462l11.79 34.886 24.33-.909c.658 0 1.191.536 1.191 1.196 0 .661-.533 1.196-1.191 1.196l-25.211.945h.095Z"/><path fill="#093F68" d="M106.424 394.203a1.19 1.19 0 0 1-1.119-.765l-5.526-14.675a1.197 1.197 0 0 1 .691-1.542 1.189 1.189 0 0 1 1.536.693l5.526 14.675c.112.296.102.625-.027.915-.13.289-.368.515-.664.627a1.261 1.261 0 0 1-.417.072Z"/><path fill="#093F68" fill-rule="evenodd" d="M98.207 429.041h8.217c.658 0 1.191-.535 1.191-1.196v-18.908c0-.66-.533-1.196-1.191-1.196h-8.217c-.658 0-1.19.536-1.19 1.196v18.908c0 .661.532 1.196 1.19 1.196Zm7.026-2.392h-5.835v-16.516h5.835v16.516Z" clip-rule="evenodd"/><path fill="#093F68" fill-rule="evenodd" d="M96.6 418.134c0 3.17 2.559 5.741 5.716 5.741s5.716-2.571 5.716-5.741c0-3.17-2.559-5.741-5.716-5.741s-5.717 2.571-5.717 5.741Zm2.381 0a3.342 3.342 0 0 1 3.335-3.349v.012a3.34 3.34 0 0 1 3.334 3.337 3.342 3.342 0 0 1-3.334 3.349 3.342 3.342 0 0 1-3.335-3.349Z" clip-rule="evenodd"/><path fill="#093F68" d="M164.636 401.642a9.578 9.578 0 0 1-2.108-.227 10.79 10.79 0 0 1-6.443-4.461 1.202 1.202 0 0 1 .381-1.651 1.191 1.191 0 0 1 1.644.383 8.443 8.443 0 0 0 4.954 3.397c2.382.526 5.097-.192 7.979-2.105a8.752 8.752 0 0 0 4.133-5.681c.714-3.947-1.942-7.666-1.977-7.702a1.204 1.204 0 0 1 .833-1.906c.425-.047.843.137 1.096.483.131.191 3.275 4.556 2.382 9.567a11.023 11.023 0 0 1-5.181 7.284 13.968 13.968 0 0 1-7.693 2.619ZM163.755 436.994c-.515 0-.972-.333-1.132-.825l-11.516-35.34a1.19 1.19 0 1 1 2.263-.742l11.516 35.34a1.196 1.196 0 0 1-.75 1.507 1.371 1.371 0 0 1-.381.06Z"/><path fill="#093F68" fill-rule="evenodd" d="M73.126 323.642h63.476c.658 0 1.191-.535 1.191-1.196v-52.179c0-.66-.533-1.196-1.191-1.196H73.126c-.657 0-1.19.536-1.19 1.196v52.179c0 .661.533 1.196 1.19 1.196Zm62.285-2.392H74.317v-49.787h61.094v49.787Z" clip-rule="evenodd"/><path fill="#093F68" fill-rule="evenodd" d="M87.036 307.975h26.2c.658 0 1.191-.535 1.191-1.196v-26.31c0-.661-.533-1.196-1.191-1.196h-26.2c-.657 0-1.19.535-1.19 1.196v26.31c0 .661.533 1.196 1.19 1.196Zm25.009-2.391H88.227v-23.919h23.818v23.919Z" clip-rule="evenodd"/><path fill="#093F68" fill-rule="evenodd" d="M97.195 300.042c.01 8.67 7.016 15.69 15.648 15.683a15.603 15.603 0 0 0 11.062-4.616 15.734 15.734 0 0 0 4.563-11.123c-.02-8.669-7.032-15.682-15.664-15.666-8.633.015-15.62 7.053-15.61 15.722Zm3.39-5.099a13.255 13.255 0 0 1 12.258-8.22c7.295.014 13.211 5.938 13.243 13.263.02 5.39-3.199 10.259-8.152 12.333a13.211 13.211 0 0 1-14.462-2.86 13.35 13.35 0 0 1-2.887-14.516ZM271.913 358.839h40.908c.316 0 .619-.126.842-.35.223-.225.349-.529.349-.846v-53.674c0-.66-.533-1.196-1.191-1.196h-40.908c-.658 0-1.191.536-1.191 1.196v53.674c0 .661.533 1.196 1.191 1.196Zm39.717-2.392h-38.526v-51.282h38.526v51.282Z" clip-rule="evenodd"/><path fill="#093F68" fill-rule="evenodd" d="M279.749 352.046h24.95a1.19 1.19 0 0 0 .988-.538c.221-.328.265-.745.119-1.112l-12.48-30.629a1.191 1.191 0 0 0-2.204 0l-12.468 30.629a1.198 1.198 0 0 0 1.095 1.65Zm23.211-2.392h-21.436l10.718-26.311 10.718 26.311Z" clip-rule="evenodd"/><path fill="#093F68" fill-rule="evenodd" d="M279.749 329.251H301.4c.658 0 1.191-.535 1.191-1.196v-17.843c0-.661-.533-1.196-1.191-1.196h-21.651c-.657 0-1.191.535-1.191 1.196v17.843c0 .661.534 1.196 1.191 1.196Zm20.46-2.392h-19.221l-.048-15.451h19.269v15.451ZM258.658 289.079h25.819c.658 0 1.191-.535 1.191-1.195v-19.53c0-.661-.533-1.196-1.191-1.196h-25.819c-.657 0-1.191.535-1.191 1.196v19.53c0 .66.534 1.195 1.191 1.195Zm24.628-2.391h-23.437V269.55h23.437v17.138Z" clip-rule="evenodd"/><path fill="#093F68" d="M266.149 281.665a1.201 1.201 0 0 1-.476-2.297l5.418-2.392a1.19 1.19 0 0 1 1.132.108l2.548 1.71 4.002-5.74a1.189 1.189 0 0 1 2.098.14 1.2 1.2 0 0 1-.145 1.223l-4.669 6.733c-.37.53-1.093.668-1.631.311l-2.989-1.997-4.764 2.105a1.098 1.098 0 0 1-.524.096Z"/><path fill="#080C20" d="M129.809 171.761c4.93 6.163-8.559 18.829-14.921 11.857-7.488-8.196 10.166-17.802 14.921-11.857Z"/><path fill="#093F68" fill-rule="evenodd" d="M114.068 184.35a7.04 7.04 0 0 0 5.389 2.404 12.528 12.528 0 0 0 7.772-3.257c3.946-3.365 6.395-8.709 3.433-12.414-1.52-1.901-4.111-2.644-7.39-2.076-4.198.721-9.456 3.825-10.931 8.13a6.881 6.881 0 0 0 1.727 7.213Zm9.565-13.223a10.16 10.16 0 0 1 1.661-.153 4.538 4.538 0 0 1 3.651 1.432c2.066 2.601-.043 6.753-3.148 9.398-3.104 2.644-7.422 3.988-10.111 1.038a4.798 4.798 0 0 1-1.269-5.027c1.039-3.038 5.084-5.967 9.216-6.688ZM56.536 14.936c.116.015.234.015.35 0 .252.006.5-.075.7-.23l2.284-1.956c.398-.332.507-.898.262-1.355-.58-1.06-5.739-10.349-10.603-9.321-2.59.546-3.356 1.814-3.542 2.797a3.715 3.715 0 0 0 1.509 3.606c.489.268 1.016.46 1.563.569 2.066.568 5.914 1.628 6.755 5.114.091.365.364.659.722.776ZM49.999 4.194h.317c2.197 0 5.466 4.065 7.466 7.463l-.393.328c-1.717-3.442-5.656-4.543-7.701-5.114l-.039-.011c-.175-.046-.37-.11-.536-.164-.186-.06-.336-.11-.382-.11a1.606 1.606 0 0 1-.59-1.3c.087-.47.765-.863 1.858-1.092Z" clip-rule="evenodd"/><path fill="#080C20" d="M57.607 129.744h24.104c7.39 0 14.477 2.934 19.703 8.158a27.853 27.853 0 0 1 8.161 19.697v49.798H29.743v-49.809c.006-15.38 12.48-27.844 27.864-27.844Z"/><path fill="#093F68" fill-rule="evenodd" d="M29.743 208.489h79.876a1.092 1.092 0 0 0 1.049-1.092v-49.809c-.018-15.979-12.974-28.925-28.957-28.937H57.66a28.982 28.982 0 0 0-20.5 8.462 28.962 28.962 0 0 0-8.511 20.475v49.809c0 .603.49 1.092 1.093 1.092Zm78.782-2.185H30.836l.055-48.716c.018-14.771 11.995-26.74 26.77-26.752h24.05c14.793-.012 26.796 11.963 26.814 26.752v48.716Z" clip-rule="evenodd"/><path fill="#093F68" d="M95.069 185.825a1.093 1.093 0 0 1-1.093-1.093V145.84a1.093 1.093 0 0 1 2.186 0v38.86a1.093 1.093 0 0 1-1.093 1.125ZM46.6 208.489a1.093 1.093 0 0 1-1.094-1.092V145.84a1.093 1.093 0 0 1 2.186 0v61.524a1.093 1.093 0 0 1-1.093 1.125Z"/><path fill="#093F68" d="M85.242 159.303H54.12l-7.52 7.267v40.827h46.162V166.57l-7.52-7.267Z"/><path fill="#093F68" fill-rule="evenodd" d="M46.6 208.489h46.162a1.092 1.092 0 0 0 1.094-1.06v-40.826a1.093 1.093 0 0 0-.328-.787l-7.532-7.267a1.094 1.094 0 0 0-.754-.306H54.12a1.094 1.094 0 0 0-.754.306l-7.532 7.267c-.211.207-.33.491-.328.787v40.794c0 .603.49 1.092 1.093 1.092Zm45.07-2.185H47.691V167.04l6.876-6.644h30.225l6.876 6.644v39.264Z" clip-rule="evenodd"/><path fill="#093F68" d="M54.12 162.319a1.093 1.093 0 0 1-1.093-1.092v-31.483a1.093 1.093 0 1 1 2.186 0v31.483c0 .603-.49 1.092-1.093 1.092ZM85.416 162.319a1.093 1.093 0 0 1-1.093-1.092v-31.483a1.093 1.093 0 1 1 2.187 0v31.483c0 .603-.49 1.092-1.094 1.092Z"/><path fill="#080C20" d="M23.774 120.837c1.181 2.612 3.706 3.475 8.1 3.279 9.445-.437 19 0 28.422 0h52.154c3.104 0 4.7-1.519 4.875-4.656.776-13.517 0-26.838-.885-40.312-.744-12.13-2.394-24.566-8.505-35.308C96.14 23.077 64.549 13.613 50.873 31.37c0 0-9.761-3.278-19.02 8.152-7.587 9.344-8.308 21.758-8.44 33.243l-.491 42.695a13.203 13.203 0 0 0 .852 5.376Z"/><path fill="#093F68" fill-rule="evenodd" d="M22.736 121.285c1.487 3.29 4.657 3.956 7.827 3.956.448 0 .863-.022 1.312-.054 6.362-.295 12.877-.208 19.184-.121 3.083.088 6.154.088 9.226.088h52.154c3.695-.011 5.75-1.967 5.968-5.683.777-13.561-.065-27.21-.885-40.433-.7-11.42-2.285-24.598-8.647-35.777-7.029-12.349-21.207-21.288-35.286-22.271-9.609-.656-17.797 2.546-23.142 9.103-2.58-.514-11.227-1.41-19.458 8.742-7.761 9.529-8.548 21.965-8.68 33.876l-.491 42.706a13.971 13.971 0 0 0 .918 5.868Zm9.948-81.106c5.64-6.95 11.357-8.196 14.757-8.196 1.041-.02 2.08.113 3.083.393.442.148.93-.001 1.213-.371 4.864-6.316 12.571-9.442 21.699-8.819 13.38.93 26.858 9.43 33.537 21.167 6.122 10.808 7.641 23.102 8.374 34.85.874 13.746 1.65 26.718.874 40.159-.142 2.535-1.246 3.628-3.782 3.628H60.285c-1.529 0-3.058-.022-4.588-.044-1.533-.021-3.068-.043-4.605-.043-6.34-.088-12.888-.175-19.316.12-5.04.229-6.362-1.126-7.04-2.634a12.016 12.016 0 0 1-.732-4.95l.492-42.695c.131-11.529.864-23.55 8.188-32.565Z" clip-rule="evenodd"/><path fill="#080C20" d="M63.062 129.743h12.844v7.355a5.465 5.465 0 0 1-5.465 5.464h-1.935a5.465 5.465 0 0 1-5.466-5.464v-7.387l.022.032Z"/><path fill="#093F68" fill-rule="evenodd" d="M68.517 143.655h1.934a6.558 6.558 0 0 0 6.537-6.557v-7.387c0-.604-.489-1.093-1.093-1.093H63.051c-.604 0-1.093.489-1.093 1.093v7.387a6.558 6.558 0 0 0 6.559 6.557Zm-4.362-6.557v-6.284l10.68-.011v6.295a4.372 4.372 0 0 1-4.373 4.371h-1.934a4.372 4.372 0 0 1-4.373-4.371Z" clip-rule="evenodd"/><ellipse cx="32.771" cy="96.381" fill="#080C20" rx="12.484" ry="10.753"/><path fill="#093F68" fill-rule="evenodd" d="M19.194 96.38c0 6.536 6.089 11.847 13.577 11.847 7.477 0 13.577-5.311 13.577-11.846S40.259 84.535 32.77 84.535c-7.488 0-13.577 5.311-13.577 11.846Zm2.187 0c0-5.288 5.104-9.66 11.39-9.66 6.307 0 11.39 4.372 11.39 9.66 0 5.29-5.105 9.661-11.39 9.661-6.286 0-11.39-4.371-11.39-9.66Z" clip-rule="evenodd"/><ellipse cx="105.53" cy="96.381" fill="#080C20" rx="12.484" ry="10.753"/><path fill="#093F68" fill-rule="evenodd" d="M91.964 96.38c0 6.536 6.09 11.847 13.566 11.847 7.488 0 13.577-5.311 13.577-11.846s-6.154-11.846-13.577-11.846c-7.422 0-13.566 5.311-13.566 11.846Zm2.187 0c0-5.288 5.105-9.66 11.379-9.66 6.286 0 11.391 4.372 11.391 9.66 0 5.29-5.116 9.661-11.391 9.661-6.274 0-11.38-4.371-11.38-9.66Z" clip-rule="evenodd"/><path fill="#080C20" d="m92.38 64.483-12.178-15.65s-2.743 9.64-4.427 15.606l-19.206-.055-4.526-13.977-5.313 13.944H31.842v29.505a37.617 37.617 0 0 0 11.02 26.612 37.645 37.645 0 0 0 26.617 11.024c20.792 0 37.647-16.85 37.647-37.635v-29.33l-14.746-.044Z"/><path fill="#093F68" fill-rule="evenodd" d="M30.749 93.79c.018 21.378 17.345 38.705 38.73 38.729 21.381-.024 38.71-17.342 38.74-38.717V64.537c0-.603-.489-1.093-1.093-1.093h-14.21l-11.85-15.233a1.093 1.093 0 0 0-1.924.372s-2.503 8.742-4.154 14.697l-17.567-.054-4.285-13.223a1.093 1.093 0 0 0-1.006-.754 1.093 1.093 0 0 0-1.093.7l-5.06 13.244H31.841c-.604 0-1.093.49-1.093 1.093V93.79Zm2.186.023V65.4l13.795.044c.451-.001.855-.279 1.017-.7l4.22-11.047 3.574 11.026c.145.445.559.749 1.028.754l19.119.054c.505.02.957-.31 1.093-.797.642-2.272 1.438-5.075 2.177-7.676l1.66-5.853 10.898 13.999c.206.26.52.413.853.415h13.664v28.194a36.54 36.54 0 0 1-18.09 32.173 36.564 36.564 0 0 1-36.918 0 36.54 36.54 0 0 1-18.09-32.173Z" clip-rule="evenodd"/><path fill="#093F68" fill-rule="evenodd" d="M39.949 96.204a13.401 13.401 0 0 0 12.39 8.263c7.394-.012 13.384-6.005 13.39-13.397 0-5.42-3.266-10.306-8.276-12.379a13.405 13.405 0 0 0-14.606 2.91 13.394 13.394 0 0 0-2.898 14.603Zm2.019-9.419a11.216 11.216 0 0 1 10.37-6.916c6.183.012 11.193 5.02 11.205 11.2a11.211 11.211 0 0 1-6.919 10.368 11.218 11.218 0 0 1-12.227-2.428 11.21 11.21 0 0 1-2.43-12.224ZM74.24 96.204a13.401 13.401 0 0 0 12.39 8.263c7.395-.012 13.385-6.005 13.391-13.397 0-5.42-3.267-10.306-8.276-12.379a13.405 13.405 0 0 0-14.606 2.91 13.394 13.394 0 0 0-2.899 14.603Zm2.02-9.419a11.216 11.216 0 0 1 10.37-6.916 11.212 11.212 0 0 1 4.286 21.568 11.218 11.218 0 0 1-12.228-2.428 11.21 11.21 0 0 1-2.429-12.224Z" clip-rule="evenodd"/><ellipse cx="53.497" cy="91.802" fill="#093F68" rx="3.487" ry="3.486"/><ellipse cx="84.52" cy="91.07" fill="#093F68" rx="3.487" ry="3.486"/><path fill="#093F68" d="M68.856 103.713a22.38 22.38 0 0 1-3.4-.284 1.108 1.108 0 0 1-.66-1.805 1.11 1.11 0 0 1 1.042-.38c1.707.29 3.448.308 5.16.054.208-1.005-1.093-4.731-2.94-8.228a1.097 1.097 0 1 1 1.945-1.017c1.214 2.339 3.947 8.021 2.952 10.251a1.879 1.879 0 0 1-1.268 1.092c-.928.221-1.878.327-2.831.317ZM42.62 78.732a2.19 2.19 0 1 1-.273-4.37l16.495-2.055a2.203 2.203 0 1 1 .547 4.37l-16.495 2.055h-.274ZM94.26 79.18c-.13.011-.263.011-.394 0L77.47 76.197a2.188 2.188 0 1 1 .788-4.305l16.397 2.994a2.194 2.194 0 1 1-.383 4.37l-.011-.076ZM71.567 117.428a24.207 24.207 0 0 1-17.163-7.3 1.092 1.092 0 0 1 1.629-1.453c.415.459 10.341 11.266 25.7 4.218a1.095 1.095 0 0 1 .918 1.989 26.393 26.393 0 0 1-11.084 2.546ZM74.321 90.523c-.223 0-.44-.069-.623-.196a7.184 7.184 0 0 0-8.494 0 1.094 1.094 0 0 1-1.54-.197 1.093 1.093 0 0 1 .185-1.53 9.425 9.425 0 0 1 11.106 0c.495.345.617 1.024.273 1.52-.22.271-.557.422-.907.403ZM39.953 88.688c-.098.01-.197.01-.295 0l-7.182-1.967a1.093 1.093 0 1 1 .58-2.099l7.181 1.957a1.102 1.102 0 1 1-.284 2.185v-.076ZM99.474 88.688a1.102 1.102 0 1 1-.284-2.186l7.182-1.956a1.092 1.092 0 1 1 .568 2.098l-7.181 1.967a1.191 1.191 0 0 1-.285.077Z"/><path fill="#080C20" d="M35.799 43.6c5.848-1.53 18.583-9.41 27.984-10.437 9.401-1.027 31.548 1.53 38.162-2.032 6.613-3.563 8.646-16.272-1.017-25.43-9.663-9.157-37.166.514-54.952 10.928-17.785 10.415-24.42 12.458-24.17 19.583.252 7.125 8.112 8.906 13.993 7.387Z"/><path fill="#093F68" fill-rule="evenodd" d="M24.08 42.933a13.12 13.12 0 0 0 7.729 2.262 16.52 16.52 0 0 0 4.23-.514 63.987 63.987 0 0 0 9.073-3.737c5.805-2.688 13.03-6.032 18.759-6.655 4.596-.3 9.205-.351 13.806-.153l.44.008c9.831.173 19.914.35 24.309-2.019 3.192-1.715 5.444-5.355 6.023-9.726.842-6.24-1.651-12.61-6.81-17.484C91.035-5.14 62.187 5.865 45.386 15.7a748.06 748.06 0 0 1-8.142 4.663l-.756.429C25.14 27.175 20.45 29.819 20.68 36.256a8.392 8.392 0 0 0 3.4 6.677ZM76.738 4.87a52.804 52.804 0 0 1 12.429-1.748c4.329 0 8.34.885 11.019 3.376 4.635 4.393 6.876 10.12 6.143 15.584-.524 3.715-2.317 6.698-4.897 8.086-3.972 2.121-14.336 1.925-23.542 1.75l-.124-.002c-4.697-.205-9.4-.15-14.091.164-6.048.653-13.407 4.054-19.35 6.801l-.086.04a63.587 63.587 0 0 1-8.745 3.617c-3.728.973-7.696.438-10.1-1.355a6.217 6.217 0 0 1-2.526-5.005c-.186-5.081 3.87-7.387 14.692-13.506l1.378-.78c2.257-1.278 4.767-2.698 7.553-4.335A122.63 122.63 0 0 1 76.737 4.871Z" clip-rule="evenodd"/><path fill="#080C20" d="M44.806 207.473c-3.847 3.519-12.418 6.098-16.68-1.093-4.264-7.19-12.78-38.05-12.78-38.05l9.98-8.983 19.918 32.685c2.743 4.634 3.41 11.933-.438 15.441Z"/><path fill="#093F68" fill-rule="evenodd" d="M34.367 211.932c.543.078 1.091.118 1.64.12a14.91 14.91 0 0 0 9.543-3.759c4.23-3.869 3.629-11.748.634-16.862l-19.928-32.685a1.092 1.092 0 0 0-1.662-.24l-9.98 8.982a1.093 1.093 0 0 0-.296 1.168c.574 2.065 8.635 31.069 12.856 38.238a9.947 9.947 0 0 0 7.193 5.038Zm-5.302-6.131c-3.804-6.48-11.226-32.674-12.483-37.154l8.504-7.65 19.229 31.549c2.568 4.371 3.05 11.091-.23 14.129a12.353 12.353 0 0 1-9.38 3.093 7.65 7.65 0 0 1-5.64-3.967Z" clip-rule="evenodd"/><path fill="#080C20" d="m7.53 142.763 8.566-3.154L20 150.202l-8.565 3.153-3.903-10.592Z"/><path fill="#093F68" fill-rule="evenodd" d="M10.416 153.73c.16.428.57.712 1.028.71.132-.009.262-.042.382-.098l8.56-3.158c.563-.21.85-.835.645-1.399l-3.903-10.6a1.095 1.095 0 0 0-.568-.612 1.096 1.096 0 0 0-.831 0l-8.56 3.158c-.567.206-.86.832-.655 1.399l3.902 10.6Zm1.673-1.781-3.137-8.546 6.547-2.404 3.149 8.546-6.56 2.404Z" clip-rule="evenodd"/><path fill="#080C20" d="M15.543 139.808a9.548 9.548 0 0 0-.962-7.07c-3.28-5.825-6.395 1.628-9.718-9.835 0 0-4.547 6.786-2.678 12.326 2.033 6.087 6.318 7.213 6.318 7.213l7.04-2.634Z"/><path fill="#093F68" fill-rule="evenodd" d="M8.197 143.491c.091.011.183.011.274 0 .144.027.292.027.437 0l7.04-2.59c.314-.12.556-.378.655-.7.69-2.685.298-5.534-1.093-7.933a5.39 5.39 0 0 0-4.799-3.279h-.006c-1.54-.175-3.057-.347-4.814-6.403a1.093 1.093 0 0 0-.875-.776 1.092 1.092 0 0 0-1.093.47c-.197.295-4.82 7.3-2.81 13.288 2.198 6.568 6.877 7.923 7.084 7.923Zm-5.017-8.644c-1.072-3.202.306-6.972 1.399-9.278h.033c1.76 4.699 3.65 5.311 5.848 5.508a3.28 3.28 0 0 1 3.137 2.185 8.61 8.61 0 0 1 .984 5.716L8.46 141.24c-.908-.372-3.75-1.836-5.28-6.393Z" clip-rule="evenodd"/><path fill="#080C20" d="M12.307 153.031c1.542 5.387 3.597 11.66 6.045 18.293 4.865 13.223 9.98 24.347 13.37 29.505l3.684-1.355c-.788-6.141-4.11-17.922-8.986-31.144-2.449-6.633-4.952-12.742-7.27-17.845l-6.842 2.546Z"/><path fill="#093F68" fill-rule="evenodd" d="M30.803 201.452c.204.309.549.494.919.492.132-.01.262-.043.382-.099l3.695-1.366c.456-.178.737-.638.689-1.125-.82-6.459-4.285-18.479-9.04-31.374-2.362-6.426-4.887-12.622-7.303-17.922a1.094 1.094 0 0 0-1.377-.579l-6.843 2.525c-.538.2-.83.782-.667 1.333 1.596 5.584 3.695 11.944 6.067 18.369 4.733 12.895 9.915 24.282 13.478 29.746Zm-11.423-30.5c-2.219-6.01-4.198-11.944-5.739-17.244l4.93-1.825a255.005 255.005 0 0 1 6.821 16.851c4.504 12.195 7.827 23.55 8.811 30.041l-2.033.743c-3.455-5.617-8.297-16.37-12.79-28.566Z" clip-rule="evenodd"/><path fill="#080C20" d="M10.183 161.676a1.73 1.73 0 0 1 1.026-2.221l8.005-2.948a1.73 1.73 0 0 1 2.222 1.025l.28.763a1.73 1.73 0 0 1-1.025 2.222l-8.006 2.948a1.73 1.73 0 0 1-2.22-1.026l-.282-.763Z"/><path fill="#093F68" fill-rule="evenodd" d="M10.941 164.33c.394.181.823.274 1.257.273.351.003.7-.06 1.028-.185l7.663-2.831a2.981 2.981 0 0 0 1.672-1.552c.34-.717.372-1.542.087-2.283l-.163-.459a3.007 3.007 0 0 0-3.837-1.771l-7.652 2.842a2.982 2.982 0 0 0-1.771 3.824l.175.47a2.938 2.938 0 0 0 1.541 1.672Zm8.505-6.753a.864.864 0 0 1 .284-.055c.1.002.2.02.295.055a.795.795 0 0 1 .415.448l.175.47a.765.765 0 0 1 0 .601.733.733 0 0 1-.448.415l-7.652 2.841a.793.793 0 0 1-.612 0 .87.87 0 0 1-.415-.448l-.164-.47a.797.797 0 0 1 .47-1.027l7.652-2.83Z" clip-rule="evenodd"/><path fill="#080C20" d="M22.85 155.103a1.814 1.814 0 0 1 2.33 1.075l3.204 8.694a1.815 1.815 0 0 1-1.076 2.331l-.317.117a1.815 1.815 0 0 1-2.33-1.076l-3.204-8.694a1.815 1.815 0 0 1 1.076-2.331l.317-.116Z"/><path fill="#093F68" fill-rule="evenodd" d="M23.578 166.483a3.106 3.106 0 0 0 2.886 2.011 3.286 3.286 0 0 0 1.07-.186 3.082 3.082 0 0 0 1.826-3.956l-3.082-8.371a3.059 3.059 0 0 0-1.607-1.737 3.126 3.126 0 0 0-2.35-.099 3.073 3.073 0 0 0-1.826 3.956l3.083 8.382Zm-.503-10.338c.101-.015.204-.015.306 0a.858.858 0 0 1 .372.12.888.888 0 0 1 .47.503l3.104 8.305a.885.885 0 0 1-1.213 1.093.863.863 0 0 1-.46-.503l-3.082-8.37a.865.865 0 0 1 0-.678.92.92 0 0 1 .503-.47Z" clip-rule="evenodd"/><path fill="#080C20" d="M11.665 165.695a1.73 1.73 0 0 1 1.025-2.222l8.006-2.948a1.73 1.73 0 0 1 2.22 1.026l.282.763a1.73 1.73 0 0 1-1.026 2.221l-8.005 2.948a1.73 1.73 0 0 1-2.222-1.025l-.28-.763Z"/><path fill="#093F68" fill-rule="evenodd" d="M10.876 166.669a2.985 2.985 0 0 0 2.798 1.945c.336-.002.67-.064.984-.186l7.706-2.83a2.995 2.995 0 0 0 1.771-3.836l-.175-.459a3.006 3.006 0 0 0-3.837-1.77l-7.652 2.841a2.994 2.994 0 0 0-1.77 3.825l.175.47Zm10.056-5.136a.739.739 0 0 1 .274 0c.12 0 .24.026.35.076a.766.766 0 0 1 .415.448l.175.47a.797.797 0 0 1-.47 1.016l-7.707 2.842a.778.778 0 0 1-1.017-.481l-.175-.459a.797.797 0 0 1 0-.612.826.826 0 0 1 .449-.415l7.706-2.885Z" clip-rule="evenodd"/><path fill="#080C20" d="M13.135 169.702a1.73 1.73 0 0 1 1.026-2.221l8.005-2.948a1.73 1.73 0 0 1 2.221 1.025l.282.763a1.73 1.73 0 0 1-1.026 2.222l-8.006 2.947a1.73 1.73 0 0 1-2.22-1.025l-.282-.763Z"/><path fill="#093F68" fill-rule="evenodd" d="M13.903 172.351a2.9 2.9 0 0 0 1.247.273c.369.009.736-.054 1.082-.185l7.652-2.831a2.993 2.993 0 0 0 1.77-3.824l-.174-.47a2.995 2.995 0 0 0-3.826-1.771l-7.707 2.842a2.993 2.993 0 0 0-1.77 3.824l.174.47a2.951 2.951 0 0 0 1.552 1.672Zm8.505-6.786a.824.824 0 0 1 .273-.055c.317.01.597.208.71.503l.176.47a.786.786 0 0 1-.47 1.016l-7.652 2.841a.765.765 0 0 1-.601 0 .829.829 0 0 1-.416-.448l-.175-.47a.795.795 0 0 1 0-.611.875.875 0 0 1 .448-.416l7.707-2.83Z" clip-rule="evenodd"/><path fill="#080C20" d="M14.627 173.706a1.73 1.73 0 0 1 1.025-2.222l8.006-2.947a1.73 1.73 0 0 1 2.221 1.025l.281.763a1.73 1.73 0 0 1-1.025 2.221l-8.006 2.948a1.73 1.73 0 0 1-2.221-1.025l-.281-.763Z"/><path fill="#093F68" fill-rule="evenodd" d="M13.827 174.69a2.985 2.985 0 0 0 2.798 1.945c.351.002.7-.061 1.028-.186l7.652-2.83a2.974 2.974 0 0 0 1.77-3.825l-.174-.47a2.984 2.984 0 0 0-3.826-1.77l-7.652 2.841a2.983 2.983 0 0 0-1.76 3.825l.164.47Zm10.057-5.125a.784.784 0 0 1 .273 0 .808.808 0 0 1 .754.448l.164.469a.788.788 0 0 1-.47 1.017l-7.652 2.841a.784.784 0 0 1-.612 0 .83.83 0 0 1-.415-.448l-.175-.47a.798.798 0 0 1 .48-1.027l7.653-2.83Z" clip-rule="evenodd"/><path fill="#080C20" d="M123.25 155.282c-8.373-3.158-25.273-5.224-39.845 9.616-14.571 14.84-9.62 32.784 5.772 39.865 15.391 7.081 28.553 3.672 31.603-5.945 3.049-9.616-7.161-10.359-2.996-15.43 4.165-5.07 9.369.623 13.774-7.42 4.405-8.043.087-17.528-8.308-20.686Z"/><path fill="#093F68" fill-rule="evenodd" d="M88.729 205.758a38.837 38.837 0 0 0 16.047 3.879 22.041 22.041 0 0 0 8.931-1.65 14.143 14.143 0 0 0 8.111-8.742c1.804-5.759-.667-8.743-2.481-10.928-1.607-1.935-2.055-2.612-.766-4.197 1.509-1.857 3.116-1.978 5.149-2.12h.003c2.689-.196 5.999-.439 8.742-5.464a14.972 14.972 0 0 0 .94-12.577 16.557 16.557 0 0 0-9.751-9.661c-11.051-4.207-27.634-3.803-41.014 9.835-7.062 7.191-10.144 15.627-8.658 23.747 1.41 7.682 6.789 14.206 14.747 17.878Zm-4.526-40.095c8.308-8.469 17.906-11.54 26.465-11.54a34.868 34.868 0 0 1 12.21 2.164 14.407 14.407 0 0 1 8.483 8.382 12.87 12.87 0 0 1-.809 10.764c-2.171 4.024-4.386 4.185-6.948 4.37l-.015.001-.026.002c-2.147.163-4.563.347-6.664 2.927-2.499 3.043-.761 5.128.768 6.962l.008.01c1.738 2.087 3.531 4.24 2.077 8.818a12.02 12.02 0 0 1-6.898 7.409c-6.045 2.667-14.462 1.891-23.207-2.12-7.302-3.376-12.232-9.31-13.511-16.293-1.356-7.431 1.508-15.179 8.067-21.856Z" clip-rule="evenodd"/><path fill="#080C20" d="M98.796 161.369c.088.426.307.819.394 1.245a3.278 3.278 0 0 1-1.574 2.896 9.173 9.173 0 0 0-2.602 2.273 3.672 3.672 0 0 0 1.192 4.634 5.303 5.303 0 0 0 5.017.382c1.706-.699 3.52-2.109 5.16-1.289a8.743 8.743 0 0 1 1.574 1.344 5.282 5.282 0 0 0 7.226-.656 6.022 6.022 0 0 0 0-7.453c-2.318-2.863-.372-7.649-5.389-8.108-2.58-.251-11.686.918-10.998 4.732Z"/><path fill="#093F68" fill-rule="evenodd" d="M107.236 173.673a5.804 5.804 0 0 0 3.891 1.41l.503.011a6.417 6.417 0 0 0 4.373-2.186 7.125 7.125 0 0 0 0-8.84 7.303 7.303 0 0 1-1.181-3.202l-.001-.005c-.448-2.184-1.008-4.913-4.951-5.306-1.858-.186-8.778.383-11.26 3.093a3.277 3.277 0 0 0-.885 2.928c.059.272.14.539.24.798.064.14.112.287.143.437.12.623-.514 1.355-1.148 1.836l-.645.459a6.979 6.979 0 0 0-2.24 2.12 4.742 4.742 0 0 0 1.497 6.087 6.366 6.366 0 0 0 6.067.492c.426-.175.852-.383 1.29-.602 1.322-.71 2.251-1.07 2.973-.71.302.185.574.413.809.678.164.178.339.346.525.502Zm-.361-3.136a3.377 3.377 0 0 0-1.552-.371 7.935 7.935 0 0 0-3.422 1.136 8.4 8.4 0 0 1-1.093.536 4.255 4.255 0 0 1-3.968-.252 2.568 2.568 0 0 1-.875-3.191 5.166 5.166 0 0 1 1.596-1.442l.722-.514a4.161 4.161 0 0 0 1.978-3.978 5.155 5.155 0 0 0-.251-.797 3.547 3.547 0 0 1-.142-.448 1.092 1.092 0 0 1 .361-1.093c1.683-1.847 7.52-2.59 9.422-2.393 2.252.218 2.569 1.322 3.028 3.573a9.122 9.122 0 0 0 1.618 4.131 4.949 4.949 0 0 1 .055 6.065 4.17 4.17 0 0 1-2.886 1.388 3.775 3.775 0 0 1-3.203-1.257 5.349 5.349 0 0 0-1.388-1.093Z" clip-rule="evenodd"/><path fill="#093F68" d="M121.064 168.406a5.563 5.563 0 0 0-1.52 3.279 2.723 2.723 0 0 0 .831 2.273 2.952 2.952 0 0 0 1.847.546 7.924 7.924 0 0 0 4.668-1.738c1.749-1.344 4.668-5.147 1.957-6.972-2.471-1.584-6.22.864-7.783 2.612Z"/><path fill="#093F68" fill-rule="evenodd" d="M119.686 174.843a3.98 3.98 0 0 0 2.526.786 8.902 8.902 0 0 0 5.334-1.967c1.388-1.06 3.564-3.606 3.498-5.955a3.387 3.387 0 0 0-1.596-2.787c-3.017-2.021-7.236.568-9.193 2.754a6.655 6.655 0 0 0-1.804 3.978 3.76 3.76 0 0 0 1.235 3.191Zm.908-3.049a4.367 4.367 0 0 1 1.235-2.645l.044.011c1.541-1.694 4.7-3.497 6.362-2.404.378.205.616.598.623 1.027.044 1.355-1.541 3.311-2.635 4.153a6.56 6.56 0 0 1-4.001 1.519 1.985 1.985 0 0 1-1.158-.295 1.682 1.682 0 0 1-.47-1.366Z" clip-rule="evenodd"/><path fill="#080C20" d="M128.158 163.838c-.437-1.016-1.279-2.185-2.361-1.934-1.082.251-1.454 1.421-1.629 2.514-.503 2.841-.59 5.737-1.093 8.578a.876.876 0 0 0 .109.765c.141.118.32.18.503.175a5.893 5.893 0 0 0 5.357-3.126c.962-2.021-.055-5.026-.886-6.972Z"/><path fill="#093F68" fill-rule="evenodd" d="M123.567 175.007h.437a7.108 7.108 0 0 0 6.002-3.738c.907-1.825.623-4.393-.842-7.835-.809-1.891-2.263-2.841-3.575-2.59-1.311.251-2.142 1.377-2.492 3.355-.23 1.312-.369 2.605-.508 3.906l-.039.356-.022.207c-.146 1.356-.296 2.758-.546 4.109a1.902 1.902 0 0 0 .404 1.738c.321.302.741.477 1.181.492Zm1.727-10.437c.186-1.103.525-1.584.744-1.584v-.022c.317 0 .798.557 1.158 1.311 1.476 3.475 1.301 5.191.897 6.022a4.954 4.954 0 0 1-3.859 2.524c.24-1.388.393-2.798.535-4.153l.018-.171c.137-1.301.277-2.639.507-3.927Z" clip-rule="evenodd"/><path fill="#080C20" d="M85.1 173.214c-2.012.722-3.99 2.295-3.936 4.306.133.967.32 1.927.558 2.874.306 2.328-.984 4.95.317 6.895a5.052 5.052 0 0 0 3.891 1.804c2.187.185 4.766-.383 5.849-2.317.159-.42.417-.795.754-1.093.36-.182.756-.28 1.159-.284a4.078 4.078 0 0 0 3.137-2.481c.864-2.185-.656-4.524-2.186-6.065-1.815-1.879-4.635-4.098-7.38-4.076-.739.032-1.47.18-2.163.437Z"/><path fill="#093F68" fill-rule="evenodd" d="M85.843 190.218h.918c2.733 0 4.93-1.049 5.925-2.95.017-.031.038-.061.059-.091.047-.068.094-.136.094-.204.07-.147.154-.286.251-.416.146-.043.297-.069.448-.076h.274a5.16 5.16 0 0 0 3.99-3.158c.852-2.197.01-4.754-2.372-7.235-1.575-1.617-4.766-4.371-8.133-4.371a8.013 8.013 0 0 0-2.558.492c-2.197.787-4.734 2.656-4.668 5.355.033.648.143 1.29.328 1.912.098.393.186.754.24 1.093.061.825.02 1.654-.12 2.47l-.003.022c-.196 1.6-.407 3.329.615 4.862a5.978 5.978 0 0 0 4.712 2.295Zm-.339-16.031a6.066 6.066 0 0 1 1.836-.361v.055c2.657 0 5.477 2.612 6.592 3.737.82.853 2.645 3.027 1.913 4.907a2.963 2.963 0 0 1-2.274 1.803h-.207a3.089 3.089 0 0 0-1.4.426A3.006 3.006 0 0 0 90.97 186l-.11.219c-.852 1.518-3.05 1.912-4.81 1.759a4.066 4.066 0 0 1-3.06-1.322c-.58-.864-.438-2.044-.263-3.41.163-.997.2-2.01.11-3.016a9.704 9.704 0 0 0-.295-1.344 6.385 6.385 0 0 1-.252-1.421c-.065-1.464 1.585-2.688 3.214-3.278Z" clip-rule="evenodd"/><path fill="#080C20" d="M95.124 195.649a4.928 4.928 0 0 0 2 3.519 9.744 9.744 0 0 0 3.793 1.65c3.564.848 7.291.704 10.779-.415a4.258 4.258 0 0 0 1.738-.929 3.125 3.125 0 0 0 0-3.934 7.876 7.876 0 0 0-3.509-2.36c-2.482-1.028-2.766-5.049-6.187-5.158-1.476 0-2.307.95-3.28 1.89-1.574 1.53-1.64 1.312-3.76 1.322-1.87.011-1.64 3.202-1.574 4.415Z"/><path fill="#093F68" fill-rule="evenodd" d="M100.666 201.889c1.606.372 3.249.559 4.897.557a20.76 20.76 0 0 0 6.471-1.027 5.008 5.008 0 0 0 2.187-1.202 4.25 4.25 0 0 0 .087-5.355 8.985 8.985 0 0 0-3.979-2.721 4.996 4.996 0 0 1-1.88-1.978c-.962-1.442-2.154-3.201-4.69-3.278a4.982 4.982 0 0 0-3.76 1.891l-.306.306c-1.071 1.016-1.071 1.016-2.317 1.016h-.7a2.286 2.286 0 0 0-1.716.732c-1.119 1.183-.997 3.433-.93 4.652v.178a6.009 6.009 0 0 0 2.427 4.371 10.57 10.57 0 0 0 4.209 1.858Zm-4.132-9.562a.176.176 0 0 1 .142 0l.612-.044c1.804.011 2.285-.109 3.859-1.628l.328-.317c.874-.83 1.41-1.267 2.186-1.267 1.356.043 2.011.896 2.951 2.295a6.852 6.852 0 0 0 2.854 2.775 7.132 7.132 0 0 1 3.06 2c.596.722.645 1.749.121 2.524a3.27 3.27 0 0 1-1.301.656 19.073 19.073 0 0 1-10.188.393 8.598 8.598 0 0 1-3.378-1.453 3.836 3.836 0 0 1-1.574-2.71v-.164c-.099-1.694.022-2.721.328-3.06Z" clip-rule="evenodd"/><path fill="#080C20" d="M262.078 211.877v-27.748a20.37 20.37 0 0 0-5.977-14.414 20.402 20.402 0 0 0-14.428-5.965h-31.42a20.401 20.401 0 0 0-14.427 5.965 20.372 20.372 0 0 0-5.978 14.414v27.748h72.23Z"/><path fill="#093F68" fill-rule="evenodd" d="M189.848 213.028h72.23c.637 0 1.152-.516 1.152-1.151v-27.748c-.012-11.886-9.651-21.518-21.545-21.53h-31.432c-11.898.006-21.544 9.64-21.557 21.53v27.748c0 .635.516 1.151 1.152 1.151Zm71.078-2.303h-69.925v-26.596c.012-10.618 8.627-19.221 19.252-19.228h31.432c10.621.013 19.228 8.614 19.241 19.228v26.596Z" clip-rule="evenodd"/><path fill="#093F68" d="M207.062 213.028a1.152 1.152 0 0 1-1.152-1.151v-26.482a1.152 1.152 0 0 1 2.304 0v26.482c0 .635-.516 1.151-1.152 1.151ZM256.559 213.028a1.152 1.152 0 0 1-1.152-1.151v-26.482a1.152 1.152 0 0 1 2.305 0v26.482c0 .635-.516 1.151-1.153 1.151Z"/><path fill="#5DD0E5" d="M232.813 172.731c.265 12.998.265 25.94 0 38.374v-38.374Z"/><path fill="#093F68" d="M232.813 212.257a1.152 1.152 0 0 1-1.152-1.152c.276-12.434.276-25.33 0-38.328a1.152 1.152 0 0 1 2.304 0 888.696 888.696 0 0 1 0 38.432 1.152 1.152 0 0 1-1.152 1.048Z"/><path fill="#080C20" d="M225.854 159.145h12.731v7.99a5.609 5.609 0 0 1-5.611 5.607h-1.521a5.61 5.61 0 0 1-5.611-5.607v-7.99h.012Z"/><path fill="#093F68" fill-rule="evenodd" d="M231.453 173.882h1.521a6.762 6.762 0 0 0 6.764-6.747v-7.99c0-.636-.516-1.152-1.153-1.152h-12.731c-.636 0-1.152.516-1.152 1.152v7.99a6.76 6.76 0 0 0 6.751 6.747Zm-4.447-6.747v-6.839h10.427v6.839a4.457 4.457 0 0 1-4.459 4.444h-1.521a4.445 4.445 0 0 1-4.447-4.444Z" clip-rule="evenodd"/><path fill="#093F68" d="M221.902 75.798a25.217 25.217 0 0 1 7.132 2.303 19.909 19.909 0 0 0-5.991-6.666c9.505.069 19.379 1.98 26.914 7.783 12.87 9.901 9.218 23.51 7.178 37.177-1.071 7-2.615 13.92-3.905 20.874l-59.591 1.393s-2.016-14.438-2.304-26.55c.056-2.695.253-5.385.587-8.059.254-3.374.093-3.005-3.214-4.48-.519-.218-1.152-.517-1.245-1.058-.472-1.624 2.766-1.532 3.584-3.017a14.882 14.882 0 0 1-5.98-1.37 24.2 24.2 0 0 1 19.645-10.558l-4.678-2.982a1.75 1.75 0 0 1-.876-.967c-.15-.783.784-1.301 1.544-1.543 6.821-2.153 14.287-3.489 21.2-2.28Z"/><path fill="#093F68" fill-rule="evenodd" d="M192.487 138.823c.081.573.574.996 1.152.99h.023l59.625-1.266a1.151 1.151 0 0 0 1.152-.944 755.43 755.43 0 0 1 1.277-6.58l.118-.593.079-.402c.874-4.395 1.761-8.864 2.432-13.334.185-1.209.392-2.475.588-3.626v-.001c2.005-12.388 4.078-25.203-8.192-34.632-6.844-5.273-16.131-7.967-27.652-8.06a1.22 1.22 0 0 0-1.152.806 1.15 1.15 0 0 0 .437 1.29 18.573 18.573 0 0 1 3.457 3.166 28.746 28.746 0 0 0-3.779-.932c-6.153-1.083-13.458-.311-21.719 2.302-1.647.553-2.546 1.624-2.304 2.856.202.739.703 1.36 1.383 1.715l1.785 1.151a25.348 25.348 0 0 0-17.086 10.8 1.15 1.15 0 0 0-.15.944c.08.33.311.603.622.737.98.452 2.003.803 3.053 1.048a2.165 2.165 0 0 0-1.279 2.613 3.034 3.034 0 0 0 1.878 1.797l1.003.426a5.595 5.595 0 0 1 1.532.794 6.963 6.963 0 0 1 0 2.118c-.069.841-.15 1.67-.242 2.499a42.732 42.732 0 0 0-.345 5.63c.237 10.777 1.895 23.526 2.241 26.188.04.312.063.486.063.5Zm-3.295-40.262a4.416 4.416 0 0 1-.496-.254v-.046c.096-.055.216-.115.335-.174.154-.077.306-.153.403-.217a4.749 4.749 0 0 0 2.523-1.83 1.15 1.15 0 0 0-.979-1.728 13.835 13.835 0 0 1-4.206-.737 22.98 22.98 0 0 1 17.859-8.888 1.152 1.152 0 0 0 1.152-.83 1.151 1.151 0 0 0-.495-1.289l-4.609-2.982-.23-.16a2.74 2.74 0 0 1 .622-.277c7.961-2.499 14.874-3.258 20.635-2.234a23.845 23.845 0 0 1 6.798 2.303 1.153 1.153 0 0 0 1.544-1.578 21.097 21.097 0 0 0-3.722-4.847c9.471.53 17.145 3.028 22.906 7.438 11.17 8.597 9.299 20.172 7.319 32.427l-.003.018a331.644 331.644 0 0 0-.576 3.65c-.684 4.508-1.593 9.073-2.471 13.483l-.029.149-.001.002c-.414 2.095-.829 4.189-1.221 6.284l-57.608 1.255c-.461-3.534-1.913-15.336-2.132-25.41a40.09 40.09 0 0 1 .334-5.342c.092-.852.173-1.704.242-2.568.277-3.431-.034-3.972-2.915-5.192l-.979-.426Z" clip-rule="evenodd"/><ellipse cx="259.157" cy="134.045" fill="#080C20" rx="8.284" ry="9.245" transform="rotate(-1.25 259.157 134.045)"/><path fill="#093F68" fill-rule="evenodd" d="M252.596 141.471a8.951 8.951 0 0 0 6.59 2.948h.196a8.98 8.98 0 0 0 6.637-3.235 10.925 10.925 0 0 0 2.569-7.369c-.127-5.734-4.493-10.293-9.667-10.189a8.998 8.998 0 0 0-6.648 3.235 11.174 11.174 0 0 0 .323 14.61Zm6.383-15.474h.138c3.883 0 7.063 3.454 7.167 7.968a8.655 8.655 0 0 1-2.005 5.756 6.756 6.756 0 0 1-4.954 2.43 6.592 6.592 0 0 1-5.047-2.211 8.883 8.883 0 0 1-.253-11.513 6.651 6.651 0 0 1 4.954-2.43Z" clip-rule="evenodd"/><path fill="#080C20" d="M230.854 164.821c-18.181.391-34.934-21.657-35.314-39.538l4.355 1.555-.426-12.665s22.64-6.494 19.414-17.005c0 0 6.844 7.783 16.442 7.552 17.64-.437 24.449-5.25 24.449-5.25l.703 32.319c.38 17.88-11.453 32.64-29.623 33.032Z"/><path fill="#093F68" fill-rule="evenodd" d="M194.388 125.318c.392 18.099 17.352 40.654 35.982 40.654l.553.012a30.352 30.352 0 0 0 22.618-10.362 35.021 35.021 0 0 0 8.134-23.845l-.703-32.318a1.15 1.15 0 0 0-1.82-.921h-.002c-.132.09-6.911 4.63-23.802 5.042h-.438c-8.734 0-15.163-7.092-15.163-7.16a1.152 1.152 0 0 0-1.97 1.093 5.751 5.751 0 0 1-.53 4.605c-3.641 6.713-17.951 10.927-18.101 10.927a1.15 1.15 0 0 0-.829 1.151l.369 10.949-2.766-.978a1.15 1.15 0 0 0-1.532 1.151Zm36.052 38.352c-14.218 0-32.284-16.914-33.679-36.729l2.743.991c.361.127.763.067 1.071-.162a1.15 1.15 0 0 0 .473-.967l-.404-11.755c3.319-1.059 15.048-5.181 18.631-11.79a8.898 8.898 0 0 0 1.025-3.143c2.881 2.395 8.238 5.952 15.048 5.757 12.996-.311 20.243-2.971 23.308-4.456l.669 30.407a32.696 32.696 0 0 1-7.57 22.29 28.133 28.133 0 0 1-20.924 9.557h-.391Z" clip-rule="evenodd"/><ellipse cx="221.889" cy="128.573" fill="#093F68" rx="2.996" ry="2.994" transform="rotate(-1.25 221.889 128.573)"/><ellipse cx="250.729" cy="127.955" fill="#093F68" rx="2.996" ry="2.994"/><path fill="#093F68" d="M237.652 136.693c-.871 0-1.741-.062-2.604-.184a1.165 1.165 0 1 1 .346-2.303c1.395.201 2.811.201 4.205 0 0-1.013-1.152-4.006-2.661-6.746a1.147 1.147 0 0 1-.095-.879 1.152 1.152 0 0 1 2.111-.238c1.152 2.015 3.606 6.908 2.742 8.946a1.782 1.782 0 0 1-1.152 1.07c-.945.238-1.917.35-2.892.334Z"/><path fill="#080C20" d="M202.096 127.425s-8.065-5.296-12.132 1.842.265 19.055 13.261 15.279"/><path fill="#093F68" d="M198.478 146.422a10.661 10.661 0 0 1-8.722-4.006 12.556 12.556 0 0 1-.818-13.725 8.067 8.067 0 0 1 5.162-4.087c4.205-.99 8.434 1.75 8.607 1.865a1.152 1.152 0 0 1-1.268 1.923s-3.583-2.303-6.821-1.543a5.761 5.761 0 0 0-3.675 2.994 10.357 10.357 0 0 0 .622 11.122c2.374 3.016 6.395 3.88 11.315 2.452a1.152 1.152 0 0 1 .645 2.211 18.452 18.452 0 0 1-5.047.794ZM228.008 120.068h-13.399a2.304 2.304 0 1 1 0-4.606h13.388a2.303 2.303 0 1 1 0 4.606h.011ZM254.428 120.068H241.04a2.304 2.304 0 1 1 0-4.606h13.388a2.304 2.304 0 1 1 0 4.606ZM241.04 145.259h-8.066s-.46 8.06 4.367 8.348c3.192.195 3.699-8.348 3.699-8.348Z"/><path fill="#093F68" fill-rule="evenodd" d="M237.306 154.781h.173a2.92 2.92 0 0 0 1.994-.817c2.304-2.038 2.765-7.979 2.765-8.659a1.154 1.154 0 0 0-.311-.852 1.152 1.152 0 0 0-.841-.368h-8.066c-.636 0-1.152.515-1.152 1.151-.207 3.408.726 9.257 5.438 9.545Zm.162-2.326c-2.685-.172-3.192-4.087-3.272-6.044h5.611c-.265 2.176-.887 4.974-1.878 5.849a.627.627 0 0 1-.461.195Z" clip-rule="evenodd"/><path fill="#080C20" d="M347.189 77.64c-7.512-.863-15.808 2.096-21.73 6.252-9.067 6.356-13.826 16.119-14.84 26.907l-2.684 29.015c-1.325 14.253-4.92 30.269 8.468 40.078 6.913 5.078 15.704 6.908 24.265 7.657a81.854 81.854 0 0 0 31.696-3.075c8.227-2.625 20.313-7.714 21.488-17.604.646-5.457-2.592-10.523-4.228-15.785-3.457-11.064.299-23.027-.473-34.598-.795-11.939-11.003-37.672-27.099-33.481a5.98 5.98 0 0 1-2.477.391 5.083 5.083 0 0 1-2.304-1.439 18.166 18.166 0 0 0-10.082-4.317Z"/><path fill="#093F68" fill-rule="evenodd" d="M340.553 188.642c2.857.242 5.645.369 8.388.369a78.055 78.055 0 0 0 23.757-3.443c13.838-4.421 21.339-10.661 22.272-18.56.495-4.153-1.069-8.018-2.577-11.746l-.004-.009-.11-.271c-.564-1.399-1.14-2.825-1.584-4.231-2.016-6.574-1.474-13.413-.864-20.643a91.78 91.78 0 0 0 .45-13.69c-.646-9.084-6.406-25.203-15.624-31.87a14.87 14.87 0 0 0-12.881-2.682l-.507.138c-.474.182-.98.264-1.486.242a3.886 3.886 0 0 1-1.602-.979l-.196-.172a19.235 19.235 0 0 0-10.669-4.606c-8.422-.955-17.156 2.706-22.513 6.46-8.93 6.251-14.184 15.853-15.336 27.747l-2.696 28.968a256.288 256.288 0 0 1-.364 3.537l-.143 1.333c-1.406 12.722-2.984 27.149 9.436 36.245 6.084 4.409 13.988 6.954 24.853 7.863ZM326.082 84.837c4.505-3.132 11.452-6.195 18.434-6.195.867.003 1.732.053 2.593.15a16.931 16.931 0 0 1 9.436 3.995l.184.161a5.614 5.614 0 0 0 2.696 1.555c.85.1 1.711-.002 2.512-.3l.45-.126a12.68 12.68 0 0 1 10.991 2.302c8.676 6.24 14.103 21.519 14.679 30.143.174 4.457.02 8.921-.461 13.355l-.009.106c-.585 7.094-1.19 14.436.977 21.402.461 1.479 1.053 2.949 1.625 4.371l.126.315c1.475 3.626 2.858 7.057 2.443 10.627-.876 6.908-7.835 12.515-20.739 16.637a80.462 80.462 0 0 1-31.247 3.016c-10.427-.875-17.928-3.235-23.689-7.438-11.337-8.301-9.897-21.472-8.503-34.137l.149-1.402c.126-1.173.251-2.338.358-3.491l2.627-28.98c1.048-11.203 6.014-20.218 14.368-26.067Z" clip-rule="evenodd"/><path fill="#080C20" d="M381.282 211.877v-26.274a19.303 19.303 0 0 0-5.659-13.653 19.33 19.33 0 0 0-13.663-5.655h-29.772a19.5 19.5 0 0 0-8.826 2.141 19.283 19.283 0 0 0-10.484 17.167v26.274h68.404Z"/><path fill="#093F68" fill-rule="evenodd" d="M312.878 213.028h68.404c.636 0 1.152-.516 1.152-1.151v-26.274c-.012-11.294-9.172-20.447-20.474-20.46h-29.772a19.977 19.977 0 0 0-5.058.645 20.429 20.429 0 0 0-15.405 19.815v26.274c0 .635.516 1.151 1.153 1.151Zm67.252-2.303h-66.1V185.58a18.073 18.073 0 0 1 9.851-16.119 18.77 18.77 0 0 1 3.814-1.451 18.251 18.251 0 0 1 4.493-.564h29.772c10.03.013 18.157 8.134 18.17 18.157v25.122Z" clip-rule="evenodd"/><path fill="#080C20" d="M358.711 166.295c-1.429 8.589-7.927 15.094-15.704 15.094-7.593 0-13.964-6.194-15.601-14.484a18.782 18.782 0 0 1 4.782-.61h26.523Z"/><path fill="#093F68" fill-rule="evenodd" d="M326.277 167.124c1.752 9.072 8.665 15.416 16.73 15.416 8.203 0 15.289-6.758 16.822-16.05a1.152 1.152 0 0 0-.265-.932 1.154 1.154 0 0 0-.876-.415h-26.5a20.172 20.172 0 0 0-5.07.645 1.152 1.152 0 0 0-.841 1.336Zm16.73 13.113c-6.625 0-12.34-5.077-14.218-12.469a18.467 18.467 0 0 1 3.399-.322h25.117c-1.774 7.484-7.673 12.791-14.298 12.791Z" clip-rule="evenodd"/><path fill="#093F68" d="M364.979 212.176a1.152 1.152 0 0 1-1.152-1.151v-24.179a1.151 1.151 0 0 1 2.304 0v24.179c0 .635-.516 1.151-1.152 1.151ZM349.09 170.658a1.151 1.151 0 0 1-1.152-1.151v-6.425h-9.759v6.425a1.15 1.15 0 1 1-2.304 0v-7.576c0-.636.516-1.151 1.152-1.151h12.063c.637 0 1.153.515 1.153 1.151v7.576c0 .636-.516 1.151-1.153 1.151Z"/><path fill="#080C20" d="M307.37 135.473c-.219 4.697 3.883 11.18 9.321 11.433 5.439.253 10.024-3.328 10.255-8.06.23-4.732-3.998-8.715-9.437-8.969-5.438-.253-9.908.898-10.139 5.596Z"/><path fill="#093F68" fill-rule="evenodd" d="M316.634 148.08h.61c5.796 0 10.6-3.995 10.854-9.118a9.036 9.036 0 0 0-2.95-7.035 11.761 11.761 0 0 0-7.581-3.143 16.412 16.412 0 0 0-7.558 1.024 6.182 6.182 0 0 0-3.779 5.63c-.02 2.942.95 5.804 2.753 8.129a10.371 10.371 0 0 0 7.651 4.513Zm-5.681-16.199a12.74 12.74 0 0 1 5.139-.852l1.348.057a9.398 9.398 0 0 1 6.107 2.51 6.79 6.79 0 0 1 2.235 5.262c-.196 4.03-4.217 7.15-9.045 6.908a8.345 8.345 0 0 1-5.922-3.604 10.96 10.96 0 0 1-2.304-6.631 3.891 3.891 0 0 1 2.442-3.65Z" clip-rule="evenodd"/><path fill="#080C20" d="M342.362 165.892a29.76 29.76 0 0 0 21.423-7.717 29.719 29.719 0 0 0 9.685-20.595l.669-13.816c.345-7.15-9.897-21.036-17.029-21.369 0 0-1.487 6.7-12.997 12.077-8.065 3.754-19.126 3.454-28.804-4.006l-1.152 24.178a29.724 29.724 0 0 0 7.621 21.466 29.769 29.769 0 0 0 20.584 9.782Z"/><path fill="#093F68" fill-rule="evenodd" d="M342.304 167.077h1.498c16.416-.088 29.909-12.965 30.751-29.347l.669-13.817c.207-4.375-2.938-10.109-5.957-14-4.021-5.204-8.572-8.405-12.178-8.578a1.154 1.154 0 0 0-1.153.887c-.011.069-1.601 6.275-12.351 11.295-6.809 3.189-17.651 3.845-27.652-3.869a1.153 1.153 0 0 0-1.152-.127c-.39.18-.648.562-.669.991l-1.152 24.178c-.829 17.035 12.3 31.525 29.346 32.387Zm-27.041-32.318 1.06-22.071a28.82 28.82 0 0 0 28.32 2.774c9.367-4.375 12.386-9.671 13.285-11.858 2.799.598 6.394 3.408 9.62 7.575 3.48 4.491 5.623 9.395 5.473 12.481l-.657 13.816c-.758 15.779-14.165 27.961-29.956 27.218-15.757-.8-27.896-14.187-27.145-29.935Z" clip-rule="evenodd"/><path fill="#093F68" d="M360.67 126.481h-.138l-13.101-.795a2.308 2.308 0 1 1 .277-4.605l13.1.806a2.304 2.304 0 1 1-.138 4.605v-.011ZM330.978 124.731l-13.123-.553a2.305 2.305 0 1 1 .196-4.605l13.112.541a2.304 2.304 0 1 1-.093 4.605l-.092.012Z"/><path fill="#080C20" d="M368.09 148.852c5.438.253 13.25-5.665 13.042-10.363-.345-7.852-8.952-6.908-12.339-4.144"/><path fill="#093F68" d="M368.458 150.003h-.414a1.151 1.151 0 1 1 .057-2.303c2.812.138 6.591-1.646 9.275-4.306 1.694-1.681 2.627-3.454 2.558-4.859-.092-2.302-.979-3.799-2.615-4.536a8.463 8.463 0 0 0-7.847 1.244 1.156 1.156 0 0 1-1.867-.719 1.154 1.154 0 0 1 .416-1.077c2.408-1.946 6.913-3.063 10.254-1.555 1.705.772 3.791 2.533 3.963 6.551.093 2.073-1.06 4.41-3.237 6.575-2.489 2.521-6.694 4.985-10.543 4.985ZM374.761 130.349s4.505-15.071-3.975-28.611c-8.48-13.54-31.696-15.647-41.052-10.247-14.633 8.428-14.483 19.009-14.483 19.009s-2.039-29.394 32.261-27.632c30.89 1.6 37.388 27.413 27.249 47.481Z"/><path fill="#093F68" fill-rule="evenodd" d="M374.335 131.42c.136.05.28.077.426.081.434-.002.83-.246 1.025-.634 5.819-11.548 6.026-24.569.542-34.01-3.745-6.413-11.764-14.254-28.804-15.13-11.349-.552-20.094 2.154-25.855 8.06-7.984 8.122-7.618 19.354-7.573 20.709l.003.119a1.153 1.153 0 0 0 2.304-.092c0-.403.081-10.051 13.907-18.007 9.229-5.32 31.431-3.017 39.508 9.867 7.639 12.186 4.26 25.907 3.871 27.484-.022.09-.034.14-.034.148a1.151 1.151 0 0 0 .68 1.405Zm-2.57-30.292c-5.876-9.395-18.4-13.609-29.104-13.609h.023c-5.288 0-10.139 1.025-13.526 2.97a34.255 34.255 0 0 0-11.199 9.776 23.175 23.175 0 0 1 5.38-8.912c5.323-5.411 13.435-7.875 24.081-7.334 12.674.656 21.972 5.492 26.915 14 3.652 6.264 4.562 14.254 2.788 22.314a36.403 36.403 0 0 0-5.358-19.205Z" clip-rule="evenodd"/><path fill="#093F68" d="M340.484 144.638c-1.027.024-2.051-.1-3.042-.369a1.772 1.772 0 0 1-1.152-1.059c-.726-1.854 1.405-5.964 2.73-8.244a1.153 1.153 0 0 1 1.994 1.152 20.882 20.882 0 0 0-2.593 6.021c1.241.214 2.507.245 3.756.092a1.16 1.16 0 1 1 .288 2.303c-.057 0-.898.104-1.981.104Z"/><ellipse cx="348.862" cy="134.132" fill="#093F68" rx="2.625" ry="2.627" transform="rotate(-87.23 348.862 134.132)"/><ellipse cx="324.104" cy="132.94" fill="#093F68" rx="2.625" ry="2.627" transform="rotate(-87.23 324.104 132.94)"/><path fill="#093F68" fill-rule="evenodd" d="M316.64 132.353c-.065 5.562 4.361 10.141 9.925 10.27h.473c5.565-.129 9.99-4.708 9.925-10.27-.065-5.562-4.595-10.037-10.161-10.037-5.567 0-10.097 4.475-10.162 10.037Zm3.249.858a7.324 7.324 0 0 1 7.149-7.409h.357a7.324 7.324 0 0 1 7.149 7.409 7.326 7.326 0 0 1-7.328 7.234 7.326 7.326 0 0 1-7.327-7.234ZM351.579 143.832h.473v.011c5.099-.006 9.299-4.005 9.551-9.095.248-5.276-3.824-9.756-9.102-10.017a9.569 9.569 0 0 0-8.507 4.376 9.555 9.555 0 0 0-.461 9.551 9.57 9.57 0 0 0 8.046 5.174Zm-6.775-9.913a7.27 7.27 0 0 1 7.248-6.909l.368-.023a7.27 7.27 0 0 1 6.528 4.809 7.262 7.262 0 0 1-1.988 7.856 7.183 7.183 0 0 1-5.243 1.877 7.268 7.268 0 0 1-6.913-7.61Z" clip-rule="evenodd"/><path fill="#093F68" d="m343.652 135.012-8.192-.391a1.152 1.152 0 1 1 .058-2.303l8.192.392a1.15 1.15 0 0 1-.058 2.302ZM318.788 132.514c-.28 0-.55-.103-.76-.288l-4.436-3.926a1.152 1.152 0 1 1 1.532-1.715l4.436 3.926a1.15 1.15 0 0 1-.772 2.014v-.011ZM360.451 135.83a1.151 1.151 0 0 1-.357-2.257l12.616-3.592a1.151 1.151 0 1 1 .634 2.211l-12.617 3.592a.99.99 0 0 1-.276.046ZM345.427 148.518l-8.457.414s.645 6.839 3.802 8.635c1.935 1.094 5.265-2.487 4.655-9.049Z"/><path fill="#093F68" fill-rule="evenodd" d="M340.196 158.569c.404.227.861.346 1.325.345a3.271 3.271 0 0 0 1.739-.575c1.971-1.267 3.745-4.824 3.261-9.925a1.152 1.152 0 0 0-1.152-1.048l-8.457.415a1.152 1.152 0 0 0-.818.403c-.207.238-.306.55-.277.863.07.76.807 7.496 4.379 9.522Zm1.14-2.003c-1.763-1.002-2.696-4.399-3.064-6.54l6.095-.299c0 3.742-1.291 6.021-2.305 6.677-.173.162-.495.288-.726.162Z" clip-rule="evenodd"/><path fill="#080C20" d="M364.979 203.057h16.303v8.819h-16.303z"/><path fill="#093F68" fill-rule="evenodd" d="M364.979 213.028h16.303c.636 0 1.152-.516 1.152-1.151v-8.82c0-.636-.516-1.151-1.152-1.151h-16.303c-.636 0-1.152.515-1.152 1.151v8.82c0 .635.516 1.151 1.152 1.151Zm15.151-2.303h-13.999v-6.516h13.999v6.516Z" clip-rule="evenodd"/><path fill="#080C20" d="M312.901 203.057h10.462v8.819h-10.462z"/><path fill="#093F68" fill-rule="evenodd" d="M312.901 213.028h10.461c.637 0 1.153-.516 1.153-1.151v-8.82c0-.636-.516-1.151-1.153-1.151h-10.461c-.637 0-1.153.515-1.153 1.151v8.82c0 .635.516 1.151 1.153 1.151Zm9.309-2.303h-8.157v-6.516h8.157v6.516Z" clip-rule="evenodd"/><path fill="#093F68" d="M323.362 204.209a1.152 1.152 0 0 1-1.152-1.152v-19.112a1.152 1.152 0 0 1 2.305 0v19.112c0 .636-.516 1.152-1.153 1.152Z"/><path fill="#080C20" d="M282.069 9.907h81.643c5.66.006 10.248 4.59 10.254 10.247V45c0 5.659-4.591 10.247-10.254 10.247h-11.165v14.46l-12.755-14.46h-57.723a10.248 10.248 0 0 1-7.255-2.998 10.231 10.231 0 0 1-3-7.25V20.155c0-5.66 4.591-10.247 10.255-10.247Z"/><path fill="#093F68" fill-rule="evenodd" d="M351.683 70.468c.218.248.533.39.864.391.137-.001.273-.025.403-.069.452-.169.751-.6.749-1.082v-13.31h10.013c6.297-.006 11.4-5.106 11.406-11.398V20.154c-.006-6.293-5.109-11.392-11.406-11.399h-81.643c-6.298.007-11.401 5.106-11.407 11.399V45c.006 6.292 5.109 11.392 11.407 11.398h57.205l12.409 14.07Zm-78.717-50.314c.007-5.021 4.078-9.09 9.103-9.096h81.643c5.024.006 9.095 4.075 9.102 9.096V45c0 5.023-4.075 9.095-9.102 9.095h-11.165c-.636 0-1.152.516-1.152 1.152v11.421l-10.738-12.181a1.155 1.155 0 0 0-.865-.392h-57.723c-5.027 0-9.103-4.072-9.103-9.095V20.154Z" clip-rule="evenodd"/><path fill="#093F68" d="M359.679 26.014h-65.305a1.152 1.152 0 1 1 0-2.303h65.305a1.152 1.152 0 1 1 0 2.303ZM340.322 39.842h-13.365a1.152 1.152 0 1 1 0-2.303h13.365a1.152 1.152 0 1 1 0 2.303ZM316.576 39.842h-22.202a1.152 1.152 0 1 1 0-2.303h22.202a1.152 1.152 0 1 1 0 2.303Z"/><path fill="#080C20" d="M294.558 1.87h-81.643c-5.67 0-10.266 4.593-10.266 10.259v24.846c.006 5.661 4.601 10.247 10.266 10.247h11.165v14.46l12.743-14.46h57.735c5.661-.007 10.248-4.59 10.254-10.247V12.129c0-5.661-4.589-10.253-10.254-10.259Z"/><path fill="#093F68" fill-rule="evenodd" d="M223.676 62.754a.971.971 0 0 0 .404.08c.343.01.672-.134.898-.391l12.375-14.07h57.205c6.297-.006 11.4-5.106 11.407-11.398V12.129C305.958 5.834 300.857.73 294.558.719h-81.643c-6.301.012-11.405 5.113-11.418 11.41v24.846c.013 6.294 5.119 11.392 11.418 11.398h10.012v13.31c.004.477.302.903.749 1.07Zm-19.875-50.625c.007-5.027 4.083-9.101 9.114-9.108h81.643c5.026.013 9.096 4.085 9.102 9.108v24.846c-.012 5.018-4.08 9.083-9.102 9.096h-57.735c-.331 0-.646.143-.865.39l-10.726 12.17v-11.41c0-.635-.516-1.15-1.152-1.15h-11.165c-5.026-.007-9.101-4.074-9.114-9.096V12.129Z" clip-rule="evenodd"/><path fill="#093F68" d="M286.389 16.895h-65.317a1.152 1.152 0 1 1 0-2.303h65.317a1.152 1.152 0 1 1 0 2.303ZM267.033 30.723h-45.961a1.152 1.152 0 1 1 0-2.303h45.961a1.152 1.152 0 1 1 0 2.303Z"/></svg>