<svg xmlns="http://www.w3.org/2000/svg" fill="none" viewBox="0 0 160 164"><rect width="160" height="164" fill="#093F68" rx="45"/><path fill="#3EE9E5" d="m100.285 128.871-14.873-9.766v-28.28c0-.99-.798-1.794-1.782-1.794s-1.781.803-1.781 1.794v28.304l-14.873 9.766 33.309-.024Z"/><path fill="#093F68" fill-rule="evenodd" d="M66.951 129.481h33.328a.608.608 0 0 0 .58-.438.613.613 0 0 0-.253-.685l-14.612-9.559V90.825a2.396 2.396 0 0 0-2.388-2.405 2.396 2.396 0 0 0-2.388 2.405V118.8l-14.594 9.559a.613.613 0 0 0-.252.685.607.607 0 0 0 .58.438Zm31.291-1.221H69.024l13.158-8.618a.613.613 0 0 0 .272-.513V90.825a1.18 1.18 0 0 1 1.176-1.184c.65 0 1.176.53 1.176 1.184v28.286a.61.61 0 0 0 .273.512l13.163 8.637Z" clip-rule="evenodd"/><ellipse cx="51.667" cy="55.044" fill="#080C20" rx="11.024" ry="11.103"/><path fill="#093F68" fill-rule="evenodd" d="M40.922 59.527c1.8 4.377 6.04 7.23 10.745 7.23 6.42-.006 11.623-5.247 11.63-11.713 0-4.737-2.834-9.009-7.18-10.822a11.57 11.57 0 0 0-12.674 2.54 11.774 11.774 0 0 0-2.521 12.765Zm1.119-8.49c1.612-3.922 5.411-6.48 9.626-6.48v-.012c5.753.007 10.414 4.705 10.418 10.5.002 4.244-2.535 8.071-6.427 9.697a10.364 10.364 0 0 1-11.356-2.27c-2.98-3-3.873-7.514-2.261-11.436Z" clip-rule="evenodd"/><path fill="#080C20" d="M83.63 94.121 47.903 52.285h71.455L83.63 94.121Z"/><path fill="#093F68" fill-rule="evenodd" d="M83.176 94.518a.604.604 0 0 0 .46.214.605.605 0 0 0 .455-.214l35.727-41.836a.613.613 0 0 0 .091-.653.605.605 0 0 0-.551-.354H47.909a.606.606 0 0 0-.551.354.614.614 0 0 0 .09.653l35.728 41.836Zm.454-1.337L49.224 52.896h68.812L83.63 93.18Z" clip-rule="evenodd"/><path fill="#3EE9E5" d="M56.503 62.35 83.63 94.121l27.128-31.77H56.503Z"/><path fill="#093F68" fill-rule="evenodd" d="M83.176 94.518a.604.604 0 0 0 .921 0l27.127-31.77a.613.613 0 0 0 .091-.654.605.605 0 0 0-.551-.354H56.509a.606.606 0 0 0-.551.354.614.614 0 0 0 .09.653l27.128 31.771Zm.46-1.337L57.83 62.991l51.618-.03-25.812 30.22Z" clip-rule="evenodd"/><path fill="#093F68" d="M84.648 89.525a.61.61 0 0 1-.51-.94l32.668-52.28a.606.606 0 0 1 .839-.192c.285.18.37.559.191.845l-32.672 52.28a.605.605 0 0 1-.516.287Z"/><ellipse cx="113.085" cy="43.947" fill="#080C20" rx="6.273" ry="6.318"/><path fill="#093F68" fill-rule="evenodd" d="M106.194 43.947c.003 3.83 3.088 6.932 6.891 6.928 3.801-.007 6.879-3.112 6.879-6.94-.004-3.83-3.089-6.931-6.891-6.928-3.803.004-6.882 3.11-6.879 6.94Zm1.644-2.188a5.674 5.674 0 0 1 5.247-3.525c3.124.007 5.657 2.554 5.667 5.701a5.716 5.716 0 0 1-3.495 5.288c-2.12.888-4.563.4-6.187-1.234a5.743 5.743 0 0 1-1.232-6.23Z" clip-rule="evenodd"/><path fill="#093F68" d="M109.624 43.605a.597.597 0 0 1-.182 0 .612.612 0 0 1-.4-.762c.862-2.608 3.621-4.057 6.237-3.278a.626.626 0 0 1 .466.75.621.621 0 0 1-.745.47c-3.703-.885-4.758 2.314-4.8 2.442a.605.605 0 0 1-.576.378Z"/><path fill="#093F68" fill-rule="evenodd" d="M80.418 71.122a.645.645 0 0 0 .449.024.607.607 0 0 0 .345-.311l5.006-10.541a.612.612 0 0 0-.285-.812l-10.46-5.054a.604.604 0 0 0-.806.287L69.648 65.25a.614.614 0 0 0 0 .47c.051.152.163.276.31.342l10.46 5.06Zm-.024-1.368-9.37-4.529 4.497-9.436 9.37 4.529-4.497 9.436ZM78.4 84.117a.606.606 0 0 0 .564.385.602.602 0 0 0 .248-.043l8.049-3.205a.612.612 0 0 0 .345-.787l-3.182-8.112a.609.609 0 0 0-.788-.342l-8.072 3.198a.608.608 0 0 0-.34.794l3.176 8.112Zm.903-1.02-2.733-6.97 6.927-2.753 2.733 6.97-6.927 2.754Z" clip-rule="evenodd"/></svg>