<svg xmlns="http://www.w3.org/2000/svg" fill="none" viewBox="0 0 160 164"><rect width="160" height="164" fill="#093F68" rx="45"/><path fill="#080C20" d="M110.053 94.39a43.047 43.047 0 0 1-.608 7.362 32.413 32.413 0 0 1-4.51 12.02c-6.207 9.756-17.369 14.423-29.585 14.423-12.215 0-23.389-4.667-29.595-14.423a29.006 29.006 0 0 1-2.391-4.628 32.432 32.432 0 0 1-1.529-4.559 34.386 34.386 0 0 1-.579-2.804 42.962 42.962 0 0 1-.579-7.363c.017-3.988.481-7.961 1.384-11.848a61.115 61.115 0 0 1 1.285-4.873 77.9 77.9 0 0 1 3.063-8.406c6.803-15.843 18.486-29.463 28.936-29.463 8.464 0 17.785 8.976 24.622 20.847a77.303 77.303 0 0 1 3.121 5.99c.411.86.805 1.737 1.187 2.615a80.23 80.23 0 0 1 3.062 8.394 58.596 58.596 0 0 1 2.716 16.715Z"/><path fill="#093F68" fill-rule="evenodd" d="M45.24 114.074c5.94 9.334 16.899 14.691 30.076 14.691 13.206 0 24.165-5.357 30.105-14.691a32.98 32.98 0 0 0 4.591-12.225c.421-2.465.628-4.96.62-7.46a58.563 58.563 0 0 0-2.803-16.863 79.662 79.662 0 0 0-3.08-8.457v-.034c-.37-.9-.77-1.8-1.157-2.61a76.872 76.872 0 0 0-3.138-6.03c-7.63-13.238-17.033-21.137-25.138-21.137-11.434 0-23.28 15.473-29.44 29.822a79.077 79.077 0 0 0-3.085 8.463c-.51 1.687-.95 3.34-1.297 4.913a54.116 54.116 0 0 0-1.442 11.933 43.4 43.4 0 0 0 .62 7.455c.127.911.324 1.84.579 2.849.397 1.59.913 3.148 1.545 4.662a29.74 29.74 0 0 0 2.444 4.719Zm1.707-44.538c7.33-17.136 19.007-29.104 28.369-29.104v-.034c7.596 0 16.841 7.899 24.177 20.573a78.393 78.393 0 0 1 4.261 8.548v.034a78.852 78.852 0 0 1 3.033 8.31 57.786 57.786 0 0 1 2.687 16.526 42.533 42.533 0 0 1-.579 7.267 31.905 31.905 0 0 1-4.476 11.813c-5.725 8.999-16.366 14.157-29.103 14.157-12.737 0-23.35-5.164-29.104-14.128a29.476 29.476 0 0 1-2.35-4.559 32.498 32.498 0 0 1-1.494-4.508 40.138 40.138 0 0 1-.579-2.764 42.465 42.465 0 0 1-.579-7.266 52.98 52.98 0 0 1 1.413-11.689 70.59 70.59 0 0 1 1.273-4.832 78.165 78.165 0 0 1 3.051-8.344Z" clip-rule="evenodd"/><path fill="#3EE9E5" d="M100.02 60.8c.665 1.539-.985 7.09-1.054 8.942a98.193 98.193 0 0 1-1.25 10.64 7.495 7.495 0 0 1-.811 2.849 2.654 2.654 0 0 1-2.467 1.368c-1.267-.166-2.032-1.488-2.275-2.719-.243-1.23-.145-2.541-.62-3.704-.474-1.163-1.87-2.126-3.016-1.561-.47.28-.846.693-1.076 1.185-.921 1.67-1.228 3.59-1.523 5.465-1.002 6.417-3.12 13.586-2.704 20.066.133 2.103.527 4.417-1.771 5.733-2.299 1.317-4.782-.49-5.732-2.564-.88-1.915-.903-4.086-1.36-6.138-.632-2.85-3.636-10.435-7.104-5.54-.892 1.26-1.158 2.85-1.372 4.36a218.183 218.183 0 0 0-2.148 27.025c-.035 2.097-.081 4.331-1.274 6.069-1.192 1.738-4.006 2.547-5.47 1.026-.858-.889-.98-2.229-1.049-3.454-.579-10.155-.336-20.584-1.517-30.683-.689-5.853-6.368-15.159-12.337-16.584a61.158 61.158 0 0 1 1.285-4.872 77.879 77.879 0 0 1 3.063-8.406c6.774-15.855 18.457-29.475 28.907-29.475 8.464 0 17.785 8.976 24.622 20.847a77.303 77.303 0 0 1 3.121 5.99c-1.187-1.796-1.974-3.967-3.068-5.865Z"/><path fill="#093F68" fill-rule="evenodd" d="M56.546 133.695a3.293 3.293 0 0 0 2.426.98l.365-.011a5.013 5.013 0 0 0 3.6-2.069c1.303-1.892 1.344-4.274 1.379-6.377.157-9.026.874-18.034 2.148-26.973.231-1.59.486-3.003 1.273-4.115.724-1.02 1.425-1.464 2.09-1.339 1.662.33 3.399 4.155 3.978 6.674.15.672.254 1.373.353 2.051a15.364 15.364 0 0 0 1.013 4.138 5.885 5.885 0 0 0 3.422 3.145 3.81 3.81 0 0 0 3.132-.324c2.407-1.379 2.235-3.789 2.096-5.726v-.002l-.041-.53c-.288-4.54.686-9.434 1.632-14.185l.012-.062c.394-1.972.753-3.887 1.054-5.7l.036-.22c.289-1.742.584-3.525 1.423-5.056.176-.39.463-.721.828-.952.294-.132.632-.132.926 0a2.395 2.395 0 0 1 1.291 1.282 7.55 7.55 0 0 1 .417 2.194c.04.456.087.93.174 1.402.26 1.328 1.134 2.964 2.761 3.174a3.236 3.236 0 0 0 3.04-1.64 7.887 7.887 0 0 0 .897-3.033c.081-.57.162-1.14.249-1.71a77.993 77.993 0 0 0 1.002-8.992c.105-.998.27-1.99.492-2.97.266-1.333.492-2.507.613-3.498.052.102.099.199.145.302a29.984 29.984 0 0 0 1.806 3.419c.164.255.502.34.77.194a.566.566 0 0 0 .244-.741 76.872 76.872 0 0 0-3.138-6.03c-7.63-13.238-17.033-21.137-25.138-21.137-11.434 0-23.28 15.473-29.44 29.822a79.077 79.077 0 0 0-3.085 8.463c-.51 1.687-.95 3.34-1.297 4.919a.57.57 0 0 0 .428.672c5.876 1.402 11.272 10.731 11.903 16.1.747 6.405.932 13.073 1.106 19.513.099 3.658.203 7.442.411 11.13.046 1.088.15 2.729 1.204 3.818ZM54.99 99.103c-.648-5.648-6.027-14.994-12.227-16.926h-.018c.313-1.367.716-2.79 1.13-4.255l.022-.076a78.155 78.155 0 0 1 3.051-8.344c7.33-17.136 19.007-29.104 28.369-29.104 7.596 0 16.841 7.899 24.165 20.664.365.827-.18 3.562-.579 5.557a23.763 23.763 0 0 0-.51 3.145 79.298 79.298 0 0 1-.995 8.868c-.04.285-.083.57-.125.855-.042.285-.084.57-.124.855a7.105 7.105 0 0 1-.741 2.61 2.119 2.119 0 0 1-1.893 1.1c-.956-.149-1.58-1.249-1.778-2.28-.076-.43-.13-.864-.162-1.3a8.428 8.428 0 0 0-.498-2.518 3.527 3.527 0 0 0-1.956-1.92 2.35 2.35 0 0 0-1.853.068 3.285 3.285 0 0 0-1.32 1.419c-.97 1.757-1.291 3.788-1.579 5.605l-.007.048c-.29 1.83-.66 3.693-1.054 5.659l-.007.036c-.96 4.827-1.95 9.812-1.649 14.491l.035.541c.139 1.869.266 3.636-1.523 4.667a2.66 2.66 0 0 1-2.194.223 4.774 4.774 0 0 1-2.715-2.531 14.109 14.109 0 0 1-.956-3.898 31.38 31.38 0 0 0-.37-2.125c-.4-1.79-2.148-7.016-4.88-7.551-1.159-.223-2.258.381-3.266 1.8-.938 1.322-1.221 2.873-1.47 4.61a219.366 219.366 0 0 0-2.183 27.099c0 2.04-.052 4.149-1.158 5.762a3.874 3.874 0 0 1-2.738 1.567 2.203 2.203 0 0 1-1.83-.616c-.7-.723-.822-1.874-.891-3.094-.203-3.687-.307-7.449-.406-11.096l-.005-.197c-.178-6.407-.361-13.022-1.112-19.418Z" clip-rule="evenodd"/><path fill="#080C20" d="m96.422 99.261 4.689-3.933 3.646 4.212-4.688 3.933-3.647-4.212Z"/><path fill="#093F68" fill-rule="evenodd" d="M99.626 103.833a.585.585 0 0 0 .816.062l4.69-3.932a.562.562 0 0 0 .063-.803l-3.647-4.212a.582.582 0 0 0-.816-.063l-4.684 3.932a.567.567 0 0 0-.07.804l3.648 4.212Zm.503-1.174-2.894-3.346 3.803-3.191 2.895 3.345-3.804 3.192Z" clip-rule="evenodd"/><path fill="#080C20" d="m104.755 99.53 21.282-16.96a3.446 3.446 0 0 0 1.311-2.375 3.424 3.424 0 0 0-.824-2.577 3.537 3.537 0 0 0-2.455-1.207 3.548 3.548 0 0 0-2.588.899l-20.373 17.997 3.647 4.223Z"/><path fill="#093F68" fill-rule="evenodd" d="M104.315 99.9c.11.127.271.2.44.2a.581.581 0 0 0 .365-.148l21.276-16.949a3.998 3.998 0 0 0 1.495-3.84 4.049 4.049 0 0 0-2.708-3.131 4.143 4.143 0 0 0-4.09.839l-20.373 18.02a.563.563 0 0 0-.052.798l3.647 4.211Zm.498-1.162-2.895-3.368 19.934-17.616a2.956 2.956 0 0 1 2.165-.746 2.927 2.927 0 0 1 2.593 2.015 2.861 2.861 0 0 1-.955 3.114l-20.842 16.6Z" clip-rule="evenodd"/><path fill="#080C20" d="M94.302 102.851a2.036 2.036 0 0 1 3.078-2.666l1.871 2.161a2.037 2.037 0 0 1-3.078 2.666l-1.87-2.161Z"/><path fill="#093F68" fill-rule="evenodd" d="M96.216 105.935c.353.407.87.638 1.412.633a1.87 1.87 0 0 0 1.216-.427l1.158-.981c.379-.312.613-.762.649-1.248a1.805 1.805 0 0 0-.44-1.333l-2.895-3.317a1.857 1.857 0 0 0-1.268-.638 1.918 1.918 0 0 0-1.355.433l-1.158.98a1.816 1.816 0 0 0-.214 2.582l2.895 3.316Zm-.747-6.04a.736.736 0 0 1 .457-.166l.052.006c.188.01.362.097.48.24l2.896 3.316a.683.683 0 0 1-.076.975l-1.157.98a.703.703 0 0 1-.99-.08l-2.895-3.317a.663.663 0 0 1-.168-.501.712.712 0 0 1 .243-.473l1.158-.98Z" clip-rule="evenodd"/><path fill="#080C20" d="m93.524 100.806 4.533 5.232s-.255 2.154-4.053 4.417a21.507 21.507 0 0 1-2.895 1.43c-6.588 2.684-10.542-1.88-10.542-1.88 3.856 1.515 5.118-2.035 6.368-5.836l.157-.467c1.279-3.973 6.432-2.896 6.432-2.896Z"/><path fill="#093F68" fill-rule="evenodd" d="M80.11 110.369a9.815 9.815 0 0 0 6.947 2.918 11.198 11.198 0 0 0 4.255-.883 22.746 22.746 0 0 0 2.976-1.465c4.006-2.382 4.342-4.741 4.342-4.838a.564.564 0 0 0-.139-.433l-4.533-5.238a.542.542 0 0 0-.319-.188c-1.956-.41-5.963-.245-7.12 3.271l-.157.479c-.747 2.28-1.598 4.867-3.15 5.585a3.017 3.017 0 0 1-2.448-.108.584.584 0 0 0-.686.197.563.563 0 0 0 .031.703Zm10.762.98c-3.804 1.556-6.646.565-8.285-.438a3.416 3.416 0 0 0 1.123-.297c2.012-.93 2.934-3.747 3.747-6.236l.01-.033.157-.473c1.008-3.077 4.701-2.689 5.593-2.547l4.209 4.856c-.197.564-.95 2.131-3.729 3.784-.906.529-1.85.992-2.825 1.384Z" clip-rule="evenodd"/><path fill="#3EE9E5" d="M80.908 105.679c.264.624.598 1.216.996 1.767.51.57 1.534.404 2.142.091a4.195 4.195 0 0 0 1.517-1.425c.394-.57.712-1.197 1.1-1.778a.576.576 0 0 1 .226-.228c.33-.165.637.371.724.604.141.406.235.827.278 1.254.063.45.11.9.156 1.351-.014.242.024.485.11.712a.422.422 0 0 0 .249.205.468.468 0 0 0 .226-.017c.41-.154.77-.41 1.186-.53a.969.969 0 0 1 1.158.359c.157.325 0 .712.052 1.071.054.393.338.717.724.827.263.05.532.065.799.045.52.015 1.022.184 1.442.485a21.507 21.507 0 0 1-2.895 1.43c-3.772 1.537-8.108.764-11.093-1.977a3.557 3.557 0 0 1-1.192-2.451"/><path fill="#093F68" d="M87.063 113.23a10.816 10.816 0 0 1-7.457-2.884 4.114 4.114 0 0 1-1.372-2.849c0-.315.259-.57.579-.57.32 0 .579.255.579.57a3.02 3.02 0 0 0 1.013 2.046c2.823 2.578 6.917 3.291 10.467 1.824a22.444 22.444 0 0 0 1.778-.81h-.325a2.249 2.249 0 0 1-.735-.068 1.57 1.57 0 0 1-1.158-1.311 2.1 2.1 0 0 1 0-.57.941.941 0 0 0 0-.347.485.485 0 0 0-.457-.057 3.189 3.189 0 0 0-.58.25c-.187.1-.38.189-.578.268a1.12 1.12 0 0 1-.58.063.965.965 0 0 1-.613-.456 1.587 1.587 0 0 1-.19-.821v-.393c-.041-.359-.076-.718-.128-1.077a5.803 5.803 0 0 0-.243-1.14l-.04-.085c-.134.205-.256.416-.383.627-.191.325-.388.661-.614.98a4.704 4.704 0 0 1-1.736 1.613c-.904.461-2.172.53-2.843-.223a5.098 5.098 0 0 1-.8-1.322c-.086-.182-.173-.37-.271-.57a.571.571 0 0 1 .22-.786.592.592 0 0 1 .799.216c.11.206.208.411.307.622.154.372.359.723.608 1.043.26.285.96.21 1.453-.04.53-.299.976-.725 1.296-1.237.203-.291.383-.57.58-.918.196-.347.341-.569.526-.854.11-.18.266-.327.452-.428.224-.1.482-.1.706 0 .384.201.678.537.822.941.151.447.254.91.307 1.379.052.37.093.746.133 1.139V107.457a.609.609 0 0 1 0 .108l.26-.125a4.03 4.03 0 0 1 .782-.336 1.528 1.528 0 0 1 1.824.661c.125.295.163.619.11.934a1.98 1.98 0 0 0 0 .308.453.453 0 0 0 .307.354c.132.018.267.018.4 0h.26a3.234 3.234 0 0 1 1.737.569.567.567 0 0 1-.035.952 22.746 22.746 0 0 1-2.976 1.465c-1.325.56-2.75.86-4.191.883Z"/><path fill="#3EE9E5" d="M81.644 120.662c.11-1.402-.14-3.642-1.303-4.657-2.518-2.205-4.284 1.442-4.377 3.42a5.146 5.146 0 0 0 .834 3.368 2.746 2.746 0 0 0 3.167.992c1.14-.496 1.586-1.893 1.679-3.123Z"/><path fill="#093F68" fill-rule="evenodd" d="M76.335 123.152a3.495 3.495 0 0 0 2.744 1.408c.39 0 .774-.081 1.129-.24 1.569-.706 1.934-2.57 2.015-3.613.127-1.653-.191-3.989-1.5-5.129-1.158-1.014-2.153-.917-2.785-.65-1.626.673-2.483 3.072-2.553 4.485a5.592 5.592 0 0 0 .95 3.739Zm2.043-7.175a.971.971 0 0 1 .412-.091c.443.032.859.227 1.163.547.92.803 1.222 2.735 1.112 4.189-.052.638-.278 2.182-1.35 2.667-.856.387-1.921-.114-2.454-.821a4.503 4.503 0 0 1-.724-2.998c.064-1.316.863-3.088 1.841-3.493Z" clip-rule="evenodd"/><path fill="#080C20" d="m61.595 50.428 10.346-5.09v-9.687l-10.346-5.1c-2.663-1.312-5.963.347-5.963 3.008v13.888c0 2.639 3.3 4.292 5.963 2.981Z"/><path fill="#093F68" fill-rule="evenodd" d="M56.998 50.736c.785.475 1.69.725 2.611.724a5.086 5.086 0 0 0 2.246-.52l10.358-5.077a.57.57 0 0 0 .318-.507v-9.688a.569.569 0 0 0-.318-.513l-10.346-5.09a5.1 5.1 0 0 0-4.857.206 3.831 3.831 0 0 0-1.957 3.288v13.888a3.831 3.831 0 0 0 1.945 3.289Zm.608-19.502a3.882 3.882 0 0 1 3.74-.171l10.027 4.935v8.988L61.346 49.92a3.915 3.915 0 0 1-3.729-.154 2.718 2.718 0 0 1-1.406-2.32V33.56a2.718 2.718 0 0 1 1.395-2.325Z" clip-rule="evenodd"/><path fill="#093F68" d="M63.123 44.387a.569.569 0 0 1-.203-1.106l7.052-2.638-9.344-2.171a.59.59 0 0 1-.435-.399.578.578 0 0 1 .133-.57.6.6 0 0 1 .568-.171l11.18 2.599c.248.056.43.266.448.516a.57.57 0 0 1-.373.572l-8.817 3.305a.538.538 0 0 1-.209.063Z"/><path fill="#080C20" d="m89.089 50.428-10.346-5.09v-9.687l10.346-5.095c2.663-1.31 5.975.347 5.975 2.986v13.905c0 2.639-3.312 4.292-5.975 2.981Z"/><path fill="#093F68" fill-rule="evenodd" d="M88.828 50.94c.698.343 1.467.52 2.247.52.921 0 1.825-.25 2.61-.724a3.831 3.831 0 0 0 1.958-3.289V33.56a3.83 3.83 0 0 0-1.957-3.305 5.1 5.1 0 0 0-4.858-.205l-10.345 5.089a.57.57 0 0 0-.319.513v9.688c0 .214.124.41.319.507l10.345 5.095Zm.522-1.02-10.028-4.934V36.02l10.028-4.935a3.903 3.903 0 0 1 3.728.154 2.718 2.718 0 0 1 1.407 2.32v13.887a2.718 2.718 0 0 1-1.407 2.32 3.915 3.915 0 0 1-3.728.154Z" clip-rule="evenodd"/><path fill="#093F68" d="M87.56 44.387a.541.541 0 0 1-.208-.04l-8.817-3.322a.57.57 0 0 1-.373-.572c.017-.25.2-.46.448-.517l11.18-2.599a.6.6 0 0 1 .567.172c.145.153.196.37.134.57a.59.59 0 0 1-.435.398l-9.344 2.172 7.051 2.598a.569.569 0 0 1-.203 1.106v.034Z"/><rect width="9.066" height="11.238" x="70.806" y="34.87" fill="#080C20" rx="3.91"/><path fill="#093F68" fill-rule="evenodd" d="M73.087 46.667h4.545c1.56-.007 2.826-1.245 2.842-2.781v-6.788c-.003-1.544-1.274-2.795-2.842-2.798h-4.545c-1.569.003-2.84 1.254-2.843 2.798v6.77c.007 1.543 1.275 2.792 2.843 2.799Zm-1.702-9.569c.003-.914.755-1.655 1.684-1.658h4.563c.929.003 1.681.744 1.684 1.658v6.77c-.003.915-.755 1.656-1.684 1.659h-4.563c-.922-.003-1.672-.733-1.684-1.641v-6.788Z" clip-rule="evenodd"/></svg>