<svg xmlns="http://www.w3.org/2000/svg" fill="none" viewBox="0 0 160 164"><rect width="160" height="164" fill="#093F68" rx="45"/><path fill="#080C20" d="M50.941 52.629h28.98v13.086h-28.98z"/><path fill="#093F68" fill-rule="evenodd" d="M50.941 66.143h28.985a.439.439 0 0 0 .437-.44V52.628a.439.439 0 0 0-.437-.44H50.94a.439.439 0 0 0-.437.44v13.073c0 .244.196.44.437.44Zm28.548-.881h-28.11V53.069h28.11v12.193Z" clip-rule="evenodd"/><path fill="#3EE9E5" d="M129.212 106.292H31.557V89.995c0-1.615.195-3.224.577-4.793.238-.94.54-1.863.904-2.761l4.724-11.642.734-1.806a5.244 5.244 0 0 1 4.837-3.29h44.489c1.41 0 2.759.575 3.74 1.594l3.37 3.484 11.514 11.92a10.759 10.759 0 0 0 7.725 3.285h8.74c2.354.005 4.328 1.795 4.579 4.154l.577 5.193 1.145 10.959Z"/><path fill="#093F68" fill-rule="evenodd" d="M31.557 106.733h97.655a.435.435 0 0 0 .323-.163.442.442 0 0 0 .11-.344l-1.705-16.104a4.872 4.872 0 0 0-.458-1.634 5.045 5.045 0 0 0-4.554-2.911h-8.739a10.317 10.317 0 0 1-7.429-3.154L91.877 67.006a5.659 5.659 0 0 0-4.055-1.727H43.338a5.641 5.641 0 0 0-5.244 3.524l-5.462 13.453c-.373.924-.68 1.873-.922 2.84a20.861 20.861 0 0 0-.59 4.899v16.297c0 .244.196.441.437.441Zm97.17-.881H31.994l.013-15.84a19.916 19.916 0 0 1 1.438-7.409l5.48-13.447a4.768 4.768 0 0 1 4.408-3.013h44.489c1.296 0 2.538.527 3.443 1.462l14.879 15.417a11.183 11.183 0 0 0 8.041 3.418h8.739a4.176 4.176 0 0 1 3.767 2.41c.202.423.331.88.38 1.347l1.656 15.655Z" clip-rule="evenodd"/><path fill="#3EE9E5" d="M30.185 103.359h7.206v4.629h-7.206c-.444 0-.87-.178-1.183-.494a1.694 1.694 0 0 1-.49-1.193v-1.255c0-.932.749-1.687 1.673-1.687Z"/><path fill="#093F68" fill-rule="evenodd" d="M30.185 108.429h7.188a.439.439 0 0 0 .455-.441v-4.629a.439.439 0 0 0-.437-.441h-7.206a2.12 2.12 0 0 0-2.106 2.128v1.255a2.12 2.12 0 0 0 2.106 2.128Zm-1.232-3.383c0-.687.55-1.244 1.232-1.247h6.769v3.749h-6.77a1.242 1.242 0 0 1-1.231-1.247v-1.255Z" clip-rule="evenodd"/><path fill="#3EE9E5" d="M122.627 103.359h7.188a1.68 1.68 0 0 1 1.674 1.687v1.255c0 .447-.177.877-.49 1.193a1.67 1.67 0 0 1-1.184.494h-7.188v-4.629Z"/><path fill="#093F68" fill-rule="evenodd" d="M122.627 108.429h7.188a2.12 2.12 0 0 0 2.106-2.128v-1.255a2.12 2.12 0 0 0-2.106-2.128h-7.188a.439.439 0 0 0-.437.441v4.629a.44.44 0 0 0 .437.441Zm7.188-.881h-6.769l.018-3.749h6.751c.681.003 1.232.56 1.232 1.247v1.255c0 .687-.551 1.244-1.232 1.247Z" clip-rule="evenodd"/><ellipse cx="113.271" cy="107.314" fill="#080C20" rx="11.125" ry="11.214"/><path fill="#093F68" fill-rule="evenodd" d="M102.589 111.769c1.789 4.356 6.005 7.196 10.682 7.196 6.381-.008 11.553-5.219 11.563-11.651.001-4.714-2.815-8.965-7.135-10.77a11.496 11.496 0 0 0-12.602 2.523 11.722 11.722 0 0 0-2.508 12.702Zm.807-8.578c1.655-4.026 5.552-6.65 9.875-6.65v-.005c5.903.005 10.686 4.828 10.689 10.778 0 4.358-2.604 8.286-6.598 9.954a10.628 10.628 0 0 1-11.649-2.335 10.84 10.84 0 0 1-2.317-11.742Z" clip-rule="evenodd"/><ellipse cx="113.271" cy="107.314" fill="#093F68" rx="5.392" ry="5.435"/><path fill="#093F68" fill-rule="evenodd" d="M107.886 109.563a5.83 5.83 0 0 0 5.385 3.627c3.218-.005 5.825-2.633 5.829-5.876a5.878 5.878 0 0 0-3.598-5.429 5.798 5.798 0 0 0-6.353 1.274 5.91 5.91 0 0 0-1.263 6.404Zm.43-2.249c0-2.758 2.219-4.995 4.955-4.995 2.736.003 4.953 2.238 4.956 4.995 0 2.759-2.219 4.995-4.956 4.995-2.736 0-4.955-2.236-4.955-4.995Z" clip-rule="evenodd"/><ellipse cx="45.549" cy="107.314" fill="#080C20" rx="11.125" ry="11.214"/><path fill="#093F68" fill-rule="evenodd" d="M34.866 111.769c1.79 4.356 6.006 7.196 10.683 7.196 6.382-.005 11.555-5.218 11.562-11.651.002-4.714-2.814-8.965-7.134-10.77a11.495 11.495 0 0 0-12.602 2.523 11.723 11.723 0 0 0-2.509 12.702Zm-.005-4.455c0-5.95 4.785-10.774 10.688-10.774v-.004c5.903.005 10.686 4.828 10.688 10.778 0 5.951-4.785 10.774-10.688 10.774-5.903 0-10.688-4.823-10.688-10.774Z" clip-rule="evenodd"/><ellipse cx="45.549" cy="107.314" fill="#093F68" rx="5.392" ry="5.435"/><path fill="#093F68" fill-rule="evenodd" d="M39.72 107.314c0 3.245 2.61 5.876 5.829 5.876 3.217-.005 5.824-2.633 5.83-5.876 0-3.245-2.61-5.876-5.83-5.876s-5.83 2.631-5.83 5.876Zm.874 0c0-2.758 2.218-4.995 4.955-4.995 2.736.003 4.953 2.238 4.955 4.995 0 2.759-2.218 4.995-4.955 4.995s-4.955-2.236-4.955-4.995Z" clip-rule="evenodd"/><path fill="#080C20" d="M64.618 70.794V85.22H32.13c.24-.946.544-1.875.91-2.78L37.761 70.8l26.856-.005Z"/><path fill="#093F68" fill-rule="evenodd" d="M32.134 85.66h32.484a.439.439 0 0 0 .438-.44V70.794a.439.439 0 0 0-.438-.44h-26.87a.437.437 0 0 0-.405.273l-4.724 11.642c-.371.924-.68 1.874-.922 2.84a.443.443 0 0 0 .082.386c.086.109.217.17.355.165Zm32.047-.88H32.703a20.89 20.89 0 0 1 .738-2.177l4.61-11.368h26.132v13.544Z" clip-rule="evenodd"/><path fill="#080C20" d="M110.151 85.22H69.95V70.794h24.955l11.515 11.92a10.639 10.639 0 0 0 3.731 2.506Z"/><path fill="#093F68" fill-rule="evenodd" d="M110.134 85.66h.002a.44.44 0 0 0 .159-.85 10.3 10.3 0 0 1-3.565-2.405l-11.514-11.92a.436.436 0 0 0-.31-.131H69.95a.439.439 0 0 0-.437.44V85.22c0 .243.195.44.437.44h40.184Zm-1.818-.88h-37.93l.027-13.545h24.335l11.383 11.782c.652.678 1.386 1.27 2.185 1.762Z" clip-rule="evenodd"/><path fill="#093F68" d="M99.056 103.799H60.773a.439.439 0 0 1-.437-.44c0-.244.196-.441.437-.441H99.04c.241 0 .437.197.437.441 0 .243-.196.44-.437.44h.017ZM67.017 101.949a.438.438 0 0 1-.436-.44V87.546c0-.244.195-.44.436-.44.242 0 .438.196.438.44v13.963c0 .243-.196.44-.438.44ZM77.378 90.299h-4.724a.439.439 0 0 1-.436-.44c0-.244.195-.441.436-.441h4.724c.242 0 .437.197.437.44s-.195.44-.437.44ZM61.38 90.299h-4.706a.439.439 0 0 1-.437-.44c0-.244.196-.441.437-.441h4.706c.242 0 .438.197.438.44s-.196.44-.438.44Z"/><path fill="#080C20" d="M29.031 88.7h2.526v7.404h-2.526z"/><path fill="#093F68" fill-rule="evenodd" d="M29.031 96.536h2.526a.439.439 0 0 0 .437-.44V88.7a.439.439 0 0 0-.437-.44h-2.526a.439.439 0 0 0-.437.44v7.395c0 .243.196.44.437.44Zm2.089-.881h-1.652V89.14h1.652v6.515Z" clip-rule="evenodd"/><path fill="#080C20" d="M128.067 95.333h-3.67a1.82 1.82 0 0 1-1.814-1.828v-3.021a1.82 1.82 0 0 1 1.814-1.828h2.687c.229.47.377.977.437 1.497l.546 5.18Z"/><path fill="#093F68" fill-rule="evenodd" d="M124.397 95.774h3.67a.437.437 0 0 0 .437-.485l-.568-5.184a4.924 4.924 0 0 0-.459-1.639.436.436 0 0 0-.393-.25h-2.687a2.265 2.265 0 0 0-2.251 2.268v3.021a2.265 2.265 0 0 0 2.251 2.269Zm-1.364-5.29c0-.767.617-1.388 1.377-1.388h2.403c.137.354.228.724.271 1.101l.498 4.696h-3.172c-.76 0-1.377-.621-1.377-1.388v-3.021Z" clip-rule="evenodd"/><path fill="#093F68" d="M40.795 82.537a.436.436 0 0 1-.35-.176.443.443 0 0 1 .087-.617l11.02-8.329a.434.434 0 0 1 .613.088.443.443 0 0 1-.088.617l-11.02 8.32a.435.435 0 0 1-.262.097ZM53.537 81.19a.437.437 0 0 1-.414-.294.443.443 0 0 1 .139-.49l7.843-6.48a.435.435 0 0 1 .616.062.443.443 0 0 1-.06.62l-7.845 6.48a.435.435 0 0 1-.28.102ZM75.005 82.537a.435.435 0 0 1-.437-.46.442.442 0 0 1 .145-.306l10.094-9.334a.435.435 0 0 1 .618.029c.163.18.15.459-.028.623l-10.095 9.352a.435.435 0 0 1-.297.096ZM88.434 81.19a.443.443 0 0 1-.306-.753l4.806-4.846c.17-.17.446-.17.617 0 .169.172.169.45 0 .621l-4.807 4.845a.436.436 0 0 1-.31.132Z"/><path fill="#093F68" fill-rule="evenodd" d="M45.479 66.143h39.625a.436.436 0 0 0 .397-.577l-1.887-5.837a.437.437 0 0 0-.415-.303H47.367a.437.437 0 0 0-.437.303l-1.888 5.837a.443.443 0 0 0 .068.404c.087.115.225.18.369.173Zm39.026-.881H46.091l1.603-4.956h35.207l1.604 4.956Z" clip-rule="evenodd"/><path fill="#080C20" d="M56.6 45.476h19v7.153h-19z"/><path fill="#093F68" fill-rule="evenodd" d="M56.6 53.07h18.995a.439.439 0 0 0 .437-.441v-7.153a.439.439 0 0 0-.437-.44H56.6a.439.439 0 0 0-.437.44v7.153c0 .243.196.44.437.44Zm18.558-.881H57.037v-6.273h18.121v6.273Z" clip-rule="evenodd"/><path fill="#093F68" d="M57.212 66.143a.435.435 0 0 1-.127 0 .441.441 0 0 1-.293-.546l5.97-20.262a.437.437 0 0 1 .541-.295.441.441 0 0 1 .297.546l-5.969 20.262a.437.437 0 0 1-.42.295ZM75.259 66.143a.437.437 0 0 1-.437-.317l-5.82-20.262a.441.441 0 0 1 .297-.542.434.434 0 0 1 .541.3l5.82 20.261a.441.441 0 0 1-.296.547.372.372 0 0 1-.105.013ZM55.337 54.845h-2.22a.439.439 0 0 1-.437-.44c0-.244.196-.441.437-.441h2.22c.241 0 .437.197.437.44s-.196.44-.437.44ZM59.462 47.594h-1.376a.439.439 0 0 1-.437-.44c0-.243.195-.44.437-.44h1.376c.241 0 .437.197.437.44s-.196.44-.437.44Z"/></svg>